  0
SECTION
  2
HEADER
  9
$ACADVER
  1
AC1024
  9
$ACADMAINTVER
 70
6
  9
$DWGCODEPAGE
  3
ANSI_1252
  9
$LASTSAVEDBY
  1
ezdxf
  9
$INSBASE
 10
0.0
 20
0.0
 30
0.0
  9
$EXTMIN
 10
1e+20
 20
1e+20
 30
1e+20
  9
$EXTMAX
 10
-1e+20
 20
-1e+20
 30
-1e+20
  9
$LIMMIN
 10
0.0
 20
0.0
  9
$LIMMAX
 10
420.0
 20
297.0
  9
$ORTHOMODE
 70
0
  9
$REGENMODE
 70
1
  9
$FILLMODE
 70
1
  9
$QTEXTMODE
 70
0
  9
$MIRRTEXT
 70
1
  9
$LTSCALE
 40
1.0
  9
$ATTMODE
 70
1
  9
$TEXTSIZE
 40
2.5
  9
$TRACEWID
 40
1.0
  9
$TEXTSTYLE
  7
Standard
  9
$CLAYER
  8
0
  9
$CELTYPE
  6
ByLayer
  9
$CECOLOR
 62
256
  9
$CELTSCALE
 40
1.0
  9
$DISPSILH
 70
0
  9
$DIMSCALE
 40
1.0
  9
$DIMASZ
 40
2.5
  9
$DIMEXO
 40
0.625
  9
$DIMDLI
 40
3.75
  9
$DIMRND
 40
0.0
  9
$DIMDLE
 40
0.0
  9
$DIMEXE
 40
1.25
  9
$DIMTP
 40
0.0
  9
$DIMTM
 40
0.0
  9
$DIMTXT
 40
2.5
  9
$DIMCEN
 40
2.5
  9
$DIMTSZ
 40
0.0
  9
$DIMTOL
 70
0
  9
$DIMLIM
 70
0
  9
$DIMTIH
 70
0
  9
$DIMTOH
 70
0
  9
$DIMSE1
 70
0
  9
$DIMSE2
 70
0
  9
$DIMTAD
 70
1
  9
$DIMZIN
 70
8
  9
$DIMBLK
  1

  9
$DIMASO
 70
1
  9
$DIMSHO
 70
1
  9
$DIMPOST
  1

  9
$DIMAPOST
  1

  9
$DIMALT
 70
0
  9
$DIMALTD
 70
3
  9
$DIMALTF
 40
0.03937007874
  9
$DIMLFAC
 40
1.0
  9
$DIMTOFL
 70
1
  9
$DIMTVP
 40
0.0
  9
$DIMTIX
 70
0
  9
$DIMSOXD
 70
0
  9
$DIMSAH
 70
0
  9
$DIMBLK1
  1

  9
$DIMBLK2
  1

  9
$DIMSTYLE
  2
ISO-25
  9
$DIMCLRD
 70
0
  9
$DIMCLRE
 70
0
  9
$DIMCLRT
 70
0
  9
$DIMTFAC
 40
1.0
  9
$DIMGAP
 40
0.625
  9
$DIMJUST
 70
0
  9
$DIMSD1
 70
0
  9
$DIMSD2
 70
0
  9
$DIMTOLJ
 70
0
  9
$DIMTZIN
 70
8
  9
$DIMALTZ
 70
0
  9
$DIMALTTZ
 70
0
  9
$DIMUPT
 70
0
  9
$DIMDEC
 70
2
  9
$DIMTDEC
 70
2
  9
$DIMALTU
 70
2
  9
$DIMALTTD
 70
3
  9
$DIMTXSTY
  7
Standard
  9
$DIMAUNIT
 70
0
  9
$DIMADEC
 70
0
  9
$DIMALTRND
 40
0.0
  9
$DIMAZIN
 70
0
  9
$DIMDSEP
 70
44
  9
$DIMATFIT
 70
3
  9
$DIMFRAC
 70
0
  9
$DIMLDRBLK
  1

  9
$DIMLUNIT
 70
2
  9
$DIMLWD
 70
-2
  9
$DIMLWE
 70
-2
  9
$DIMTMOVE
 70
0
  9
$DIMFXL
 40
1.0
  9
$DIMFXLON
 70
0
  9
$DIMJOGANG
 40
0.785398163397
  9
$DIMTFILL
 70
0
  9
$DIMTFILLCLR
 70
0
  9
$DIMARCSYM
 70
0
  9
$DIMLTYPE
  6

  9
$DIMLTEX1
  6

  9
$DIMLTEX2
  6

  9
$DIMTXTDIRECTION
 70
0
  9
$LUNITS
 70
2
  9
$LUPREC
 70
4
  9
$SKETCHINC
 40
1.0
  9
$FILLETRAD
 40
10.0
  9
$AUNITS
 70
0
  9
$AUPREC
 70
2
  9
$MENU
  1
.
  9
$ELEVATION
 40
0.0
  9
$PELEVATION
 40
0.0
  9
$THICKNESS
 40
0.0
  9
$LIMCHECK
 70
0
  9
$CHAMFERA
 40
0.0
  9
$CHAMFERB
 40
0.0
  9
$CHAMFERC
 40
0.0
  9
$CHAMFERD
 40
0.0
  9
$SKPOLY
 70
0
  9
$TDCREATE
 40
2461114.7319791666
  9
$TDUCREATE
 40
2458532.153996898
  9
$TDUPDATE
 40
2461114.7319791666
  9
$TDUUPDATE
 40
2458532.1544311
  9
$TDINDWG
 40
0.0
  9
$TDUSRTIMER
 40
0.0
  9
$USRTIMER
 70
1
  9
$ANGBASE
 50
0.0
  9
$ANGDIR
 70
0
  9
$PDMODE
 70
0
  9
$PDSIZE
 40
0.0
  9
$PLINEWID
 40
0.0
  9
$SPLFRAME
 70
0
  9
$SPLINETYPE
 70
6
  9
$SPLINESEGS
 70
8
  9
$HANDSEED
  5
291
  9
$SURFTAB1
 70
6
  9
$SURFTAB2
 70
6
  9
$SURFTYPE
 70
6
  9
$SURFU
 70
6
  9
$SURFV
 70
6
  9
$UCSBASE
  2

  9
$UCSNAME
  2

  9
$UCSORG
 10
0.0
 20
0.0
 30
0.0
  9
$UCSXDIR
 10
1.0
 20
0.0
 30
0.0
  9
$UCSYDIR
 10
0.0
 20
1.0
 30
0.0
  9
$UCSORTHOREF
  2

  9
$UCSORTHOVIEW
 70
0
  9
$UCSORGTOP
 10
0.0
 20
0.0
 30
0.0
  9
$UCSORGBOTTOM
 10
0.0
 20
0.0
 30
0.0
  9
$UCSORGLEFT
 10
0.0
 20
0.0
 30
0.0
  9
$UCSORGRIGHT
 10
0.0
 20
0.0
 30
0.0
  9
$UCSORGFRONT
 10
0.0
 20
0.0
 30
0.0
  9
$UCSORGBACK
 10
0.0
 20
0.0
 30
0.0
  9
$PUCSBASE
  2

  9
$PUCSNAME
  2

  9
$PUCSORG
 10
0.0
 20
0.0
 30
0.0
  9
$PUCSXDIR
 10
1.0
 20
0.0
 30
0.0
  9
$PUCSYDIR
 10
0.0
 20
1.0
 30
0.0
  9
$PUCSORTHOREF
  2

  9
$PUCSORTHOVIEW
 70
0
  9
$PUCSORGTOP
 10
0.0
 20
0.0
 30
0.0
  9
$PUCSORGBOTTOM
 10
0.0
 20
0.0
 30
0.0
  9
$PUCSORGLEFT
 10
0.0
 20
0.0
 30
0.0
  9
$PUCSORGRIGHT
 10
0.0
 20
0.0
 30
0.0
  9
$PUCSORGFRONT
 10
0.0
 20
0.0
 30
0.0
  9
$PUCSORGBACK
 10
0.0
 20
0.0
 30
0.0
  9
$USERI1
 70
0
  9
$USERI2
 70
0
  9
$USERI3
 70
0
  9
$USERI4
 70
0
  9
$USERI5
 70
0
  9
$USERR1
 40
0.0
  9
$USERR2
 40
0.0
  9
$USERR3
 40
0.0
  9
$USERR4
 40
0.0
  9
$USERR5
 40
0.0
  9
$WORLDVIEW
 70
1
  9
$SHADEDGE
 70
3
  9
$SHADEDIF
 70
70
  9
$TILEMODE
 70
1
  9
$MAXACTVP
 70
64
  9
$PINSBASE
 10
0.0
 20
0.0
 30
0.0
  9
$PLIMCHECK
 70
0
  9
$PEXTMIN
 10
1e+20
 20
1e+20
 30
1e+20
  9
$PEXTMAX
 10
-1e+20
 20
-1e+20
 30
-1e+20
  9
$PLIMMIN
 10
0.0
 20
0.0
  9
$PLIMMAX
 10
420.0
 20
297.0
  9
$UNITMODE
 70
0
  9
$VISRETAIN
 70
1
  9
$PLINEGEN
 70
0
  9
$PSLTSCALE
 70
1
  9
$TREEDEPTH
 70
3020
  9
$CMLSTYLE
  2
Standard
  9
$CMLJUST
 70
0
  9
$CMLSCALE
 40
20.0
  9
$PROXYGRAPHICS
 70
1
  9
$MEASUREMENT
 70
1
  9
$CELWEIGHT
370
-1
  9
$ENDCAPS
280
0
  9
$JOINSTYLE
280
0
  9
$LWDISPLAY
290
0
  9
$INSUNITS
 70
6
  9
$HYPERLINKBASE
  1

  9
$STYLESHEET
  1

  9
$XEDIT
290
1
  9
$CEPSNTYPE
380
0
  9
$PSTYLEMODE
290
1
  9
$FINGERPRINTGUID
  2
{CF412CB6-EA0E-46A3-A950-9F1682CF6647}
  9
$VERSIONGUID
  2
{E39D0BC6-336C-41F1-B0D4-D04E46B55EA5}
  9
$EXTNAMES
290
1
  9
$PSVPSCALE
 40
0.0
  9
$OLESTARTUP
290
0
  9
$SORTENTS
280
127
  9
$INDEXCTL
280
0
  9
$HIDETEXT
280
1
  9
$XCLIPFRAME
280
1
  9
$HALOGAP
280
0
  9
$OBSCOLOR
 70
257
  9
$OBSLTYPE
280
0
  9
$INTERSECTIONDISPLAY
280
0
  9
$INTERSECTIONCOLOR
 70
257
  9
$DIMASSOC
280
2
  9
$PROJECTNAME
  1

  9
$CAMERADISPLAY
290
0
  9
$LENSLENGTH
 40
50.0
  9
$CAMERAHEIGHT
 40
0.0
  9
$STEPSPERSEC
 40
24.0
  9
$STEPSIZE
 40
100.0
  9
$3DDWFPREC
 40
2.0
  9
$PSOLWIDTH
 40
0.005
  9
$PSOLHEIGHT
 40
0.08
  9
$LOFTANG1
 40
1.570796326795
  9
$LOFTANG2
 40
1.570796326795
  9
$LOFTMAG1
 40
0.0
  9
$LOFTMAG2
 40
0.0
  9
$LOFTPARAM
 70
7
  9
$LOFTNORMALS
280
1
  9
$LATITUDE
 40
37.795
  9
$LONGITUDE
 40
-122.394
  9
$NORTHDIRECTION
 40
0.0
  9
$TIMEZONE
 70
-8000
  9
$LIGHTGLYPHDISPLAY
280
1
  9
$TILEMODELIGHTSYNCH
280
1
  9
$CMATERIAL
347
20
  9
$SOLIDHIST
280
0
  9
$SHOWHIST
280
1
  9
$DWFFRAME
280
2
  9
$DGNFRAME
280
2
  9
$REALWORLDSCALE
290
1
  9
$INTERFERECOLOR
 62
256
  9
$CSHADOW
280
0
  9
$SHADOWPLANELOCATION
 40
0.0
  0
ENDSEC
  0
SECTION
  2
CLASSES
  0
CLASS
  1
ACDBDICTIONARYWDFLT
  2
AcDbDictionaryWithDefault
  3
ObjectDBX Classes
 90
0
 91
0
280
0
281
0
  0
CLASS
  1
SUN
  2
AcDbSun
  3
SCENEOE
 90
1153
 91
0
280
0
281
0
  0
CLASS
  1
VISUALSTYLE
  2
AcDbVisualStyle
  3
ObjectDBX Classes
 90
4095
 91
0
280
0
281
0
  0
CLASS
  1
MATERIAL
  2
AcDbMaterial
  3
ObjectDBX Classes
 90
1153
 91
0
280
0
281
0
  0
CLASS
  1
SCALE
  2
AcDbScale
  3
ObjectDBX Classes
 90
1153
 91
0
280
0
281
0
  0
CLASS
  1
TABLESTYLE
  2
AcDbTableStyle
  3
ObjectDBX Classes
 90
4095
 91
0
280
0
281
0
  0
CLASS
  1
MLEADERSTYLE
  2
AcDbMLeaderStyle
  3
ACDB_MLEADERSTYLE_CLASS
 90
4095
 91
0
280
0
281
0
  0
CLASS
  1
DICTIONARYVAR
  2
AcDbDictionaryVar
  3
ObjectDBX Classes
 90
0
 91
0
280
0
281
0
  0
CLASS
  1
CELLSTYLEMAP
  2
AcDbCellStyleMap
  3
ObjectDBX Classes
 90
1152
 91
0
280
0
281
0
  0
CLASS
  1
MENTALRAYRENDERSETTINGS
  2
AcDbMentalRayRenderSettings
  3
SCENEOE
 90
1024
 91
0
280
0
281
0
  0
CLASS
  1
ACDBDETAILVIEWSTYLE
  2
AcDbDetailViewStyle
  3
ObjectDBX Classes
 90
1025
 91
0
280
0
281
0
  0
CLASS
  1
ACDBSECTIONVIEWSTYLE
  2
AcDbSectionViewStyle
  3
ObjectDBX Classes
 90
1025
 91
0
280
0
281
0
  0
CLASS
  1
RASTERVARIABLES
  2
AcDbRasterVariables
  3
ISM
 90
0
 91
0
280
0
281
0
  0
CLASS
  1
LAYOUT
  2
AcDbLayout
  3
ObjectDBX Classes
 90
0
 91
0
280
0
281
0
  0
CLASS
  1
ACDBPLACEHOLDER
  2
AcDbPlaceHolder
  3
ObjectDBX Classes
 90
0
 91
0
280
0
281
0
  0
ENDSEC
  0
SECTION
  2
TABLES
  0
TABLE
  2
VPORT
  5
8
330
0
100
AcDbSymbolTable
 70
1
  0
VPORT
  5
23
330
8
100
AcDbSymbolTableRecord
100
AcDbViewportTableRecord
  2
*Active
 70
0
 10
0.0
 20
0.0
 11
1.0
 21
1.0
 12
0.0
 22
0.0
 13
0.0
 23
0.0
 14
0.5
 24
0.5
 15
0.5
 25
0.5
 16
0.0
 26
0.0
 36
1.0
 17
0.0
 27
0.0
 37
0.0
 40
1000.0
 41
1.34
 42
50.0
 43
0.0
 44
0.0
 50
0.0
 51
0.0
 71
0
 72
1000
 73
1
 74
3
 75
0
 76
0
 77
0
 78
0
281
0
 65
0
146
0.0
  0
ENDTAB
  0
TABLE
  2
LTYPE
  5
2
330
0
100
AcDbSymbolTable
 70
3
  0
LTYPE
  5
24
330
2
100
AcDbSymbolTableRecord
100
AcDbLinetypeTableRecord
  2
ByBlock
 70
0
  3

 72
65
 73
0
 40
0.0
  0
LTYPE
  5
25
330
2
100
AcDbSymbolTableRecord
100
AcDbLinetypeTableRecord
  2
ByLayer
 70
0
  3

 72
65
 73
0
 40
0.0
  0
LTYPE
  5
26
330
2
100
AcDbSymbolTableRecord
100
AcDbLinetypeTableRecord
  2
Continuous
 70
0
  3

 72
65
 73
0
 40
0.0
  0
ENDTAB
  0
TABLE
  2
LAYER
  5
1
330
0
100
AcDbSymbolTable
 70
10
  0
LAYER
  5
27
330
1
100
AcDbSymbolTableRecord
100
AcDbLayerTableRecord
  2
0
 70
0
 62
7
  6
Continuous
370
-3
390
13
347
21
  0
LAYER
  5
28
330
1
100
AcDbSymbolTableRecord
100
AcDbLayerTableRecord
  2
Defpoints
 70
0
 62
7
  6
Continuous
290
0
370
-3
390
13
347
21
  0
LAYER
  5
2F
330
1
100
AcDbSymbolTableRecord
100
AcDbLayerTableRecord
  2
A-WALL
 70
0
 62
7
  6
Continuous
370
-3
390
13
347
21
  0
LAYER
  5
30
330
1
100
AcDbSymbolTableRecord
100
AcDbLayerTableRecord
  2
A-HATCH
 70
0
 62
251
  6
Continuous
370
-3
390
13
347
21
  0
LAYER
  5
31
330
1
100
AcDbSymbolTableRecord
100
AcDbLayerTableRecord
  2
A-TEXT
 70
0
 62
3
  6
Continuous
370
-3
390
13
347
21
  0
LAYER
  5
32
330
1
100
AcDbSymbolTableRecord
100
AcDbLayerTableRecord
  2
A-CORE
 70
0
 62
30
  6
Continuous
370
-3
390
13
347
21
  0
LAYER
  5
33
330
1
100
AcDbSymbolTableRecord
100
AcDbLayerTableRecord
  2
A-BALC
 70
0
 62
4
  6
Continuous
370
-3
390
13
347
21
  0
LAYER
  5
34
330
1
100
AcDbSymbolTableRecord
100
AcDbLayerTableRecord
  2
A-CIRC
 70
0
 62
8
  6
Continuous
370
-3
390
13
347
21
  0
LAYER
  5
35
330
1
100
AcDbSymbolTableRecord
100
AcDbLayerTableRecord
  2
A-DOOR
 70
0
 62
1
  6
Continuous
370
-3
390
13
347
21
  0
LAYER
  5
36
330
1
100
AcDbSymbolTableRecord
100
AcDbLayerTableRecord
  2
A-GLAZ
 70
0
 62
140
  6
Continuous
370
-3
390
13
347
21
  0
ENDTAB
  0
TABLE
  2
STYLE
  5
5
330
0
100
AcDbSymbolTable
 70
1
  0
STYLE
  5
29
330
5
100
AcDbSymbolTableRecord
100
AcDbTextStyleTableRecord
  2
Standard
 70
0
 40
0.0
 41
1.0
 50
0.0
 71
0
 42
2.5
  3
txt
  4

  0
ENDTAB
  0
TABLE
  2
VIEW
  5
7
330
0
100
AcDbSymbolTable
 70
0
  0
ENDTAB
  0
TABLE
  2
UCS
  5
6
330
0
100
AcDbSymbolTable
 70
0
  0
ENDTAB
  0
TABLE
  2
APPID
  5
3
330
0
100
AcDbSymbolTable
 70
3
  0
APPID
  5
2A
330
3
100
AcDbSymbolTableRecord
100
AcDbRegAppTableRecord
  2
ACAD
 70
0
  0
APPID
  5
28E
330
3
100
AcDbSymbolTableRecord
100
AcDbRegAppTableRecord
  2
HATCHBACKGROUNDCOLOR
 70
0
  0
APPID
  5
28F
330
3
100
AcDbSymbolTableRecord
100
AcDbRegAppTableRecord
  2
EZDXF
 70
0
  0
ENDTAB
  0
TABLE
  2
DIMSTYLE
  5
4
330
0
100
AcDbSymbolTable
 70
1
100
AcDbDimStyleTable
  0
DIMSTYLE
105
2B
330
4
100
AcDbSymbolTableRecord
100
AcDbDimStyleTableRecord
  2
Standard
 70
0
 40
1.0
 41
2.5
 42
0.625
 43
3.75
 44
1.25
 45
0.0
 46
0.0
 47
0.0
 48
0.0
 49
2.5
140
2.5
141
2.5
142
0.0
143
0.03937007874
144
1.0
145
0.0
146
1.0
147
0.625
148
0.0
 69
0
 70
0
 71
0
 72
0
 73
0
 74
0
 75
0
 76
0
 77
1
 78
8
 79
3
170
0
171
3
172
1
173
0
174
0
175
0
176
0
177
0
178
0
179
2
271
2
272
2
273
2
274
3
275
0
276
0
277
2
278
44
279
0
280
0
281
0
282
0
283
0
284
8
285
0
286
0
288
0
289
3
290
0
371
-2
372
-2
  0
ENDTAB
  0
TABLE
  2
BLOCK_RECORD
  5
9
330
0
100
AcDbSymbolTable
 70
2
  0
BLOCK_RECORD
  5
17
330
9
100
AcDbSymbolTableRecord
100
AcDbBlockTableRecord
  2
*Model_Space
340
1A
 70
0
280
1
281
0
  0
BLOCK_RECORD
  5
1B
330
9
100
AcDbSymbolTableRecord
100
AcDbBlockTableRecord
  2
*Paper_Space
340
1E
 70
0
280
1
281
0
  0
ENDTAB
  0
ENDSEC
  0
SECTION
  2
BLOCKS
  0
BLOCK
  5
18
330
17
100
AcDbEntity
  8
0
100
AcDbBlockBegin
  2
*Model_Space
 70
0
 10
0.0
 20
0.0
 30
0.0
  3
*Model_Space
  1

  0
ENDBLK
  5
19
330
17
100
AcDbEntity
  8
0
100
AcDbBlockEnd
  0
BLOCK
  5
1C
330
1B
100
AcDbEntity
  8
0
100
AcDbBlockBegin
  2
*Paper_Space
 70
0
 10
0.0
 20
0.0
 30
0.0
  3
*Paper_Space
  1

  0
ENDBLK
  5
1D
330
1B
100
AcDbEntity
  8
0
100
AcDbBlockEnd
  0
ENDSEC
  0
SECTION
  2
ENTITIES
  0
LWPOLYLINE
  5
37
330
17
100
AcDbEntity
  8
A-WALL
100
AcDbPolyline
 90
4
 70
1
 10
72.0
 20
-53.1
 10
76.2
 20
-53.1
 10
76.2
 20
-49.2
 10
72.0
 20
-49.2
  0
TEXT
  5
38
330
17
100
AcDbEntity
  8
A-TEXT
100
AcDbText
 10
74.1
 20
51.150000000000006
 30
0.0
 40
0.35
  1
SERVICE CORE 1
 11
74.1
 21
51.150000000000006
 31
0.0
100
AcDbText
  0
TEXT
  5
39
330
17
100
AcDbEntity
  8
A-TEXT
100
AcDbText
 10
74.1
 20
50.650000000000006
 30
0.0
 40
0.25
  1
16.4m2
 11
74.1
 21
50.650000000000006
 31
0.0
100
AcDbText
  0
LWPOLYLINE
  5
3A
330
17
100
AcDbEntity
  8
A-WALL
100
AcDbPolyline
 90
4
 70
1
 10
132.0
 20
-53.35
 10
136.2
 20
-53.35
 10
136.2
 20
-49.45
 10
132.0
 20
-49.45
  0
TEXT
  5
3B
330
17
100
AcDbEntity
  8
A-TEXT
100
AcDbText
 10
134.1
 20
51.400000000000006
 30
0.0
 40
0.35
  1
SERVICE CORE 2
 11
134.1
 21
51.400000000000006
 31
0.0
100
AcDbText
  0
TEXT
  5
3C
330
17
100
AcDbEntity
  8
A-TEXT
100
AcDbText
 10
134.1
 20
50.900000000000006
 30
0.0
 40
0.25
  1
16.4m2
 11
134.1
 21
50.900000000000006
 31
0.0
100
AcDbText
  0
LWPOLYLINE
  5
3D
330
17
100
AcDbEntity
  8
A-WALL
100
AcDbPolyline
 90
4
 70
1
 10
192.0
 20
-53.65
 10
196.2
 20
-53.65
 10
196.2
 20
-49.75
 10
192.0
 20
-49.75
  0
TEXT
  5
3E
330
17
100
AcDbEntity
  8
A-TEXT
100
AcDbText
 10
194.1
 20
51.7
 30
0.0
 40
0.35
  1
SERVICE CORE 3
 11
194.1
 21
51.7
 31
0.0
100
AcDbText
  0
TEXT
  5
3F
330
17
100
AcDbEntity
  8
A-TEXT
100
AcDbText
 10
194.1
 20
51.2
 30
0.0
 40
0.25
  1
16.4m2
 11
194.1
 21
51.2
 31
0.0
100
AcDbText
  0
LWPOLYLINE
  5
40
330
17
100
AcDbEntity
  8
A-WALL
100
AcDbPolyline
 90
4
 70
1
 10
252.0
 20
-53.9
 10
256.2
 20
-53.9
 10
256.2
 20
-50.0
 10
252.0
 20
-50.0
  0
TEXT
  5
41
330
17
100
AcDbEntity
  8
A-TEXT
100
AcDbText
 10
254.1
 20
51.95
 30
0.0
 40
0.35
  1
SERVICE CORE 4
 11
254.1
 21
51.95
 31
0.0
100
AcDbText
  0
TEXT
  5
42
330
17
100
AcDbEntity
  8
A-TEXT
100
AcDbText
 10
254.1
 20
51.45
 30
0.0
 40
0.25
  1
16.4m2
 11
254.1
 21
51.45
 31
0.0
100
AcDbText
  0
LWPOLYLINE
  5
43
330
17
100
AcDbEntity
  8
A-WALL
100
AcDbPolyline
 90
4
 70
1
 10
234.75
 20
-54.45
 10
230.55
 20
-54.45
 10
230.55
 20
-58.35
 10
234.75
 20
-58.35
  0
TEXT
  5
44
330
17
100
AcDbEntity
  8
A-TEXT
100
AcDbText
 10
232.65
 20
56.4
 30
0.0
 40
0.35
  1
SERVICE CORE 5
 11
232.65
 21
56.4
 31
0.0
100
AcDbText
  0
TEXT
  5
45
330
17
100
AcDbEntity
  8
A-TEXT
100
AcDbText
 10
232.65
 20
55.9
 30
0.0
 40
0.25
  1
16.4m2
 11
232.65
 21
55.9
 31
0.0
100
AcDbText
  0
LWPOLYLINE
  5
46
330
17
100
AcDbEntity
  8
A-WALL
100
AcDbPolyline
 90
4
 70
1
 10
193.5
 20
-35.3
 10
193.5
 20
-31.1
 10
189.6
 20
-31.1
 10
189.6
 20
-35.3
  0
TEXT
  5
47
330
17
100
AcDbEntity
  8
A-TEXT
100
AcDbText
 10
191.55
 20
33.2
 30
0.0
 40
0.35
  1
SERVICE CORE 6
 11
191.55
 21
33.2
 31
0.0
100
AcDbText
  0
TEXT
  5
48
330
17
100
AcDbEntity
  8
A-TEXT
100
AcDbText
 10
191.55
 20
32.7
 30
0.0
 40
0.25
  1
16.4m2
 11
191.55
 21
32.7
 31
0.0
100
AcDbText
  0
LWPOLYLINE
  5
49
330
17
100
AcDbEntity
  8
A-WALL
100
AcDbPolyline
 90
4
 70
1
 10
273.6
 20
-54.0
 10
273.6
 20
-43.2
 10
273.6
 20
-54.0
 10
273.6
 20
-64.8
  0
TEXT
  5
4A
330
17
100
AcDbEntity
  8
A-TEXT
100
AcDbText
 10
273.6
 20
54.0
 30
0.0
 40
0.35
  1
(X CORNER)
 11
273.6
 21
54.0
 31
0.0
100
AcDbText
  0
TEXT
  5
4B
330
17
100
AcDbEntity
  8
A-TEXT
100
AcDbText
 10
273.6
 20
53.5
 30
0.0
 40
0.25
  1
0m2
 11
273.6
 21
53.5
 31
0.0
100
AcDbText
  0
LWPOLYLINE
  5
4C
330
17
100
AcDbEntity
  8
A-WALL
100
AcDbPolyline
 90
4
 70
1
 10
273.6
 20
-54.0
 10
273.6
 20
-64.8
 10
273.6
 20
-54.0
 10
273.6
 20
-43.2
  0
TEXT
  5
4D
330
17
100
AcDbEntity
  8
A-TEXT
100
AcDbText
 10
273.6
 20
54.0
 30
0.0
 40
0.35
  1
(X CORNER)
 11
273.6
 21
54.0
 31
0.0
100
AcDbText
  0
TEXT
  5
4E
330
17
100
AcDbEntity
  8
A-TEXT
100
AcDbText
 10
273.6
 20
53.5
 30
0.0
 40
0.25
  1
0m2
 11
273.6
 21
53.5
 31
0.0
100
AcDbText
  0
LWPOLYLINE
  5
4F
330
17
100
AcDbEntity
  8
A-WALL
100
AcDbPolyline
 90
4
 70
1
 10
193.5
 20
-54.9
 10
193.5
 20
-65.7
 10
182.7
 20
-65.7
 10
182.7
 20
-54.9
  0
TEXT
  5
50
330
17
100
AcDbEntity
  8
A-TEXT
100
AcDbText
 10
188.10000000000002
 20
60.300000000000004
 30
0.0
 40
0.35
  1
CORNER SUITE
 11
188.10000000000002
 21
60.300000000000004
 31
0.0
100
AcDbText
  0
TEXT
  5
51
330
17
100
AcDbEntity
  8
A-TEXT
100
AcDbText
 10
188.10000000000002
 20
59.800000000000004
 30
0.0
 40
0.25
  1
116.6m2
 11
188.10000000000002
 21
59.800000000000004
 31
0.0
100
AcDbText
  0
LWPOLYLINE
  5
52
330
17
100
AcDbEntity
  8
A-WALL
100
AcDbPolyline
 90
4
 70
1
 10
195.3
 20
-53.1
 10
195.3
 20
-42.3
 10
206.1
 20
-42.3
 10
206.1
 20
-53.1
  0
TEXT
  5
53
330
17
100
AcDbEntity
  8
A-TEXT
100
AcDbText
 10
200.70000000000002
 20
47.699999999999996
 30
0.0
 40
0.35
  1
(X CORNER)
 11
200.70000000000002
 21
47.699999999999996
 31
0.0
100
AcDbText
  0
TEXT
  5
54
330
17
100
AcDbEntity
  8
A-TEXT
100
AcDbText
 10
200.70000000000002
 20
47.199999999999996
 30
0.0
 40
0.25
  1
116.6m2
 11
200.70000000000002
 21
47.199999999999996
 31
0.0
100
AcDbText
  0
LWPOLYLINE
  5
55
330
17
100
AcDbEntity
  8
A-WALL
100
AcDbPolyline
 90
4
 70
1
 10
76.2
 20
-53.1
 10
76.25
 20
-42.3
 10
79.85
 20
-42.35
 10
79.8
 20
-53.15
  0
TEXT
  5
56
330
17
100
AcDbEntity
  8
A-TEXT
100
AcDbText
 10
78.02499999999999
 20
47.725
 30
0.0
 40
0.35
  1
STUDIO
 11
78.02499999999999
 21
47.725
 31
0.0
100
AcDbText
  0
TEXT
  5
57
330
17
100
AcDbEntity
  8
A-TEXT
100
AcDbText
 10
78.02499999999999
 20
47.225
 30
0.0
 40
0.25
  1
38.9m2
 11
78.02499999999999
 21
47.225
 31
0.0
100
AcDbText
  0
LWPOLYLINE
  5
58
330
17
100
AcDbEntity
  8
A-BALC
100
AcDbPolyline
 90
4
 70
1
 10
76.25
 20
-42.3
 10
79.85
 20
-42.35
 10
79.86666505938891
 20
-41.15011572399853
 10
76.26666505938891
 20
-41.10011572399853
  0
HATCH
  5
59
330
17
100
AcDbEntity
  8
A-HATCH
 62
7
100
AcDbHatch
 10
0.0
 20
0.0
 30
0.0
210
0.0
220
0.0
230
1.0
  2
SOLID
 70
1
 71
0
 91
1
 92
3
 72
0
 73
1
 93
4
 10
76.25
 20
-42.3
 10
79.85
 20
-42.35
 10
79.86666505938891
 20
-41.15011572399853
 10
76.26666505938891
 20
-41.10011572399853
 97
0
 75
0
 76
1
 98
0
  0
LWPOLYLINE
  5
5A
330
17
100
AcDbEntity
  8
A-WALL
100
AcDbPolyline
 90
4
 70
1
 10
79.8
 20
-53.15
 10
79.85
 20
-42.35
 10
83.45
 20
-42.35
 10
83.4
 20
-53.15
  0
TEXT
  5
5B
330
17
100
AcDbEntity
  8
A-TEXT
100
AcDbText
 10
81.625
 20
47.75
 30
0.0
 40
0.35
  1
STUDIO
 11
81.625
 21
47.75
 31
0.0
100
AcDbText
  0
TEXT
  5
5C
330
17
100
AcDbEntity
  8
A-TEXT
100
AcDbText
 10
81.625
 20
47.25
 30
0.0
 40
0.25
  1
38.9m2
 11
81.625
 21
47.25
 31
0.0
100
AcDbText
  0
LWPOLYLINE
  5
5D
330
17
100
AcDbEntity
  8
A-BALC
100
AcDbPolyline
 90
4
 70
1
 10
79.85
 20
-42.35
 10
83.45
 20
-42.35
 10
83.45
 20
-41.15
 10
79.85
 20
-41.15
  0
HATCH
  5
5E
330
17
100
AcDbEntity
  8
A-HATCH
 62
7
100
AcDbHatch
 10
0.0
 20
0.0
 30
0.0
210
0.0
220
0.0
230
1.0
  2
SOLID
 70
1
 71
0
 91
1
 92
3
 72
0
 73
1
 93
4
 10
79.85
 20
-42.35
 10
83.45
 20
-42.35
 10
83.45
 20
-41.15
 10
79.85
 20
-41.15
 97
0
 75
0
 76
1
 98
0
  0
LWPOLYLINE
  5
5F
330
17
100
AcDbEntity
  8
A-WALL
100
AcDbPolyline
 90
4
 70
1
 10
88.1
 20
-53.15
 10
93.1
 20
-53.2
 10
93.1
 20
-50.7
 10
88.1
 20
-50.65
  0
TEXT
  5
60
330
17
100
AcDbEntity
  8
A-TEXT
100
AcDbText
 10
90.6
 20
51.925000000000004
 30
0.0
 40
0.35
  1
DUCT
 11
90.6
 21
51.925000000000004
 31
0.0
100
AcDbText
  0
TEXT
  5
61
330
17
100
AcDbEntity
  8
A-TEXT
100
AcDbText
 10
90.6
 20
51.425000000000004
 30
0.0
 40
0.25
  1
12.5m2
 11
90.6
 21
51.425000000000004
 31
0.0
100
AcDbText
  0
LWPOLYLINE
  5
62
330
17
100
AcDbEntity
  8
A-WALL
100
AcDbPolyline
 90
6
 70
1
 10
83.4
 20
-53.15
 10
83.45
 20
-42.35
 10
90.65
 20
-42.4
 10
90.6
 20
-50.7
 10
88.1
 20
-50.65
 10
88.1
 20
-53.15
  0
TEXT
  5
63
330
17
100
AcDbEntity
  8
A-TEXT
100
AcDbText
 10
87.38333333333334
 20
48.73333333333334
 30
0.0
 40
0.35
  1
1 BEDROOM
 11
87.38333333333334
 21
48.73333333333334
 31
0.0
100
AcDbText
  0
TEXT
  5
64
330
17
100
AcDbEntity
  8
A-TEXT
100
AcDbText
 10
87.38333333333334
 20
48.23333333333334
 30
0.0
 40
0.25
  1
71.3m2
 11
87.38333333333334
 21
48.23333333333334
 31
0.0
100
AcDbText
  0
LWPOLYLINE
  5
65
330
17
100
AcDbEntity
  8
A-BALC
100
AcDbPolyline
 90
4
 70
1
 10
83.45
 20
-42.35
 10
90.65
 20
-42.4
 10
90.65833313240182
 20
-41.20002893413867
 10
83.45833313240182
 20
-41.150028934138675
  0
HATCH
  5
66
330
17
100
AcDbEntity
  8
A-HATCH
 62
7
100
AcDbHatch
 10
0.0
 20
0.0
 30
0.0
210
0.0
220
0.0
230
1.0
  2
SOLID
 70
1
 71
0
 91
1
 92
3
 72
0
 73
1
 93
4
 10
83.45
 20
-42.35
 10
90.65
 20
-42.4
 10
90.65833313240182
 20
-41.20002893413867
 10
83.45833313240182
 20
-41.150028934138675
 97
0
 75
0
 76
1
 98
0
  0
LWPOLYLINE
  5
67
330
17
100
AcDbEntity
  8
A-WALL
100
AcDbPolyline
 90
4
 70
1
 10
95.3
 20
-53.2
 10
100.3
 20
-53.25
 10
100.3
 20
-50.75
 10
95.3
 20
-50.7
  0
TEXT
  5
68
330
17
100
AcDbEntity
  8
A-TEXT
100
AcDbText
 10
97.8
 20
51.974999999999994
 30
0.0
 40
0.35
  1
DUCT
 11
97.8
 21
51.974999999999994
 31
0.0
100
AcDbText
  0
TEXT
  5
69
330
17
100
AcDbEntity
  8
A-TEXT
100
AcDbText
 10
97.8
 20
51.474999999999994
 30
0.0
 40
0.25
  1
12.5m2
 11
97.8
 21
51.474999999999994
 31
0.0
100
AcDbText
  0
LWPOLYLINE
  5
6A
330
17
100
AcDbEntity
  8
A-WALL
100
AcDbPolyline
 90
8
 70
1
 10
93.1
 20
-53.2
 10
93.1
 20
-50.7
 10
90.6
 20
-50.7
 10
90.65
 20
-42.4
 10
97.85
 20
-42.4
 10
97.8
 20
-50.7
 10
95.3
 20
-50.7
 10
95.3
 20
-53.2
  0
TEXT
  5
6B
330
17
100
AcDbEntity
  8
A-TEXT
100
AcDbText
 10
94.21249999999998
 20
49.25
 30
0.0
 40
0.35
  1
1 BEDROOM
 11
94.21249999999998
 21
49.25
 31
0.0
100
AcDbText
  0
TEXT
  5
6C
330
17
100
AcDbEntity
  8
A-TEXT
100
AcDbText
 10
94.21249999999998
 20
48.75
 30
0.0
 40
0.25
  1
65.3m2
 11
94.21249999999998
 21
48.75
 31
0.0
100
AcDbText
  0
LWPOLYLINE
  5
6D
330
17
100
AcDbEntity
  8
A-BALC
100
AcDbPolyline
 90
4
 70
1
 10
90.65
 20
-42.4
 10
97.85
 20
-42.4
 10
97.85
 20
-41.199999999999996
 10
90.65
 20
-41.199999999999996
  0
HATCH
  5
6E
330
17
100
AcDbEntity
  8
A-HATCH
 62
7
100
AcDbHatch
 10
0.0
 20
0.0
 30
0.0
210
0.0
220
0.0
230
1.0
  2
SOLID
 70
1
 71
0
 91
1
 92
3
 72
0
 73
1
 93
4
 10
90.65
 20
-42.4
 10
97.85
 20
-42.4
 10
97.85
 20
-41.199999999999996
 10
90.65
 20
-41.199999999999996
 97
0
 75
0
 76
1
 98
0
  0
LWPOLYLINE
  5
6F
330
17
100
AcDbEntity
  8
A-WALL
100
AcDbPolyline
 90
4
 70
1
 10
102.5
 20
-53.25
 10
107.5
 20
-53.25
 10
107.5
 20
-50.75
 10
102.5
 20
-50.75
  0
TEXT
  5
70
330
17
100
AcDbEntity
  8
A-TEXT
100
AcDbText
 10
105.0
 20
52.0
 30
0.0
 40
0.35
  1
DUCT
 11
105.0
 21
52.0
 31
0.0
100
AcDbText
  0
TEXT
  5
71
330
17
100
AcDbEntity
  8
A-TEXT
100
AcDbText
 10
105.0
 20
51.5
 30
0.0
 40
0.25
  1
12.5m2
 11
105.0
 21
51.5
 31
0.0
100
AcDbText
  0
LWPOLYLINE
  5
72
330
17
100
AcDbEntity
  8
A-WALL
100
AcDbPolyline
 90
8
 70
1
 10
100.3
 20
-53.25
 10
100.3
 20
-50.75
 10
97.8
 20
-50.7
 10
97.85
 20
-42.4
 10
105.05
 20
-42.45
 10
105.0
 20
-50.75
 10
102.5
 20
-50.75
 10
102.5
 20
-53.25
  0
TEXT
  5
73
330
17
100
AcDbEntity
  8
A-TEXT
100
AcDbText
 10
101.4125
 20
49.2875
 30
0.0
 40
0.35
  1
1 BEDROOM
 11
101.4125
 21
49.2875
 31
0.0
100
AcDbText
  0
TEXT
  5
74
330
17
100
AcDbEntity
  8
A-TEXT
100
AcDbText
 10
101.4125
 20
48.7875
 30
0.0
 40
0.25
  1
65.4m2
 11
101.4125
 21
48.7875
 31
0.0
100
AcDbText
  0
LWPOLYLINE
  5
75
330
17
100
AcDbEntity
  8
A-BALC
100
AcDbPolyline
 90
4
 70
1
 10
97.85
 20
-42.4
 10
105.05
 20
-42.45
 10
105.05833313240181
 20
-41.250028934138676
 10
97.85833313240181
 20
-41.20002893413867
  0
HATCH
  5
76
330
17
100
AcDbEntity
  8
A-HATCH
 62
7
100
AcDbHatch
 10
0.0
 20
0.0
 30
0.0
210
0.0
220
0.0
230
1.0
  2
SOLID
 70
1
 71
0
 91
1
 92
3
 72
0
 73
1
 93
4
 10
97.85
 20
-42.4
 10
105.05
 20
-42.45
 10
105.05833313240181
 20
-41.250028934138676
 10
97.85833313240181
 20
-41.20002893413867
 97
0
 75
0
 76
1
 98
0
  0
LWPOLYLINE
  5
77
330
17
100
AcDbEntity
  8
A-WALL
100
AcDbPolyline
 90
4
 70
1
 10
109.7
 20
-53.25
 10
114.7
 20
-53.3
 10
114.7
 20
-50.8
 10
109.7
 20
-50.75
  0
TEXT
  5
78
330
17
100
AcDbEntity
  8
A-TEXT
100
AcDbText
 10
112.2
 20
52.025
 30
0.0
 40
0.35
  1
DUCT
 11
112.2
 21
52.025
 31
0.0
100
AcDbText
  0
TEXT
  5
79
330
17
100
AcDbEntity
  8
A-TEXT
100
AcDbText
 10
112.2
 20
51.525
 30
0.0
 40
0.25
  1
12.5m2
 11
112.2
 21
51.525
 31
0.0
100
AcDbText
  0
LWPOLYLINE
  5
7A
330
17
100
AcDbEntity
  8
A-WALL
100
AcDbPolyline
 90
8
 70
1
 10
107.5
 20
-53.25
 10
107.5
 20
-50.75
 10
105.0
 20
-50.75
 10
105.05
 20
-42.45
 10
112.25
 20
-42.5
 10
112.2
 20
-50.8
 10
109.7
 20
-50.75
 10
109.7
 20
-53.25
  0
TEXT
  5
7B
330
17
100
AcDbEntity
  8
A-TEXT
100
AcDbText
 10
108.61250000000001
 20
49.3125
 30
0.0
 40
0.35
  1
1 BEDROOM
 11
108.61250000000001
 21
49.3125
 31
0.0
100
AcDbText
  0
TEXT
  5
7C
330
17
100
AcDbEntity
  8
A-TEXT
100
AcDbText
 10
108.61250000000001
 20
48.8125
 30
0.0
 40
0.25
  1
65.1m2
 11
108.61250000000001
 21
48.8125
 31
0.0
100
AcDbText
  0
LWPOLYLINE
  5
7D
330
17
100
AcDbEntity
  8
A-BALC
100
AcDbPolyline
 90
4
 70
1
 10
105.05
 20
-42.45
 10
112.25
 20
-42.5
 10
112.25833313240182
 20
-41.30002893413867
 10
105.05833313240181
 20
-41.250028934138676
  0
HATCH
  5
7E
330
17
100
AcDbEntity
  8
A-HATCH
 62
7
100
AcDbHatch
 10
0.0
 20
0.0
 30
0.0
210
0.0
220
0.0
230
1.0
  2
SOLID
 70
1
 71
0
 91
1
 92
3
 72
0
 73
1
 93
4
 10
105.05
 20
-42.45
 10
112.25
 20
-42.5
 10
112.25833313240182
 20
-41.30002893413867
 10
105.05833313240181
 20
-41.250028934138676
 97
0
 75
0
 76
1
 98
0
  0
LWPOLYLINE
  5
7F
330
17
100
AcDbEntity
  8
A-WALL
100
AcDbPolyline
 90
4
 70
1
 10
116.9
 20
-53.3
 10
121.9
 20
-53.3
 10
121.9
 20
-50.8
 10
116.9
 20
-50.8
  0
TEXT
  5
80
330
17
100
AcDbEntity
  8
A-TEXT
100
AcDbText
 10
119.4
 20
52.05
 30
0.0
 40
0.35
  1
DUCT
 11
119.4
 21
52.05
 31
0.0
100
AcDbText
  0
TEXT
  5
81
330
17
100
AcDbEntity
  8
A-TEXT
100
AcDbText
 10
119.4
 20
51.55
 30
0.0
 40
0.25
  1
12.5m2
 11
119.4
 21
51.55
 31
0.0
100
AcDbText
  0
LWPOLYLINE
  5
82
330
17
100
AcDbEntity
  8
A-WALL
100
AcDbPolyline
 90
8
 70
1
 10
114.7
 20
-53.3
 10
114.7
 20
-50.8
 10
112.2
 20
-50.8
 10
112.25
 20
-42.5
 10
119.45
 20
-42.5
 10
119.4
 20
-50.8
 10
116.9
 20
-50.8
 10
116.9
 20
-53.3
  0
TEXT
  5
83
330
17
100
AcDbEntity
  8
A-TEXT
100
AcDbText
 10
115.8125
 20
49.35
 30
0.0
 40
0.35
  1
1 BEDROOM
 11
115.8125
 21
49.35
 31
0.0
100
AcDbText
  0
TEXT
  5
84
330
17
100
AcDbEntity
  8
A-TEXT
100
AcDbText
 10
115.8125
 20
48.85
 30
0.0
 40
0.25
  1
65.3m2
 11
115.8125
 21
48.85
 31
0.0
100
AcDbText
  0
LWPOLYLINE
  5
85
330
17
100
AcDbEntity
  8
A-BALC
100
AcDbPolyline
 90
4
 70
1
 10
112.25
 20
-42.5
 10
119.45
 20
-42.5
 10
119.45
 20
-41.3
 10
112.25
 20
-41.3
  0
HATCH
  5
86
330
17
100
AcDbEntity
  8
A-HATCH
 62
7
100
AcDbHatch
 10
0.0
 20
0.0
 30
0.0
210
0.0
220
0.0
230
1.0
  2
SOLID
 70
1
 71
0
 91
1
 92
3
 72
0
 73
1
 93
4
 10
112.25
 20
-42.5
 10
119.45
 20
-42.5
 10
119.45
 20
-41.3
 10
112.25
 20
-41.3
 97
0
 75
0
 76
1
 98
0
  0
LWPOLYLINE
  5
87
330
17
100
AcDbEntity
  8
A-WALL
100
AcDbPolyline
 90
6
 70
1
 10
121.9
 20
-53.3
 10
121.9
 20
-50.8
 10
119.4
 20
-50.8
 10
119.45
 20
-42.5
 10
130.25
 20
-42.55
 10
130.2
 20
-53.35
  0
TEXT
  5
88
330
17
100
AcDbEntity
  8
A-TEXT
100
AcDbText
 10
123.85000000000002
 20
48.88333333333333
 30
0.0
 40
0.35
  1
2 BEDROOM
 11
123.85000000000002
 21
48.88333333333333
 31
0.0
100
AcDbText
  0
TEXT
  5
89
330
17
100
AcDbEntity
  8
A-TEXT
100
AcDbText
 10
123.85000000000002
 20
48.38333333333333
 30
0.0
 40
0.25
  1
110.4m2
 11
123.85000000000002
 21
48.38333333333333
 31
0.0
100
AcDbText
  0
LWPOLYLINE
  5
8A
330
17
100
AcDbEntity
  8
A-BALC
100
AcDbPolyline
 90
4
 70
1
 10
119.45
 20
-42.5
 10
130.25
 20
-42.55
 10
130.2555554960191
 20
-41.35001285987558
 10
119.4555554960191
 20
-41.30001285987558
  0
HATCH
  5
8B
330
17
100
AcDbEntity
  8
A-HATCH
 62
7
100
AcDbHatch
 10
0.0
 20
0.0
 30
0.0
210
0.0
220
0.0
230
1.0
  2
SOLID
 70
1
 71
0
 91
1
 92
3
 72
0
 73
1
 93
4
 10
119.45
 20
-42.5
 10
130.25
 20
-42.55
 10
130.2555554960191
 20
-41.35001285987558
 10
119.4555554960191
 20
-41.30001285987558
 97
0
 75
0
 76
1
 98
0
  0
LWPOLYLINE
  5
8C
330
17
100
AcDbEntity
  8
A-WALL
100
AcDbPolyline
 90
4
 70
1
 10
130.2
 20
-53.35
 10
130.25
 20
-42.55
 10
132.05
 20
-42.55
 10
132.0
 20
-53.35
  0
TEXT
  5
8D
330
17
100
AcDbEntity
  8
A-TEXT
100
AcDbText
 10
131.125
 20
47.949999999999996
 30
0.0
 40
0.35
  1
STUDIO
 11
131.125
 21
47.949999999999996
 31
0.0
100
AcDbText
  0
TEXT
  5
8E
330
17
100
AcDbEntity
  8
A-TEXT
100
AcDbText
 10
131.125
 20
47.449999999999996
 30
0.0
 40
0.25
  1
19.4m2
 11
131.125
 21
47.449999999999996
 31
0.0
100
AcDbText
  0
LWPOLYLINE
  5
8F
330
17
100
AcDbEntity
  8
A-BALC
100
AcDbPolyline
 90
4
 70
1
 10
130.25
 20
-42.55
 10
132.05
 20
-42.55
 10
132.05
 20
-41.349999999999994
 10
130.25
 20
-41.349999999999994
  0
HATCH
  5
90
330
17
100
AcDbEntity
  8
A-HATCH
 62
7
100
AcDbHatch
 10
0.0
 20
0.0
 30
0.0
210
0.0
220
0.0
230
1.0
  2
SOLID
 70
1
 71
0
 91
1
 92
3
 72
0
 73
1
 93
4
 10
130.25
 20
-42.55
 10
132.05
 20
-42.55
 10
132.05
 20
-41.349999999999994
 10
130.25
 20
-41.349999999999994
 97
0
 75
0
 76
1
 98
0
  0
LWPOLYLINE
  5
91
330
17
100
AcDbEntity
  8
A-WALL
100
AcDbPolyline
 90
4
 70
1
 10
148.1
 20
-53.45
 10
153.1
 20
-53.45
 10
153.1
 20
-50.95
 10
148.1
 20
-50.95
  0
TEXT
  5
92
330
17
100
AcDbEntity
  8
A-TEXT
100
AcDbText
 10
150.6
 20
52.2
 30
0.0
 40
0.35
  1
DUCT
 11
150.6
 21
52.2
 31
0.0
100
AcDbText
  0
TEXT
  5
93
330
17
100
AcDbEntity
  8
A-TEXT
100
AcDbText
 10
150.6
 20
51.7
 30
0.0
 40
0.25
  1
12.5m2
 11
150.6
 21
51.7
 31
0.0
100
AcDbText
  0
LWPOLYLINE
  5
94
330
17
100
AcDbEntity
  8
A-WALL
100
AcDbPolyline
 90
6
 70
1
 10
136.2
 20
-53.4
 10
136.25
 20
-42.6
 10
150.65
 20
-42.65
 10
150.6
 20
-50.95
 10
148.1
 20
-50.95
 10
148.1
 20
-53.45
  0
TEXT
  5
95
330
17
100
AcDbEntity
  8
A-TEXT
100
AcDbText
 10
144.98333333333335
 20
49.0
 30
0.0
 40
0.35
  1
3 BEDROOM
 11
144.98333333333335
 21
49.0
 31
0.0
100
AcDbText
  0
TEXT
  5
96
330
17
100
AcDbEntity
  8
A-TEXT
100
AcDbText
 10
144.98333333333335
 20
48.5
 30
0.0
 40
0.25
  1
149.3m2
 11
144.98333333333335
 21
48.5
 31
0.0
100
AcDbText
  0
LWPOLYLINE
  5
97
330
17
100
AcDbEntity
  8
A-BALC
100
AcDbPolyline
 90
4
 70
1
 10
136.25
 20
-42.6
 10
150.65
 20
-42.65
 10
150.65416664154955
 20
-41.45000723373089
 10
136.25416664154955
 20
-41.40000723373089
  0
HATCH
  5
98
330
17
100
AcDbEntity
  8
A-HATCH
 62
7
100
AcDbHatch
 10
0.0
 20
0.0
 30
0.0
210
0.0
220
0.0
230
1.0
  2
SOLID
 70
1
 71
0
 91
1
 92
3
 72
0
 73
1
 93
4
 10
136.25
 20
-42.6
 10
150.65
 20
-42.65
 10
150.65416664154955
 20
-41.45000723373089
 10
136.25416664154955
 20
-41.40000723373089
 97
0
 75
0
 76
1
 98
0
  0
LWPOLYLINE
  5
99
330
17
100
AcDbEntity
  8
A-WALL
100
AcDbPolyline
 90
6
 70
1
 10
153.1
 20
-53.45
 10
153.1
 20
-50.95
 10
150.6
 20
-50.95
 10
150.65
 20
-42.65
 10
154.25
 20
-42.65
 10
154.2
 20
-53.45
  0
TEXT
  5
9A
330
17
100
AcDbEntity
  8
A-TEXT
100
AcDbText
 10
152.64999999999998
 20
49.01666666666667
 30
0.0
 40
0.35
  1
STUDIO
 11
152.64999999999998
 21
49.01666666666667
 31
0.0
100
AcDbText
  0
TEXT
  5
9B
330
17
100
AcDbEntity
  8
A-TEXT
100
AcDbText
 10
152.64999999999998
 20
48.51666666666667
 30
0.0
 40
0.25
  1
32.7m2
 11
152.64999999999998
 21
48.51666666666667
 31
0.0
100
AcDbText
  0
LWPOLYLINE
  5
9C
330
17
100
AcDbEntity
  8
A-BALC
100
AcDbPolyline
 90
4
 70
1
 10
150.65
 20
-42.65
 10
154.25
 20
-42.65
 10
154.25
 20
-41.449999999999996
 10
150.65
 20
-41.449999999999996
  0
HATCH
  5
9D
330
17
100
AcDbEntity
  8
A-HATCH
 62
7
100
AcDbHatch
 10
0.0
 20
0.0
 30
0.0
210
0.0
220
0.0
230
1.0
  2
SOLID
 70
1
 71
0
 91
1
 92
3
 72
0
 73
1
 93
4
 10
150.65
 20
-42.65
 10
154.25
 20
-42.65
 10
154.25
 20
-41.449999999999996
 10
150.65
 20
-41.449999999999996
 97
0
 75
0
 76
1
 98
0
  0
LWPOLYLINE
  5
9E
330
17
100
AcDbEntity
  8
A-WALL
100
AcDbPolyline
 90
4
 70
1
 10
154.2
 20
-53.45
 10
154.25
 20
-42.65
 10
157.85
 20
-42.7
 10
157.8
 20
-53.5
  0
TEXT
  5
9F
330
17
100
AcDbEntity
  8
A-TEXT
100
AcDbText
 10
156.02499999999998
 20
48.075
 30
0.0
 40
0.35
  1
STUDIO
 11
156.02499999999998
 21
48.075
 31
0.0
100
AcDbText
  0
TEXT
  5
A0
330
17
100
AcDbEntity
  8
A-TEXT
100
AcDbText
 10
156.02499999999998
 20
47.575
 30
0.0
 40
0.25
  1
38.9m2
 11
156.02499999999998
 21
47.575
 31
0.0
100
AcDbText
  0
LWPOLYLINE
  5
A1
330
17
100
AcDbEntity
  8
A-BALC
100
AcDbPolyline
 90
4
 70
1
 10
154.25
 20
-42.65
 10
157.85
 20
-42.7
 10
157.8666650593889
 20
-41.50011572399853
 10
154.2666650593889
 20
-41.45011572399853
  0
HATCH
  5
A2
330
17
100
AcDbEntity
  8
A-HATCH
 62
7
100
AcDbHatch
 10
0.0
 20
0.0
 30
0.0
210
0.0
220
0.0
230
1.0
  2
SOLID
 70
1
 71
0
 91
1
 92
3
 72
0
 73
1
 93
4
 10
154.25
 20
-42.65
 10
157.85
 20
-42.7
 10
157.8666650593889
 20
-41.50011572399853
 10
154.2666650593889
 20
-41.45011572399853
 97
0
 75
0
 76
1
 98
0
  0
LWPOLYLINE
  5
A3
330
17
100
AcDbEntity
  8
A-WALL
100
AcDbPolyline
 90
4
 70
1
 10
157.8
 20
-53.5
 10
157.85
 20
-42.7
 10
161.45
 20
-42.7
 10
161.4
 20
-53.5
  0
TEXT
  5
A4
330
17
100
AcDbEntity
  8
A-TEXT
100
AcDbText
 10
159.625
 20
48.1
 30
0.0
 40
0.35
  1
STUDIO
 11
159.625
 21
48.1
 31
0.0
100
AcDbText
  0
TEXT
  5
A5
330
17
100
AcDbEntity
  8
A-TEXT
100
AcDbText
 10
159.625
 20
47.6
 30
0.0
 40
0.25
  1
38.9m2
 11
159.625
 21
47.6
 31
0.0
100
AcDbText
  0
LWPOLYLINE
  5
A6
330
17
100
AcDbEntity
  8
A-BALC
100
AcDbPolyline
 90
4
 70
1
 10
157.85
 20
-42.7
 10
161.45
 20
-42.7
 10
161.45
 20
-41.5
 10
157.85
 20
-41.5
  0
HATCH
  5
A7
330
17
100
AcDbEntity
  8
A-HATCH
 62
7
100
AcDbHatch
 10
0.0
 20
0.0
 30
0.0
210
0.0
220
0.0
230
1.0
  2
SOLID
 70
1
 71
0
 91
1
 92
3
 72
0
 73
1
 93
4
 10
157.85
 20
-42.7
 10
161.45
 20
-42.7
 10
161.45
 20
-41.5
 10
157.85
 20
-41.5
 97
0
 75
0
 76
1
 98
0
  0
LWPOLYLINE
  5
A8
330
17
100
AcDbEntity
  8
A-WALL
100
AcDbPolyline
 90
4
 70
1
 10
166.1
 20
-53.5
 10
171.1
 20
-53.55
 10
171.1
 20
-51.05
 10
166.1
 20
-51.0
  0
TEXT
  5
A9
330
17
100
AcDbEntity
  8
A-TEXT
100
AcDbText
 10
168.6
 20
52.275
 30
0.0
 40
0.35
  1
DUCT
 11
168.6
 21
52.275
 31
0.0
100
AcDbText
  0
TEXT
  5
AA
330
17
100
AcDbEntity
  8
A-TEXT
100
AcDbText
 10
168.6
 20
51.775
 30
0.0
 40
0.25
  1
12.5m2
 11
168.6
 21
51.775
 31
0.0
100
AcDbText
  0
LWPOLYLINE
  5
AB
330
17
100
AcDbEntity
  8
A-WALL
100
AcDbPolyline
 90
6
 70
1
 10
161.4
 20
-53.5
 10
161.45
 20
-42.7
 10
168.65
 20
-42.75
 10
168.6
 20
-51.05
 10
166.1
 20
-51.0
 10
166.1
 20
-53.5
  0
TEXT
  5
AC
330
17
100
AcDbEntity
  8
A-TEXT
100
AcDbText
 10
165.38333333333335
 20
49.083333333333336
 30
0.0
 40
0.35
  1
1 BEDROOM
 11
165.38333333333335
 21
49.083333333333336
 31
0.0
100
AcDbText
  0
TEXT
  5
AD
330
17
100
AcDbEntity
  8
A-TEXT
100
AcDbText
 10
165.38333333333335
 20
48.583333333333336
 30
0.0
 40
0.25
  1
71.3m2
 11
165.38333333333335
 21
48.583333333333336
 31
0.0
100
AcDbText
  0
LWPOLYLINE
  5
AE
330
17
100
AcDbEntity
  8
A-BALC
100
AcDbPolyline
 90
4
 70
1
 10
161.45
 20
-42.7
 10
168.65
 20
-42.75
 10
168.65833313240182
 20
-41.55002893413867
 10
161.4583331324018
 20
-41.500028934138676
  0
HATCH
  5
AF
330
17
100
AcDbEntity
  8
A-HATCH
 62
7
100
AcDbHatch
 10
0.0
 20
0.0
 30
0.0
210
0.0
220
0.0
230
1.0
  2
SOLID
 70
1
 71
0
 91
1
 92
3
 72
0
 73
1
 93
4
 10
161.45
 20
-42.7
 10
168.65
 20
-42.75
 10
168.65833313240182
 20
-41.55002893413867
 10
161.4583331324018
 20
-41.500028934138676
 97
0
 75
0
 76
1
 98
0
  0
LWPOLYLINE
  5
B0
330
17
100
AcDbEntity
  8
A-WALL
100
AcDbPolyline
 90
4
 70
1
 10
173.3
 20
-53.55
 10
178.3
 20
-53.6
 10
178.3
 20
-51.1
 10
173.3
 20
-51.05
  0
TEXT
  5
B1
330
17
100
AcDbEntity
  8
A-TEXT
100
AcDbText
 10
175.8
 20
52.325
 30
0.0
 40
0.35
  1
DUCT
 11
175.8
 21
52.325
 31
0.0
100
AcDbText
  0
TEXT
  5
B2
330
17
100
AcDbEntity
  8
A-TEXT
100
AcDbText
 10
175.8
 20
51.825
 30
0.0
 40
0.25
  1
12.5m2
 11
175.8
 21
51.825
 31
0.0
100
AcDbText
  0
LWPOLYLINE
  5
B3
330
17
100
AcDbEntity
  8
A-WALL
100
AcDbPolyline
 90
8
 70
1
 10
171.1
 20
-53.55
 10
171.1
 20
-51.05
 10
168.6
 20
-51.05
 10
168.65
 20
-42.75
 10
175.85
 20
-42.75
 10
175.8
 20
-51.05
 10
173.3
 20
-51.05
 10
173.3
 20
-53.55
  0
TEXT
  5
B4
330
17
100
AcDbEntity
  8
A-TEXT
100
AcDbText
 10
172.21249999999998
 20
49.6
 30
0.0
 40
0.35
  1
1 BEDROOM
 11
172.21249999999998
 21
49.6
 31
0.0
100
AcDbText
  0
TEXT
  5
B5
330
17
100
AcDbEntity
  8
A-TEXT
100
AcDbText
 10
172.21249999999998
 20
49.1
 30
0.0
 40
0.25
  1
65.3m2
 11
172.21249999999998
 21
49.1
 31
0.0
100
AcDbText
  0
LWPOLYLINE
  5
B6
330
17
100
AcDbEntity
  8
A-BALC
100
AcDbPolyline
 90
4
 70
1
 10
168.65
 20
-42.75
 10
175.85
 20
-42.75
 10
175.85
 20
-41.55
 10
168.65
 20
-41.55
  0
HATCH
  5
B7
330
17
100
AcDbEntity
  8
A-HATCH
 62
7
100
AcDbHatch
 10
0.0
 20
0.0
 30
0.0
210
0.0
220
0.0
230
1.0
  2
SOLID
 70
1
 71
0
 91
1
 92
3
 72
0
 73
1
 93
4
 10
168.65
 20
-42.75
 10
175.85
 20
-42.75
 10
175.85
 20
-41.55
 10
168.65
 20
-41.55
 97
0
 75
0
 76
1
 98
0
  0
LWPOLYLINE
  5
B8
330
17
100
AcDbEntity
  8
A-WALL
100
AcDbPolyline
 90
4
 70
1
 10
180.5
 20
-53.6
 10
185.5
 20
-53.6
 10
185.5
 20
-51.1
 10
180.5
 20
-51.1
  0
TEXT
  5
B9
330
17
100
AcDbEntity
  8
A-TEXT
100
AcDbText
 10
183.0
 20
52.35
 30
0.0
 40
0.35
  1
DUCT
 11
183.0
 21
52.35
 31
0.0
100
AcDbText
  0
TEXT
  5
BA
330
17
100
AcDbEntity
  8
A-TEXT
100
AcDbText
 10
183.0
 20
51.85
 30
0.0
 40
0.25
  1
12.5m2
 11
183.0
 21
51.85
 31
0.0
100
AcDbText
  0
LWPOLYLINE
  5
BB
330
17
100
AcDbEntity
  8
A-WALL
100
AcDbPolyline
 90
8
 70
1
 10
178.3
 20
-53.6
 10
178.3
 20
-51.1
 10
175.8
 20
-51.05
 10
175.85
 20
-42.75
 10
183.05
 20
-42.8
 10
183.0
 20
-51.1
 10
180.5
 20
-51.1
 10
180.5
 20
-53.6
  0
TEXT
  5
BC
330
17
100
AcDbEntity
  8
A-TEXT
100
AcDbText
 10
179.41250000000002
 20
49.63750000000001
 30
0.0
 40
0.35
  1
1 BEDROOM
 11
179.41250000000002
 21
49.63750000000001
 31
0.0
100
AcDbText
  0
TEXT
  5
BD
330
17
100
AcDbEntity
  8
A-TEXT
100
AcDbText
 10
179.41250000000002
 20
49.13750000000001
 30
0.0
 40
0.25
  1
65.4m2
 11
179.41250000000002
 21
49.13750000000001
 31
0.0
100
AcDbText
  0
LWPOLYLINE
  5
BE
330
17
100
AcDbEntity
  8
A-BALC
100
AcDbPolyline
 90
4
 70
1
 10
175.85
 20
-42.75
 10
183.05
 20
-42.8
 10
183.05833313240183
 20
-41.60002893413867
 10
175.8583331324018
 20
-41.55002893413867
  0
HATCH
  5
BF
330
17
100
AcDbEntity
  8
A-HATCH
 62
7
100
AcDbHatch
 10
0.0
 20
0.0
 30
0.0
210
0.0
220
0.0
230
1.0
  2
SOLID
 70
1
 71
0
 91
1
 92
3
 72
0
 73
1
 93
4
 10
175.85
 20
-42.75
 10
183.05
 20
-42.8
 10
183.05833313240183
 20
-41.60002893413867
 10
175.8583331324018
 20
-41.55002893413867
 97
0
 75
0
 76
1
 98
0
  0
LWPOLYLINE
  5
C0
330
17
100
AcDbEntity
  8
A-WALL
100
AcDbPolyline
 90
6
 70
1
 10
185.5
 20
-53.6
 10
185.5
 20
-51.1
 10
183.0
 20
-51.1
 10
183.05
 20
-42.8
 10
190.25
 20
-42.85
 10
190.2
 20
-53.65
  0
TEXT
  5
C1
330
17
100
AcDbEntity
  8
A-TEXT
100
AcDbText
 10
186.25
 20
49.18333333333334
 30
0.0
 40
0.35
  1
1 BEDROOM
 11
186.25
 21
49.18333333333334
 31
0.0
100
AcDbText
  0
TEXT
  5
C2
330
17
100
AcDbEntity
  8
A-TEXT
100
AcDbText
 10
186.25
 20
48.68333333333334
 30
0.0
 40
0.25
  1
71.5m2
 11
186.25
 21
48.68333333333334
 31
0.0
100
AcDbText
  0
LWPOLYLINE
  5
C3
330
17
100
AcDbEntity
  8
A-BALC
100
AcDbPolyline
 90
4
 70
1
 10
183.05
 20
-42.8
 10
190.25
 20
-42.85
 10
190.25833313240182
 20
-41.650028934138675
 10
183.05833313240183
 20
-41.60002893413867
  0
HATCH
  5
C4
330
17
100
AcDbEntity
  8
A-HATCH
 62
7
100
AcDbHatch
 10
0.0
 20
0.0
 30
0.0
210
0.0
220
0.0
230
1.0
  2
SOLID
 70
1
 71
0
 91
1
 92
3
 72
0
 73
1
 93
4
 10
183.05
 20
-42.8
 10
190.25
 20
-42.85
 10
190.25833313240182
 20
-41.650028934138675
 10
183.05833313240183
 20
-41.60002893413867
 97
0
 75
0
 76
1
 98
0
  0
LWPOLYLINE
  5
C5
330
17
100
AcDbEntity
  8
A-WALL
100
AcDbPolyline
 90
4
 70
1
 10
190.2
 20
-53.65
 10
190.25
 20
-42.85
 10
192.05
 20
-42.85
 10
192.0
 20
-53.65
  0
TEXT
  5
C6
330
17
100
AcDbEntity
  8
A-TEXT
100
AcDbText
 10
191.125
 20
48.25
 30
0.0
 40
0.35
  1
STUDIO
 11
191.125
 21
48.25
 31
0.0
100
AcDbText
  0
TEXT
  5
C7
330
17
100
AcDbEntity
  8
A-TEXT
100
AcDbText
 10
191.125
 20
47.75
 30
0.0
 40
0.25
  1
19.4m2
 11
191.125
 21
47.75
 31
0.0
100
AcDbText
  0
LWPOLYLINE
  5
C8
330
17
100
AcDbEntity
  8
A-BALC
100
AcDbPolyline
 90
4
 70
1
 10
190.2
 20
-53.65
 10
190.25
 20
-42.85
 10
189.05001285987558
 20
-42.8444445039809
 10
189.00001285987557
 20
-53.6444445039809
  0
HATCH
  5
C9
330
17
100
AcDbEntity
  8
A-HATCH
 62
7
100
AcDbHatch
 10
0.0
 20
0.0
 30
0.0
210
0.0
220
0.0
230
1.0
  2
SOLID
 70
1
 71
0
 91
1
 92
3
 72
0
 73
1
 93
4
 10
190.2
 20
-53.65
 10
190.25
 20
-42.85
 10
189.05001285987558
 20
-42.8444445039809
 10
189.00001285987557
 20
-53.6444445039809
 97
0
 75
0
 76
1
 98
0
  0
LWPOLYLINE
  5
CA
330
17
100
AcDbEntity
  8
A-WALL
100
AcDbPolyline
 90
4
 70
1
 10
214.4
 20
-53.75
 10
219.4
 20
-53.75
 10
219.4
 20
-51.25
 10
214.4
 20
-51.25
  0
TEXT
  5
CB
330
17
100
AcDbEntity
  8
A-TEXT
100
AcDbText
 10
216.9
 20
52.5
 30
0.0
 40
0.35
  1
DUCT
 11
216.9
 21
52.5
 31
0.0
100
AcDbText
  0
TEXT
  5
CC
330
17
100
AcDbEntity
  8
A-TEXT
100
AcDbText
 10
216.9
 20
52.0
 30
0.0
 40
0.25
  1
12.5m2
 11
216.9
 21
52.0
 31
0.0
100
AcDbText
  0
LWPOLYLINE
  5
CD
330
17
100
AcDbEntity
  8
A-WALL
100
AcDbPolyline
 90
6
 70
1
 10
206.1
 20
-53.7
 10
206.15
 20
-42.9
 10
216.95
 20
-42.95
 10
216.9
 20
-51.25
 10
214.4
 20
-51.25
 10
214.4
 20
-53.75
  0
TEXT
  5
CE
330
17
100
AcDbEntity
  8
A-TEXT
100
AcDbText
 10
212.48333333333335
 20
49.300000000000004
 30
0.0
 40
0.35
  1
2 BEDROOM
 11
212.48333333333335
 21
49.300000000000004
 31
0.0
100
AcDbText
  0
TEXT
  5
CF
330
17
100
AcDbEntity
  8
A-TEXT
100
AcDbText
 10
212.48333333333335
 20
48.800000000000004
 30
0.0
 40
0.25
  1
110.4m2
 11
212.48333333333335
 21
48.800000000000004
 31
0.0
100
AcDbText
  0
LWPOLYLINE
  5
D0
330
17
100
AcDbEntity
  8
A-BALC
100
AcDbPolyline
 90
4
 70
1
 10
206.15
 20
-42.9
 10
216.95
 20
-42.95
 10
216.9555554960191
 20
-41.75001285987558
 10
206.1555554960191
 20
-41.70001285987558
  0
HATCH
  5
D1
330
17
100
AcDbEntity
  8
A-HATCH
 62
7
100
AcDbHatch
 10
0.0
 20
0.0
 30
0.0
210
0.0
220
0.0
230
1.0
  2
SOLID
 70
1
 71
0
 91
1
 92
3
 72
0
 73
1
 93
4
 10
206.15
 20
-42.9
 10
216.95
 20
-42.95
 10
216.9555554960191
 20
-41.75001285987558
 10
206.1555554960191
 20
-41.70001285987558
 97
0
 75
0
 76
1
 98
0
  0
LWPOLYLINE
  5
D2
330
17
100
AcDbEntity
  8
A-WALL
100
AcDbPolyline
 90
4
 70
1
 10
225.2
 20
-53.8
 10
230.2
 20
-53.8
 10
230.2
 20
-51.3
 10
225.2
 20
-51.3
  0
TEXT
  5
D3
330
17
100
AcDbEntity
  8
A-TEXT
100
AcDbText
 10
227.7
 20
52.55
 30
0.0
 40
0.35
  1
DUCT
 11
227.7
 21
52.55
 31
0.0
100
AcDbText
  0
TEXT
  5
D4
330
17
100
AcDbEntity
  8
A-TEXT
100
AcDbText
 10
227.7
 20
52.05
 30
0.0
 40
0.25
  1
12.5m2
 11
227.7
 21
52.05
 31
0.0
100
AcDbText
  0
LWPOLYLINE
  5
D5
330
17
100
AcDbEntity
  8
A-WALL
100
AcDbPolyline
 90
8
 70
1
 10
219.4
 20
-53.75
 10
219.4
 20
-51.25
 10
216.9
 20
-51.25
 10
216.95
 20
-42.95
 10
227.75
 20
-43.0
 10
227.7
 20
-51.3
 10
225.2
 20
-51.3
 10
225.2
 20
-53.8
  0
TEXT
  5
D6
330
17
100
AcDbEntity
  8
A-TEXT
100
AcDbText
 10
222.31250000000003
 20
49.825
 30
0.0
 40
0.35
  1
2 BEDROOM
 11
222.31250000000003
 21
49.825
 31
0.0
100
AcDbText
  0
TEXT
  5
D7
330
17
100
AcDbEntity
  8
A-TEXT
100
AcDbText
 10
222.31250000000003
 20
49.325
 30
0.0
 40
0.25
  1
104.1m2
 11
222.31250000000003
 21
49.325
 31
0.0
100
AcDbText
  0
LWPOLYLINE
  5
D8
330
17
100
AcDbEntity
  8
A-BALC
100
AcDbPolyline
 90
4
 70
1
 10
216.95
 20
-42.95
 10
227.75
 20
-43.0
 10
227.7555554960191
 20
-41.80001285987558
 10
216.9555554960191
 20
-41.75001285987558
  0
HATCH
  5
D9
330
17
100
AcDbEntity
  8
A-HATCH
 62
7
100
AcDbHatch
 10
0.0
 20
0.0
 30
0.0
210
0.0
220
0.0
230
1.0
  2
SOLID
 70
1
 71
0
 91
1
 92
3
 72
0
 73
1
 93
4
 10
216.95
 20
-42.95
 10
227.75
 20
-43.0
 10
227.7555554960191
 20
-41.80001285987558
 10
216.9555554960191
 20
-41.75001285987558
 97
0
 75
0
 76
1
 98
0
  0
LWPOLYLINE
  5
DA
330
17
100
AcDbEntity
  8
A-WALL
100
AcDbPolyline
 90
4
 70
1
 10
239.6
 20
-53.85
 10
244.6
 20
-53.9
 10
244.6
 20
-51.4
 10
239.6
 20
-51.35
  0
TEXT
  5
DB
330
17
100
AcDbEntity
  8
A-TEXT
100
AcDbText
 10
242.1
 20
52.625
 30
0.0
 40
0.35
  1
DUCT
 11
242.1
 21
52.625
 31
0.0
100
AcDbText
  0
TEXT
  5
DC
330
17
100
AcDbEntity
  8
A-TEXT
100
AcDbText
 10
242.1
 20
52.125
 30
0.0
 40
0.25
  1
12.5m2
 11
242.1
 21
52.125
 31
0.0
100
AcDbText
  0
LWPOLYLINE
  5
DD
330
17
100
AcDbEntity
  8
A-WALL
100
AcDbPolyline
 90
8
 70
1
 10
230.2
 20
-53.8
 10
230.2
 20
-51.3
 10
227.7
 20
-51.3
 10
227.75
 20
-43.0
 10
242.15
 20
-43.05
 10
242.1
 20
-51.35
 10
239.6
 20
-51.35
 10
239.6
 20
-53.85
  0
TEXT
  5
DE
330
17
100
AcDbEntity
  8
A-TEXT
100
AcDbText
 10
234.91249999999997
 20
49.87500000000001
 30
0.0
 40
0.35
  1
3 BEDROOM
 11
234.91249999999997
 21
49.87500000000001
 31
0.0
100
AcDbText
  0
TEXT
  5
DF
330
17
100
AcDbEntity
  8
A-TEXT
100
AcDbText
 10
234.91249999999997
 20
49.37500000000001
 30
0.0
 40
0.25
  1
143m2
 11
234.91249999999997
 21
49.37500000000001
 31
0.0
100
AcDbText
  0
LWPOLYLINE
  5
E0
330
17
100
AcDbEntity
  8
A-BALC
100
AcDbPolyline
 90
4
 70
1
 10
227.75
 20
-43.0
 10
242.15
 20
-43.05
 10
242.15416664154955
 20
-41.850007233730885
 10
227.75416664154955
 20
-41.80000723373089
  0
HATCH
  5
E1
330
17
100
AcDbEntity
  8
A-HATCH
 62
7
100
AcDbHatch
 10
0.0
 20
0.0
 30
0.0
210
0.0
220
0.0
230
1.0
  2
SOLID
 70
1
 71
0
 91
1
 92
3
 72
0
 73
1
 93
4
 10
227.75
 20
-43.0
 10
242.15
 20
-43.05
 10
242.15416664154955
 20
-41.850007233730885
 10
227.75416664154955
 20
-41.80000723373089
 97
0
 75
0
 76
1
 98
0
  0
LWPOLYLINE
  5
E2
330
17
100
AcDbEntity
  8
A-WALL
100
AcDbPolyline
 90
6
 70
1
 10
244.6
 20
-53.9
 10
244.6
 20
-51.4
 10
242.1
 20
-51.35
 10
242.15
 20
-43.05
 10
245.75
 20
-43.1
 10
245.7
 20
-53.9
  0
TEXT
  5
E3
330
17
100
AcDbEntity
  8
A-TEXT
100
AcDbText
 10
244.14999999999998
 20
49.449999999999996
 30
0.0
 40
0.35
  1
STUDIO
 11
244.14999999999998
 21
49.449999999999996
 31
0.0
100
AcDbText
  0
TEXT
  5
E4
330
17
100
AcDbEntity
  8
A-TEXT
100
AcDbText
 10
244.14999999999998
 20
48.949999999999996
 30
0.0
 40
0.25
  1
32.7m2
 11
244.14999999999998
 21
48.949999999999996
 31
0.0
100
AcDbText
  0
LWPOLYLINE
  5
E5
330
17
100
AcDbEntity
  8
A-BALC
100
AcDbPolyline
 90
4
 70
1
 10
242.15
 20
-43.05
 10
245.75
 20
-43.1
 10
245.7666650593889
 20
-41.90011572399853
 10
242.16666505938892
 20
-41.85011572399853
  0
HATCH
  5
E6
330
17
100
AcDbEntity
  8
A-HATCH
 62
7
100
AcDbHatch
 10
0.0
 20
0.0
 30
0.0
210
0.0
220
0.0
230
1.0
  2
SOLID
 70
1
 71
0
 91
1
 92
3
 72
0
 73
1
 93
4
 10
242.15
 20
-43.05
 10
245.75
 20
-43.1
 10
245.7666650593889
 20
-41.90011572399853
 10
242.16666505938892
 20
-41.85011572399853
 97
0
 75
0
 76
1
 98
0
  0
LWPOLYLINE
  5
E7
330
17
100
AcDbEntity
  8
A-WALL
100
AcDbPolyline
 90
4
 70
1
 10
245.7
 20
-53.9
 10
245.75
 20
-43.1
 10
249.35
 20
-43.1
 10
249.3
 20
-53.9
  0
TEXT
  5
E8
330
17
100
AcDbEntity
  8
A-TEXT
100
AcDbText
 10
247.52499999999998
 20
48.5
 30
0.0
 40
0.35
  1
STUDIO
 11
247.52499999999998
 21
48.5
 31
0.0
100
AcDbText
  0
TEXT
  5
E9
330
17
100
AcDbEntity
  8
A-TEXT
100
AcDbText
 10
247.52499999999998
 20
48.0
 30
0.0
 40
0.25
  1
38.9m2
 11
247.52499999999998
 21
48.0
 31
0.0
100
AcDbText
  0
LWPOLYLINE
  5
EA
330
17
100
AcDbEntity
  8
A-BALC
100
AcDbPolyline
 90
4
 70
1
 10
245.75
 20
-43.1
 10
249.35
 20
-43.1
 10
249.35
 20
-41.9
 10
245.75
 20
-41.9
  0
HATCH
  5
EB
330
17
100
AcDbEntity
  8
A-HATCH
 62
7
100
AcDbHatch
 10
0.0
 20
0.0
 30
0.0
210
0.0
220
0.0
230
1.0
  2
SOLID
 70
1
 71
0
 91
1
 92
3
 72
0
 73
1
 93
4
 10
245.75
 20
-43.1
 10
249.35
 20
-43.1
 10
249.35
 20
-41.9
 10
245.75
 20
-41.9
 97
0
 75
0
 76
1
 98
0
  0
LWPOLYLINE
  5
EC
330
17
100
AcDbEntity
  8
A-WALL
100
AcDbPolyline
 90
4
 70
1
 10
249.3
 20
-53.9
 10
249.35
 20
-43.1
 10
252.05
 20
-43.1
 10
252.0
 20
-53.9
  0
TEXT
  5
ED
330
17
100
AcDbEntity
  8
A-TEXT
100
AcDbText
 10
250.675
 20
48.5
 30
0.0
 40
0.35
  1
STUDIO
 11
250.675
 21
48.5
 31
0.0
100
AcDbText
  0
TEXT
  5
EE
330
17
100
AcDbEntity
  8
A-TEXT
100
AcDbText
 10
250.675
 20
48.0
 30
0.0
 40
0.25
  1
29.2m2
 11
250.675
 21
48.0
 31
0.0
100
AcDbText
  0
LWPOLYLINE
  5
EF
330
17
100
AcDbEntity
  8
A-BALC
100
AcDbPolyline
 90
4
 70
1
 10
249.35
 20
-43.1
 10
252.05
 20
-43.1
 10
252.05
 20
-41.9
 10
249.35
 20
-41.9
  0
HATCH
  5
F0
330
17
100
AcDbEntity
  8
A-HATCH
 62
7
100
AcDbHatch
 10
0.0
 20
0.0
 30
0.0
210
0.0
220
0.0
230
1.0
  2
SOLID
 70
1
 71
0
 91
1
 92
3
 72
0
 73
1
 93
4
 10
249.35
 20
-43.1
 10
252.05
 20
-43.1
 10
252.05
 20
-41.9
 10
249.35
 20
-41.9
 97
0
 75
0
 76
1
 98
0
  0
LWPOLYLINE
  5
F1
330
17
100
AcDbEntity
  8
A-WALL
100
AcDbPolyline
 90
4
 70
1
 10
260.9
 20
-53.95
 10
265.9
 20
-53.95
 10
265.9
 20
-51.45
 10
260.9
 20
-51.45
  0
TEXT
  5
F2
330
17
100
AcDbEntity
  8
A-TEXT
100
AcDbText
 10
263.4
 20
52.7
 30
0.0
 40
0.35
  1
DUCT
 11
263.4
 21
52.7
 31
0.0
100
AcDbText
  0
TEXT
  5
F3
330
17
100
AcDbEntity
  8
A-TEXT
100
AcDbText
 10
263.4
 20
52.2
 30
0.0
 40
0.25
  1
12.5m2
 11
263.4
 21
52.2
 31
0.0
100
AcDbText
  0
LWPOLYLINE
  5
F4
330
17
100
AcDbEntity
  8
A-WALL
100
AcDbPolyline
 90
6
 70
1
 10
256.2
 20
-53.95
 10
256.25
 20
-43.15
 10
263.45
 20
-43.15
 10
263.4
 20
-51.45
 10
260.9
 20
-51.45
 10
260.9
 20
-53.95
  0
TEXT
  5
F5
330
17
100
AcDbEntity
  8
A-TEXT
100
AcDbText
 10
260.1833333333334
 20
49.51666666666666
 30
0.0
 40
0.35
  1
1 BEDROOM
 11
260.1833333333334
 21
49.51666666666666
 31
0.0
100
AcDbText
  0
TEXT
  5
F6
330
17
100
AcDbEntity
  8
A-TEXT
100
AcDbText
 10
260.1833333333334
 20
49.01666666666666
 30
0.0
 40
0.25
  1
71.4m2
 11
260.1833333333334
 21
49.01666666666666
 31
0.0
100
AcDbText
  0
LWPOLYLINE
  5
F7
330
17
100
AcDbEntity
  8
A-BALC
100
AcDbPolyline
 90
4
 70
1
 10
256.25
 20
-43.15
 10
263.45
 20
-43.15
 10
263.45
 20
-41.949999999999996
 10
256.25
 20
-41.949999999999996
  0
HATCH
  5
F8
330
17
100
AcDbEntity
  8
A-HATCH
 62
7
100
AcDbHatch
 10
0.0
 20
0.0
 30
0.0
210
0.0
220
0.0
230
1.0
  2
SOLID
 70
1
 71
0
 91
1
 92
3
 72
0
 73
1
 93
4
 10
256.25
 20
-43.15
 10
263.45
 20
-43.15
 10
263.45
 20
-41.949999999999996
 10
256.25
 20
-41.949999999999996
 97
0
 75
0
 76
1
 98
0
  0
LWPOLYLINE
  5
F9
330
17
100
AcDbEntity
  8
A-WALL
100
AcDbPolyline
 90
6
 70
1
 10
265.9
 20
-53.95
 10
265.9
 20
-51.45
 10
263.4
 20
-51.45
 10
263.45
 20
-43.15
 10
270.65
 20
-43.2
 10
270.6
 20
-54.0
  0
TEXT
  5
FA
330
17
100
AcDbEntity
  8
A-TEXT
100
AcDbText
 10
266.6499999999999
 20
49.53333333333334
 30
0.0
 40
0.35
  1
1 BEDROOM
 11
266.6499999999999
 21
49.53333333333334
 31
0.0
100
AcDbText
  0
TEXT
  5
FB
330
17
100
AcDbEntity
  8
A-TEXT
100
AcDbText
 10
266.6499999999999
 20
49.03333333333334
 30
0.0
 40
0.25
  1
71.5m2
 11
266.6499999999999
 21
49.03333333333334
 31
0.0
100
AcDbText
  0
LWPOLYLINE
  5
FC
330
17
100
AcDbEntity
  8
A-BALC
100
AcDbPolyline
 90
4
 70
1
 10
263.45
 20
-43.15
 10
270.65
 20
-43.2
 10
270.65833313240176
 20
-42.000028934138676
 10
263.4583331324018
 20
-41.95002893413867
  0
HATCH
  5
FD
330
17
100
AcDbEntity
  8
A-HATCH
 62
7
100
AcDbHatch
 10
0.0
 20
0.0
 30
0.0
210
0.0
220
0.0
230
1.0
  2
SOLID
 70
1
 71
0
 91
1
 92
3
 72
0
 73
1
 93
4
 10
263.45
 20
-43.15
 10
270.65
 20
-43.2
 10
270.65833313240176
 20
-42.000028934138676
 10
263.4583331324018
 20
-41.95002893413867
 97
0
 75
0
 76
1
 98
0
  0
LWPOLYLINE
  5
FE
330
17
100
AcDbEntity
  8
A-WALL
100
AcDbPolyline
 90
4
 70
1
 10
270.6
 20
-54.0
 10
270.65
 20
-43.2
 10
273.6
 20
-43.2
 10
273.55
 20
-54.0
  0
TEXT
  5
FF
330
17
100
AcDbEntity
  8
A-TEXT
100
AcDbText
 10
272.1
 20
48.6
 30
0.0
 40
0.35
  1
STUDIO
 11
272.1
 21
48.6
 31
0.0
100
AcDbText
  0
TEXT
  5
100
330
17
100
AcDbEntity
  8
A-TEXT
100
AcDbText
 10
272.1
 20
48.1
 30
0.0
 40
0.25
  1
31.9m2
 11
272.1
 21
48.1
 31
0.0
100
AcDbText
  0
LWPOLYLINE
  5
101
330
17
100
AcDbEntity
  8
A-BALC
100
AcDbPolyline
 90
4
 70
1
 10
270.65
 20
-43.2
 10
273.6
 20
-43.2
 10
273.6
 20
-42.0
 10
270.65
 20
-42.0
  0
HATCH
  5
102
330
17
100
AcDbEntity
  8
A-HATCH
 62
7
100
AcDbHatch
 10
0.0
 20
0.0
 30
0.0
210
0.0
220
0.0
230
1.0
  2
SOLID
 70
1
 71
0
 91
1
 92
3
 72
0
 73
1
 93
4
 10
270.65
 20
-43.2
 10
273.6
 20
-43.2
 10
273.6
 20
-42.0
 10
270.65
 20
-42.0
 97
0
 75
0
 76
1
 98
0
  0
LWPOLYLINE
  5
103
330
17
100
AcDbEntity
  8
A-WALL
100
AcDbPolyline
 90
4
 70
1
 10
258.75
 20
-54.15
 10
253.75
 20
-54.2
 10
253.8
 20
-56.7
 10
258.8
 20
-56.65
  0
TEXT
  5
104
330
17
100
AcDbEntity
  8
A-TEXT
100
AcDbText
 10
256.275
 20
55.425000000000004
 30
0.0
 40
0.35
  1
DUCT
 11
256.275
 21
55.425000000000004
 31
0.0
100
AcDbText
  0
TEXT
  5
105
330
17
100
AcDbEntity
  8
A-TEXT
100
AcDbText
 10
256.275
 20
54.925000000000004
 30
0.0
 40
0.25
  1
12.5m2
 11
256.275
 21
54.925000000000004
 31
0.0
100
AcDbText
  0
LWPOLYLINE
  5
106
330
17
100
AcDbEntity
  8
A-WALL
100
AcDbPolyline
 90
6
 70
1
 10
263.45
 20
-54.1
 10
263.55
 20
-64.9
 10
256.35
 20
-65.0
 10
256.25
 20
-56.7
 10
258.75
 20
-56.65
 10
258.75
 20
-54.15
  0
TEXT
  5
107
330
17
100
AcDbEntity
  8
A-TEXT
100
AcDbText
 10
259.51666666666665
 20
58.58333333333332
 30
0.0
 40
0.35
  1
1 BEDROOM
 11
259.51666666666665
 21
58.58333333333332
 31
0.0
100
AcDbText
  0
TEXT
  5
108
330
17
100
AcDbEntity
  8
A-TEXT
100
AcDbText
 10
259.51666666666665
 20
58.08333333333332
 30
0.0
 40
0.25
  1
71.7m2
 11
259.51666666666665
 21
58.08333333333332
 31
0.0
100
AcDbText
  0
LWPOLYLINE
  5
109
330
17
100
AcDbEntity
  8
A-BALC
100
AcDbPolyline
 90
4
 70
1
 10
263.55
 20
-64.9
 10
256.35
 20
-65.0
 10
256.36666505938894
 20
-66.19988427600147
 10
263.5666650593889
 20
-66.09988427600148
  0
HATCH
  5
10A
330
17
100
AcDbEntity
  8
A-HATCH
 62
7
100
AcDbHatch
 10
0.0
 20
0.0
 30
0.0
210
0.0
220
0.0
230
1.0
  2
SOLID
 70
1
 71
0
 91
1
 92
3
 72
0
 73
1
 93
4
 10
263.55
 20
-64.9
 10
256.35
 20
-65.0
 10
256.36666505938894
 20
-66.19988427600147
 10
263.5666650593889
 20
-66.09988427600148
 97
0
 75
0
 76
1
 98
0
  0
LWPOLYLINE
  5
10B
330
17
100
AcDbEntity
  8
A-WALL
100
AcDbPolyline
 90
4
 70
1
 10
251.55
 20
-54.25
 10
246.55
 20
-54.3
 10
246.6
 20
-56.8
 10
251.6
 20
-56.75
  0
TEXT
  5
10C
330
17
100
AcDbEntity
  8
A-TEXT
100
AcDbText
 10
249.07500000000002
 20
55.525
 30
0.0
 40
0.35
  1
DUCT
 11
249.07500000000002
 21
55.525
 31
0.0
100
AcDbText
  0
TEXT
  5
10D
330
17
100
AcDbEntity
  8
A-TEXT
100
AcDbText
 10
249.07500000000002
 20
55.025
 30
0.0
 40
0.25
  1
12.5m2
 11
249.07500000000002
 21
55.025
 31
0.0
100
AcDbText
  0
LWPOLYLINE
  5
10E
330
17
100
AcDbEntity
  8
A-WALL
100
AcDbPolyline
 90
8
 70
1
 10
253.75
 20
-54.2
 10
253.75
 20
-56.7
 10
256.25
 20
-56.7
 10
256.35
 20
-65.0
 10
249.15
 20
-65.05
 10
249.05
 20
-56.8
 10
251.55
 20
-56.75
 10
251.55
 20
-54.25
  0
TEXT
  5
10F
330
17
100
AcDbEntity
  8
A-TEXT
100
AcDbText
 10
252.67499999999998
 20
58.181250000000006
 30
0.0
 40
0.35
  1
1 BEDROOM
 11
252.67499999999998
 21
58.181250000000006
 31
0.0
100
AcDbText
  0
TEXT
  5
110
330
17
100
AcDbEntity
  8
A-TEXT
100
AcDbText
 10
252.67499999999998
 20
57.681250000000006
 30
0.0
 40
0.25
  1
65.2m2
 11
252.67499999999998
 21
57.681250000000006
 31
0.0
100
AcDbText
  0
LWPOLYLINE
  5
111
330
17
100
AcDbEntity
  8
A-BALC
100
AcDbPolyline
 90
4
 70
1
 10
256.35
 20
-65.0
 10
249.15
 20
-65.05
 10
249.15833313240182
 20
-66.24997106586133
 10
256.3583331324018
 20
-66.19997106586133
  0
HATCH
  5
112
330
17
100
AcDbEntity
  8
A-HATCH
 62
7
100
AcDbHatch
 10
0.0
 20
0.0
 30
0.0
210
0.0
220
0.0
230
1.0
  2
SOLID
 70
1
 71
0
 91
1
 92
3
 72
0
 73
1
 93
4
 10
256.35
 20
-65.0
 10
249.15
 20
-65.05
 10
249.15833313240182
 20
-66.24997106586133
 10
256.3583331324018
 20
-66.19997106586133
 97
0
 75
0
 76
1
 98
0
  0
LWPOLYLINE
  5
113
330
17
100
AcDbEntity
  8
A-WALL
100
AcDbPolyline
 90
6
 70
1
 10
246.55
 20
-54.3
 10
246.55
 20
-56.8
 10
249.05
 20
-56.8
 10
249.15
 20
-65.05
 10
238.35
 20
-65.2
 10
238.25
 20
-54.4
  0
TEXT
  5
114
330
17
100
AcDbEntity
  8
A-TEXT
100
AcDbText
 10
244.65
 20
58.758333333333326
 30
0.0
 40
0.35
  1
2 BEDROOM
 11
244.65
 21
58.758333333333326
 31
0.0
100
AcDbText
  0
TEXT
  5
115
330
17
100
AcDbEntity
  8
A-TEXT
100
AcDbText
 10
244.65
 20
58.258333333333326
 30
0.0
 40
0.25
  1
110.1m2
 11
244.65
 21
58.258333333333326
 31
0.0
100
AcDbText
  0
LWPOLYLINE
  5
116
330
17
100
AcDbEntity
  8
A-BALC
100
AcDbPolyline
 90
4
 70
1
 10
249.15
 20
-65.05
 10
238.35
 20
-65.2
 10
238.3666650593889
 20
-66.39988427600147
 10
249.16666505938892
 20
-66.24988427600147
  0
HATCH
  5
117
330
17
100
AcDbEntity
  8
A-HATCH
 62
7
100
AcDbHatch
 10
0.0
 20
0.0
 30
0.0
210
0.0
220
0.0
230
1.0
  2
SOLID
 70
1
 71
0
 91
1
 92
3
 72
0
 73
1
 93
4
 10
249.15
 20
-65.05
 10
238.35
 20
-65.2
 10
238.3666650593889
 20
-66.39988427600147
 10
249.16666505938892
 20
-66.24988427600147
 97
0
 75
0
 76
1
 98
0
  0
LWPOLYLINE
  5
118
330
17
100
AcDbEntity
  8
A-WALL
100
AcDbPolyline
 90
4
 70
1
 10
238.25
 20
-54.4
 10
238.35
 20
-65.2
 10
234.85
 20
-65.25
 10
234.75
 20
-54.45
  0
TEXT
  5
119
330
17
100
AcDbEntity
  8
A-TEXT
100
AcDbText
 10
236.55
 20
59.825
 30
0.0
 40
0.35
  1
STUDIO
 11
236.55
 21
59.825
 31
0.0
100
AcDbText
  0
TEXT
  5
11A
330
17
100
AcDbEntity
  8
A-TEXT
100
AcDbText
 10
236.55
 20
59.325
 30
0.0
 40
0.25
  1
37.8m2
 11
236.55
 21
59.325
 31
0.0
100
AcDbText
  0
LWPOLYLINE
  5
11B
330
17
100
AcDbEntity
  8
A-BALC
100
AcDbPolyline
 90
4
 70
1
 10
238.35
 20
-65.2
 10
234.85
 20
-65.25
 10
234.8671411081394
 20
-66.44987756975941
 10
238.3671411081394
 20
-66.39987756975941
  0
HATCH
  5
11C
330
17
100
AcDbEntity
  8
A-HATCH
 62
7
100
AcDbHatch
 10
0.0
 20
0.0
 30
0.0
210
0.0
220
0.0
230
1.0
  2
SOLID
 70
1
 71
0
 91
1
 92
3
 72
0
 73
1
 93
4
 10
238.35
 20
-65.2
 10
234.85
 20
-65.25
 10
234.8671411081394
 20
-66.44987756975941
 10
238.3671411081394
 20
-66.39987756975941
 97
0
 75
0
 76
1
 98
0
  0
LWPOLYLINE
  5
11D
330
17
100
AcDbEntity
  8
A-WALL
100
AcDbPolyline
 90
4
 70
1
 10
218.6
 20
-54.6
 10
213.6
 20
-54.65
 10
213.65
 20
-57.15
 10
218.65
 20
-57.1
  0
TEXT
  5
11E
330
17
100
AcDbEntity
  8
A-TEXT
100
AcDbText
 10
216.125
 20
55.875
 30
0.0
 40
0.35
  1
DUCT
 11
216.125
 21
55.875
 31
0.0
100
AcDbText
  0
TEXT
  5
11F
330
17
100
AcDbEntity
  8
A-TEXT
100
AcDbText
 10
216.125
 20
55.375
 30
0.0
 40
0.25
  1
12.5m2
 11
216.125
 21
55.375
 31
0.0
100
AcDbText
  0
LWPOLYLINE
  5
120
330
17
100
AcDbEntity
  8
A-WALL
100
AcDbPolyline
 90
6
 70
1
 10
230.5
 20
-54.5
 10
230.65
 20
-65.3
 10
216.25
 20
-65.45
 10
216.15
 20
-57.15
 10
218.65
 20
-57.1
 10
218.6
 20
-54.6
  0
TEXT
  5
121
330
17
100
AcDbEntity
  8
A-TEXT
100
AcDbText
 10
221.79999999999998
 20
59.01666666666667
 30
0.0
 40
0.35
  1
3 BEDROOM
 11
221.79999999999998
 21
59.01666666666667
 31
0.0
100
AcDbText
  0
TEXT
  5
122
330
17
100
AcDbEntity
  8
A-TEXT
100
AcDbText
 10
221.79999999999998
 20
58.51666666666667
 30
0.0
 40
0.25
  1
149.4m2
 11
221.79999999999998
 21
58.51666666666667
 31
0.0
100
AcDbText
  0
LWPOLYLINE
  5
123
330
17
100
AcDbEntity
  8
A-BALC
100
AcDbPolyline
 90
4
 70
1
 10
230.65
 20
-65.3
 10
216.25
 20
-65.45
 10
216.2624993218868
 20
-66.64993490113105
 10
230.6624993218868
 20
-66.49993490113104
  0
HATCH
  5
124
330
17
100
AcDbEntity
  8
A-HATCH
 62
7
100
AcDbHatch
 10
0.0
 20
0.0
 30
0.0
210
0.0
220
0.0
230
1.0
  2
SOLID
 70
1
 71
0
 91
1
 92
3
 72
0
 73
1
 93
4
 10
230.65
 20
-65.3
 10
216.25
 20
-65.45
 10
216.2624993218868
 20
-66.64993490113105
 10
230.6624993218868
 20
-66.49993490113104
 97
0
 75
0
 76
1
 98
0
  0
LWPOLYLINE
  5
125
330
17
100
AcDbEntity
  8
A-WALL
100
AcDbPolyline
 90
6
 70
1
 10
213.6
 20
-54.65
 10
213.65
 20
-57.15
 10
216.15
 20
-57.15
 10
216.25
 20
-65.45
 10
212.65
 20
-65.5
 10
212.5
 20
-54.7
  0
TEXT
  5
126
330
17
100
AcDbEntity
  8
A-TEXT
100
AcDbText
 10
214.13333333333333
 20
59.099999999999994
 30
0.0
 40
0.35
  1
STUDIO
 11
214.13333333333333
 21
59.099999999999994
 31
0.0
100
AcDbText
  0
TEXT
  5
127
330
17
100
AcDbEntity
  8
A-TEXT
100
AcDbText
 10
214.13333333333333
 20
58.599999999999994
 30
0.0
 40
0.25
  1
32.8m2
 11
214.13333333333333
 21
58.599999999999994
 31
0.0
100
AcDbText
  0
LWPOLYLINE
  5
128
330
17
100
AcDbEntity
  8
A-BALC
100
AcDbPolyline
 90
4
 70
1
 10
216.25
 20
-65.45
 10
212.65
 20
-65.5
 10
212.66666505938892
 20
-66.69988427600147
 10
216.2666650593889
 20
-66.64988427600147
  0
HATCH
  5
129
330
17
100
AcDbEntity
  8
A-HATCH
 62
7
100
AcDbHatch
 10
0.0
 20
0.0
 30
0.0
210
0.0
220
0.0
230
1.0
  2
SOLID
 70
1
 71
0
 91
1
 92
3
 72
0
 73
1
 93
4
 10
216.25
 20
-65.45
 10
212.65
 20
-65.5
 10
212.66666505938892
 20
-66.69988427600147
 10
216.2666650593889
 20
-66.64988427600147
 97
0
 75
0
 76
1
 98
0
  0
LWPOLYLINE
  5
12A
330
17
100
AcDbEntity
  8
A-WALL
100
AcDbPolyline
 90
4
 70
1
 10
212.5
 20
-54.7
 10
212.65
 20
-65.5
 10
209.05
 20
-65.5
 10
208.9
 20
-54.7
  0
TEXT
  5
12B
330
17
100
AcDbEntity
  8
A-TEXT
100
AcDbText
 10
210.775
 20
60.099999999999994
 30
0.0
 40
0.35
  1
STUDIO
 11
210.775
 21
60.099999999999994
 31
0.0
100
AcDbText
  0
TEXT
  5
12C
330
17
100
AcDbEntity
  8
A-TEXT
100
AcDbText
 10
210.775
 20
59.599999999999994
 30
0.0
 40
0.25
  1
38.9m2
 11
210.775
 21
59.599999999999994
 31
0.0
100
AcDbText
  0
LWPOLYLINE
  5
12D
330
17
100
AcDbEntity
  8
A-BALC
100
AcDbPolyline
 90
4
 70
1
 10
212.65
 20
-65.5
 10
209.05
 20
-65.5
 10
209.05
 20
-66.7
 10
212.65
 20
-66.7
  0
HATCH
  5
12E
330
17
100
AcDbEntity
  8
A-HATCH
 62
7
100
AcDbHatch
 10
0.0
 20
0.0
 30
0.0
210
0.0
220
0.0
230
1.0
  2
SOLID
 70
1
 71
0
 91
1
 92
3
 72
0
 73
1
 93
4
 10
212.65
 20
-65.5
 10
209.05
 20
-65.5
 10
209.05
 20
-66.7
 10
212.65
 20
-66.7
 97
0
 75
0
 76
1
 98
0
  0
LWPOLYLINE
  5
12F
330
17
100
AcDbEntity
  8
A-WALL
100
AcDbPolyline
 90
4
 70
1
 10
208.9
 20
-54.7
 10
209.05
 20
-65.5
 10
205.45
 20
-65.55
 10
205.3
 20
-54.75
  0
TEXT
  5
130
330
17
100
AcDbEntity
  8
A-TEXT
100
AcDbText
 10
207.175
 20
60.125
 30
0.0
 40
0.35
  1
STUDIO
 11
207.175
 21
60.125
 31
0.0
100
AcDbText
  0
TEXT
  5
131
330
17
100
AcDbEntity
  8
A-TEXT
100
AcDbText
 10
207.175
 20
59.625
 30
0.0
 40
0.25
  1
38.9m2
 11
207.175
 21
59.625
 31
0.0
100
AcDbText
  0
LWPOLYLINE
  5
132
330
17
100
AcDbEntity
  8
A-BALC
100
AcDbPolyline
 90
4
 70
1
 10
209.05
 20
-65.5
 10
205.45
 20
-65.55
 10
205.4666650593889
 20
-66.74988427600147
 10
209.06666505938892
 20
-66.69988427600147
  0
HATCH
  5
133
330
17
100
AcDbEntity
  8
A-HATCH
 62
7
100
AcDbHatch
 10
0.0
 20
0.0
 30
0.0
210
0.0
220
0.0
230
1.0
  2
SOLID
 70
1
 71
0
 91
1
 92
3
 72
0
 73
1
 93
4
 10
209.05
 20
-65.5
 10
205.45
 20
-65.55
 10
205.4666650593889
 20
-66.74988427600147
 10
209.06666505938892
 20
-66.69988427600147
 97
0
 75
0
 76
1
 98
0
  0
LWPOLYLINE
  5
134
330
17
100
AcDbEntity
  8
A-WALL
100
AcDbPolyline
 90
4
 70
1
 10
205.3
 20
-54.75
 10
205.45
 20
-65.55
 10
198.25
 20
-65.65
 10
198.1
 20
-54.85
  0
TEXT
  5
135
330
17
100
AcDbEntity
  8
A-TEXT
100
AcDbText
 10
201.775
 20
60.199999999999996
 30
0.0
 40
0.35
  1
1 BEDROOM
 11
201.775
 21
60.199999999999996
 31
0.0
100
AcDbText
  0
TEXT
  5
136
330
17
100
AcDbEntity
  8
A-TEXT
100
AcDbText
 10
201.775
 20
59.699999999999996
 30
0.0
 40
0.25
  1
77.8m2
 11
201.775
 21
59.699999999999996
 31
0.0
100
AcDbText
  0
LWPOLYLINE
  5
137
330
17
100
AcDbEntity
  8
A-BALC
100
AcDbPolyline
 90
4
 70
1
 10
205.45
 20
-65.55
 10
198.25
 20
-65.65
 10
198.2666650593889
 20
-66.84988427600148
 10
205.4666650593889
 20
-66.74988427600147
  0
HATCH
  5
138
330
17
100
AcDbEntity
  8
A-HATCH
 62
7
100
AcDbHatch
 10
0.0
 20
0.0
 30
0.0
210
0.0
220
0.0
230
1.0
  2
SOLID
 70
1
 71
0
 91
1
 92
3
 72
0
 73
1
 93
4
 10
205.45
 20
-65.55
 10
198.25
 20
-65.65
 10
198.2666650593889
 20
-66.84988427600148
 10
205.4666650593889
 20
-66.74988427600147
 97
0
 75
0
 76
1
 98
0
  0
LWPOLYLINE
  5
139
330
17
100
AcDbEntity
  8
A-WALL
100
AcDbPolyline
 90
4
 70
1
 10
198.1
 20
-54.85
 10
198.25
 20
-65.65
 10
193.65
 20
-65.7
 10
193.5
 20
-54.9
  0
TEXT
  5
13A
330
17
100
AcDbEntity
  8
A-TEXT
100
AcDbText
 10
195.875
 20
60.275
 30
0.0
 40
0.35
  1
STUDIO
 11
195.875
 21
60.275
 31
0.0
100
AcDbText
  0
TEXT
  5
13B
330
17
100
AcDbEntity
  8
A-TEXT
100
AcDbText
 10
195.875
 20
59.775
 30
0.0
 40
0.25
  1
49.7m2
 11
195.875
 21
59.775
 31
0.0
100
AcDbText
  0
LWPOLYLINE
  5
13C
330
17
100
AcDbEntity
  8
A-BALC
100
AcDbPolyline
 90
4
 70
1
 10
198.25
 20
-65.65
 10
193.65
 20
-65.7
 10
193.6630427078023
 20
-66.89992911781205
 10
198.2630427078023
 20
-66.84992911781205
  0
HATCH
  5
13D
330
17
100
AcDbEntity
  8
A-HATCH
 62
7
100
AcDbHatch
 10
0.0
 20
0.0
 30
0.0
210
0.0
220
0.0
230
1.0
  2
SOLID
 70
1
 71
0
 91
1
 92
3
 72
0
 73
1
 93
4
 10
198.25
 20
-65.65
 10
193.65
 20
-65.7
 10
193.6630427078023
 20
-66.89992911781205
 10
198.2630427078023
 20
-66.84992911781205
 97
0
 75
0
 76
1
 98
0
  0
LWPOLYLINE
  5
13E
330
17
100
AcDbEntity
  8
A-WALL
100
AcDbPolyline
 90
4
 70
1
 10
193.5
 20
-42.75
 10
182.7
 20
-42.75
 10
182.7
 20
-35.3
 10
193.5
 20
-35.3
  0
TEXT
  5
13F
330
17
100
AcDbEntity
  8
A-TEXT
100
AcDbText
 10
188.1
 20
39.025
 30
0.0
 40
0.35
  1
1 BEDROOM
 11
188.1
 21
39.025
 31
0.0
100
AcDbText
  0
TEXT
  5
140
330
17
100
AcDbEntity
  8
A-TEXT
100
AcDbText
 10
188.1
 20
38.525
 30
0.0
 40
0.25
  1
80.5m2
 11
188.1
 21
38.525
 31
0.0
100
AcDbText
  0
LWPOLYLINE
  5
141
330
17
100
AcDbEntity
  8
A-BALC
100
AcDbPolyline
 90
4
 70
1
 10
182.7
 20
-42.75
 10
182.7
 20
-35.3
 10
181.5
 20
-35.3
 10
181.5
 20
-42.75
  0
HATCH
  5
142
330
17
100
AcDbEntity
  8
A-HATCH
 62
7
100
AcDbHatch
 10
0.0
 20
0.0
 30
0.0
210
0.0
220
0.0
230
1.0
  2
SOLID
 70
1
 71
0
 91
1
 92
3
 72
0
 73
1
 93
4
 10
182.7
 20
-42.75
 10
182.7
 20
-35.3
 10
181.5
 20
-35.3
 10
181.5
 20
-42.75
 97
0
 75
0
 76
1
 98
0
  0
LWPOLYLINE
  5
143
330
17
100
AcDbEntity
  8
A-WALL
100
AcDbPolyline
 90
4
 70
1
 10
193.5
 20
-26.4
 10
193.5
 20
-21.4
 10
191.0
 20
-21.4
 10
191.0
 20
-26.4
  0
TEXT
  5
144
330
17
100
AcDbEntity
  8
A-TEXT
100
AcDbText
 10
192.25
 20
23.9
 30
0.0
 40
0.35
  1
DUCT
 11
192.25
 21
23.9
 31
0.0
100
AcDbText
  0
TEXT
  5
145
330
17
100
AcDbEntity
  8
A-TEXT
100
AcDbText
 10
192.25
 20
23.4
 30
0.0
 40
0.25
  1
12.5m2
 11
192.25
 21
23.4
 31
0.0
100
AcDbText
  0
LWPOLYLINE
  5
146
330
17
100
AcDbEntity
  8
A-WALL
100
AcDbPolyline
 90
6
 70
1
 10
193.5
 20
-31.1
 10
182.7
 20
-31.1
 10
182.7
 20
-23.9
 10
191.0
 20
-23.9
 10
191.0
 20
-26.4
 10
193.5
 20
-26.4
  0
TEXT
  5
147
330
17
100
AcDbEntity
  8
A-TEXT
100
AcDbText
 10
189.0666666666667
 20
27.133333333333336
 30
0.0
 40
0.35
  1
1 BEDROOM
 11
189.0666666666667
 21
27.133333333333336
 31
0.0
100
AcDbText
  0
TEXT
  5
148
330
17
100
AcDbEntity
  8
A-TEXT
100
AcDbText
 10
189.0666666666667
 20
26.633333333333336
 30
0.0
 40
0.25
  1
71.5m2
 11
189.0666666666667
 21
26.633333333333336
 31
0.0
100
AcDbText
  0
LWPOLYLINE
  5
149
330
17
100
AcDbEntity
  8
A-BALC
100
AcDbPolyline
 90
4
 70
1
 10
182.7
 20
-31.1
 10
182.7
 20
-23.9
 10
181.5
 20
-23.9
 10
181.5
 20
-31.1
  0
HATCH
  5
14A
330
17
100
AcDbEntity
  8
A-HATCH
 62
7
100
AcDbHatch
 10
0.0
 20
0.0
 30
0.0
210
0.0
220
0.0
230
1.0
  2
SOLID
 70
1
 71
0
 91
1
 92
3
 72
0
 73
1
 93
4
 10
182.7
 20
-31.1
 10
182.7
 20
-23.9
 10
181.5
 20
-23.9
 10
181.5
 20
-31.1
 97
0
 75
0
 76
1
 98
0
  0
LWPOLYLINE
  5
14B
330
17
100
AcDbEntity
  8
A-WALL
100
AcDbPolyline
 90
4
 70
1
 10
193.5
 20
-19.2
 10
193.5
 20
-14.2
 10
191.0
 20
-14.2
 10
191.0
 20
-19.2
  0
TEXT
  5
14C
330
17
100
AcDbEntity
  8
A-TEXT
100
AcDbText
 10
192.25
 20
16.7
 30
0.0
 40
0.35
  1
DUCT
 11
192.25
 21
16.7
 31
0.0
100
AcDbText
  0
TEXT
  5
14D
330
17
100
AcDbEntity
  8
A-TEXT
100
AcDbText
 10
192.25
 20
16.2
 30
0.0
 40
0.25
  1
12.5m2
 11
192.25
 21
16.2
 31
0.0
100
AcDbText
  0
LWPOLYLINE
  5
14E
330
17
100
AcDbEntity
  8
A-WALL
100
AcDbPolyline
 90
8
 70
1
 10
193.5
 20
-21.4
 10
191.0
 20
-21.4
 10
191.0
 20
-23.9
 10
182.7
 20
-23.9
 10
182.7
 20
-16.7
 10
191.0
 20
-16.7
 10
191.0
 20
-19.2
 10
193.5
 20
-19.2
  0
TEXT
  5
14F
330
17
100
AcDbEntity
  8
A-TEXT
100
AcDbText
 10
189.55
 20
20.299999999999997
 30
0.0
 40
0.35
  1
1 BEDROOM
 11
189.55
 21
20.299999999999997
 31
0.0
100
AcDbText
  0
TEXT
  5
150
330
17
100
AcDbEntity
  8
A-TEXT
100
AcDbText
 10
189.55
 20
19.799999999999997
 30
0.0
 40
0.25
  1
65.3m2
 11
189.55
 21
19.799999999999997
 31
0.0
100
AcDbText
  0
LWPOLYLINE
  5
151
330
17
100
AcDbEntity
  8
A-BALC
100
AcDbPolyline
 90
4
 70
1
 10
182.7
 20
-23.9
 10
182.7
 20
-16.7
 10
181.5
 20
-16.7
 10
181.5
 20
-23.9
  0
HATCH
  5
152
330
17
100
AcDbEntity
  8
A-HATCH
 62
7
100
AcDbHatch
 10
0.0
 20
0.0
 30
0.0
210
0.0
220
0.0
230
1.0
  2
SOLID
 70
1
 71
0
 91
1
 92
3
 72
0
 73
1
 93
4
 10
182.7
 20
-23.9
 10
182.7
 20
-16.7
 10
181.5
 20
-16.7
 10
181.5
 20
-23.9
 97
0
 75
0
 76
1
 98
0
  0
LWPOLYLINE
  5
153
330
17
100
AcDbEntity
  8
A-WALL
100
AcDbPolyline
 90
6
 70
1
 10
193.5
 20
-14.2
 10
191.0
 20
-14.2
 10
191.0
 20
-16.7
 10
182.7
 20
-16.7
 10
182.7
 20
-10.8
 10
193.5
 20
-10.8
  0
TEXT
  5
154
330
17
100
AcDbEntity
  8
A-TEXT
100
AcDbText
 10
189.0666666666667
 20
13.899999999999999
 30
0.0
 40
0.35
  1
1 BEDROOM
 11
189.0666666666667
 21
13.899999999999999
 31
0.0
100
AcDbText
  0
TEXT
  5
155
330
17
100
AcDbEntity
  8
A-TEXT
100
AcDbText
 10
189.0666666666667
 20
13.399999999999999
 30
0.0
 40
0.25
  1
57.5m2
 11
189.0666666666667
 21
13.399999999999999
 31
0.0
100
AcDbText
  0
LWPOLYLINE
  5
156
330
17
100
AcDbEntity
  8
A-BALC
100
AcDbPolyline
 90
4
 70
1
 10
182.7
 20
-16.7
 10
182.7
 20
-10.8
 10
181.5
 20
-10.8
 10
181.5
 20
-16.7
  0
HATCH
  5
157
330
17
100
AcDbEntity
  8
A-HATCH
 62
7
100
AcDbHatch
 10
0.0
 20
0.0
 30
0.0
210
0.0
220
0.0
230
1.0
  2
SOLID
 70
1
 71
0
 91
1
 92
3
 72
0
 73
1
 93
4
 10
182.7
 20
-16.7
 10
182.7
 20
-10.8
 10
181.5
 20
-10.8
 10
181.5
 20
-16.7
 97
0
 75
0
 76
1
 98
0
  0
LWPOLYLINE
  5
158
330
17
100
AcDbEntity
  8
A-WALL
100
AcDbPolyline
 90
4
 70
1
 10
80.3
 20
-54.85
 10
85.3
 20
-54.85
 10
85.3
 20
-57.35
 10
80.3
 20
-57.35
  0
TEXT
  5
159
330
17
100
AcDbEntity
  8
A-TEXT
100
AcDbText
 10
82.8
 20
56.1
 30
0.0
 40
0.35
  1
DUCT
 11
82.8
 21
56.1
 31
0.0
100
AcDbText
  0
TEXT
  5
15A
330
17
100
AcDbEntity
  8
A-TEXT
100
AcDbText
 10
82.8
 20
55.6
 30
0.0
 40
0.25
  1
12.5m2
 11
82.8
 21
55.6
 31
0.0
100
AcDbText
  0
LWPOLYLINE
  5
15B
330
17
100
AcDbEntity
  8
A-WALL
100
AcDbPolyline
 90
6
 70
1
 10
72.0
 20
-54.9
 10
72.05
 20
-65.7
 10
82.85
 20
-65.65
 10
82.8
 20
-57.35
 10
80.3
 20
-57.35
 10
80.3
 20
-54.85
  0
TEXT
  5
15C
330
17
100
AcDbEntity
  8
A-TEXT
100
AcDbText
 10
78.38333333333334
 20
59.300000000000004
 30
0.0
 40
0.35
  1
2 BEDROOM
 11
78.38333333333334
 21
59.300000000000004
 31
0.0
100
AcDbText
  0
TEXT
  5
15D
330
17
100
AcDbEntity
  8
A-TEXT
100
AcDbText
 10
78.38333333333334
 20
58.800000000000004
 30
0.0
 40
0.25
  1
110.4m2
 11
78.38333333333334
 21
58.800000000000004
 31
0.0
100
AcDbText
  0
LWPOLYLINE
  5
15E
330
17
100
AcDbEntity
  8
A-BALC
100
AcDbPolyline
 90
4
 70
1
 10
72.05
 20
-65.7
 10
82.85
 20
-65.65
 10
82.8555554960191
 20
-66.84998714012443
 10
72.0555554960191
 20
-66.89998714012442
  0
HATCH
  5
15F
330
17
100
AcDbEntity
  8
A-HATCH
 62
7
100
AcDbHatch
 10
0.0
 20
0.0
 30
0.0
210
0.0
220
0.0
230
1.0
  2
SOLID
 70
1
 71
0
 91
1
 92
3
 72
0
 73
1
 93
4
 10
72.05
 20
-65.7
 10
82.85
 20
-65.65
 10
82.8555554960191
 20
-66.84998714012443
 10
72.0555554960191
 20
-66.89998714012442
 97
0
 75
0
 76
1
 98
0
  0
LWPOLYLINE
  5
160
330
17
100
AcDbEntity
  8
A-WALL
100
AcDbPolyline
 90
4
 70
1
 10
91.1
 20
-54.8
 10
96.1
 20
-54.8
 10
96.1
 20
-57.3
 10
91.1
 20
-57.3
  0
TEXT
  5
161
330
17
100
AcDbEntity
  8
A-TEXT
100
AcDbText
 10
93.6
 20
56.05
 30
0.0
 40
0.35
  1
DUCT
 11
93.6
 21
56.05
 31
0.0
100
AcDbText
  0
TEXT
  5
162
330
17
100
AcDbEntity
  8
A-TEXT
100
AcDbText
 10
93.6
 20
55.55
 30
0.0
 40
0.25
  1
12.5m2
 11
93.6
 21
55.55
 31
0.0
100
AcDbText
  0
LWPOLYLINE
  5
163
330
17
100
AcDbEntity
  8
A-WALL
100
AcDbPolyline
 90
8
 70
1
 10
85.3
 20
-54.85
 10
85.3
 20
-57.35
 10
82.8
 20
-57.35
 10
82.85
 20
-65.65
 10
93.65
 20
-65.6
 10
93.6
 20
-57.3
 10
91.1
 20
-57.3
 10
91.1
 20
-54.8
  0
TEXT
  5
164
330
17
100
AcDbEntity
  8
A-TEXT
100
AcDbText
 10
88.2125
 20
58.775000000000006
 30
0.0
 40
0.35
  1
2 BEDROOM
 11
88.2125
 21
58.775000000000006
 31
0.0
100
AcDbText
  0
TEXT
  5
165
330
17
100
AcDbEntity
  8
A-TEXT
100
AcDbText
 10
88.2125
 20
58.275000000000006
 30
0.0
 40
0.25
  1
104.1m2
 11
88.2125
 21
58.275000000000006
 31
0.0
100
AcDbText
  0
LWPOLYLINE
  5
166
330
17
100
AcDbEntity
  8
A-BALC
100
AcDbPolyline
 90
4
 70
1
 10
82.85
 20
-65.65
 10
93.65
 20
-65.6
 10
93.6555554960191
 20
-66.79998714012441
 10
82.8555554960191
 20
-66.84998714012443
  0
HATCH
  5
167
330
17
100
AcDbEntity
  8
A-HATCH
 62
7
100
AcDbHatch
 10
0.0
 20
0.0
 30
0.0
210
0.0
220
0.0
230
1.0
  2
SOLID
 70
1
 71
0
 91
1
 92
3
 72
0
 73
1
 93
4
 10
82.85
 20
-65.65
 10
93.65
 20
-65.6
 10
93.6555554960191
 20
-66.79998714012441
 10
82.8555554960191
 20
-66.84998714012443
 97
0
 75
0
 76
1
 98
0
  0
LWPOLYLINE
  5
168
330
17
100
AcDbEntity
  8
A-WALL
100
AcDbPolyline
 90
4
 70
1
 10
105.5
 20
-54.75
 10
110.5
 20
-54.75
 10
110.5
 20
-57.25
 10
105.5
 20
-57.25
  0
TEXT
  5
169
330
17
100
AcDbEntity
  8
A-TEXT
100
AcDbText
 10
108.0
 20
56.0
 30
0.0
 40
0.35
  1
DUCT
 11
108.0
 21
56.0
 31
0.0
100
AcDbText
  0
TEXT
  5
16A
330
17
100
AcDbEntity
  8
A-TEXT
100
AcDbText
 10
108.0
 20
55.5
 30
0.0
 40
0.25
  1
12.5m2
 11
108.0
 21
55.5
 31
0.0
100
AcDbText
  0
LWPOLYLINE
  5
16B
330
17
100
AcDbEntity
  8
A-WALL
100
AcDbPolyline
 90
8
 70
1
 10
96.1
 20
-54.8
 10
96.1
 20
-57.3
 10
93.6
 20
-57.3
 10
93.65
 20
-65.6
 10
108.05
 20
-65.55
 10
108.0
 20
-57.25
 10
105.5
 20
-57.25
 10
105.5
 20
-54.75
  0
TEXT
  5
16C
330
17
100
AcDbEntity
  8
A-TEXT
100
AcDbText
 10
100.8125
 20
58.724999999999994
 30
0.0
 40
0.35
  1
3 BEDROOM
 11
100.8125
 21
58.724999999999994
 31
0.0
100
AcDbText
  0
TEXT
  5
16D
330
17
100
AcDbEntity
  8
A-TEXT
100
AcDbText
 10
100.8125
 20
58.224999999999994
 30
0.0
 40
0.25
  1
143m2
 11
100.8125
 21
58.224999999999994
 31
0.0
100
AcDbText
  0
LWPOLYLINE
  5
16E
330
17
100
AcDbEntity
  8
A-BALC
100
AcDbPolyline
 90
4
 70
1
 10
93.65
 20
-65.6
 10
108.05
 20
-65.55
 10
108.05416664154954
 20
-66.74999276626912
 10
93.65416664154955
 20
-66.79999276626911
  0
HATCH
  5
16F
330
17
100
AcDbEntity
  8
A-HATCH
 62
7
100
AcDbHatch
 10
0.0
 20
0.0
 30
0.0
210
0.0
220
0.0
230
1.0
  2
SOLID
 70
1
 71
0
 91
1
 92
3
 72
0
 73
1
 93
4
 10
93.65
 20
-65.6
 10
108.05
 20
-65.55
 10
108.05416664154954
 20
-66.74999276626912
 10
93.65416664154955
 20
-66.79999276626911
 97
0
 75
0
 76
1
 98
0
  0
LWPOLYLINE
  5
170
330
17
100
AcDbEntity
  8
A-WALL
100
AcDbPolyline
 90
6
 70
1
 10
110.5
 20
-54.75
 10
110.5
 20
-57.25
 10
108.0
 20
-57.25
 10
108.05
 20
-65.55
 10
111.65
 20
-65.5
 10
111.6
 20
-54.7
  0
TEXT
  5
171
330
17
100
AcDbEntity
  8
A-TEXT
100
AcDbText
 10
110.05000000000001
 20
59.166666666666664
 30
0.0
 40
0.35
  1
STUDIO
 11
110.05000000000001
 21
59.166666666666664
 31
0.0
100
AcDbText
  0
TEXT
  5
172
330
17
100
AcDbEntity
  8
A-TEXT
100
AcDbText
 10
110.05000000000001
 20
58.666666666666664
 30
0.0
 40
0.25
  1
32.6m2
 11
110.05000000000001
 21
58.666666666666664
 31
0.0
100
AcDbText
  0
LWPOLYLINE
  5
173
330
17
100
AcDbEntity
  8
A-BALC
100
AcDbPolyline
 90
4
 70
1
 10
108.05
 20
-65.55
 10
111.65
 20
-65.5
 10
111.66666505938892
 20
-66.69988427600147
 10
108.06666505938891
 20
-66.74988427600147
  0
HATCH
  5
174
330
17
100
AcDbEntity
  8
A-HATCH
 62
7
100
AcDbHatch
 10
0.0
 20
0.0
 30
0.0
210
0.0
220
0.0
230
1.0
  2
SOLID
 70
1
 71
0
 91
1
 92
3
 72
0
 73
1
 93
4
 10
108.05
 20
-65.55
 10
111.65
 20
-65.5
 10
111.66666505938892
 20
-66.69988427600147
 10
108.06666505938891
 20
-66.74988427600147
 97
0
 75
0
 76
1
 98
0
  0
LWPOLYLINE
  5
175
330
17
100
AcDbEntity
  8
A-WALL
100
AcDbPolyline
 90
4
 70
1
 10
111.6
 20
-54.7
 10
111.65
 20
-65.5
 10
115.25
 20
-65.5
 10
115.2
 20
-54.7
  0
TEXT
  5
176
330
17
100
AcDbEntity
  8
A-TEXT
100
AcDbText
 10
113.425
 20
60.099999999999994
 30
0.0
 40
0.35
  1
STUDIO
 11
113.425
 21
60.099999999999994
 31
0.0
100
AcDbText
  0
TEXT
  5
177
330
17
100
AcDbEntity
  8
A-TEXT
100
AcDbText
 10
113.425
 20
59.599999999999994
 30
0.0
 40
0.25
  1
38.9m2
 11
113.425
 21
59.599999999999994
 31
0.0
100
AcDbText
  0
LWPOLYLINE
  5
178
330
17
100
AcDbEntity
  8
A-BALC
100
AcDbPolyline
 90
4
 70
1
 10
111.65
 20
-65.5
 10
115.25
 20
-65.5
 10
115.25
 20
-66.7
 10
111.65
 20
-66.7
  0
HATCH
  5
179
330
17
100
AcDbEntity
  8
A-HATCH
 62
7
100
AcDbHatch
 10
0.0
 20
0.0
 30
0.0
210
0.0
220
0.0
230
1.0
  2
SOLID
 70
1
 71
0
 91
1
 92
3
 72
0
 73
1
 93
4
 10
111.65
 20
-65.5
 10
115.25
 20
-65.5
 10
115.25
 20
-66.7
 10
111.65
 20
-66.7
 97
0
 75
0
 76
1
 98
0
  0
LWPOLYLINE
  5
17A
330
17
100
AcDbEntity
  8
A-WALL
100
AcDbPolyline
 90
4
 70
1
 10
115.2
 20
-54.7
 10
115.25
 20
-65.5
 10
118.85
 20
-65.5
 10
118.8
 20
-54.7
  0
TEXT
  5
17B
330
17
100
AcDbEntity
  8
A-TEXT
100
AcDbText
 10
117.02499999999999
 20
60.099999999999994
 30
0.0
 40
0.35
  1
STUDIO
 11
117.02499999999999
 21
60.099999999999994
 31
0.0
100
AcDbText
  0
TEXT
  5
17C
330
17
100
AcDbEntity
  8
A-TEXT
100
AcDbText
 10
117.02499999999999
 20
59.599999999999994
 30
0.0
 40
0.25
  1
38.9m2
 11
117.02499999999999
 21
59.599999999999994
 31
0.0
100
AcDbText
  0
LWPOLYLINE
  5
17D
330
17
100
AcDbEntity
  8
A-BALC
100
AcDbPolyline
 90
4
 70
1
 10
115.25
 20
-65.5
 10
118.85
 20
-65.5
 10
118.85
 20
-66.7
 10
115.25
 20
-66.7
  0
HATCH
  5
17E
330
17
100
AcDbEntity
  8
A-HATCH
 62
7
100
AcDbHatch
 10
0.0
 20
0.0
 30
0.0
210
0.0
220
0.0
230
1.0
  2
SOLID
 70
1
 71
0
 91
1
 92
3
 72
0
 73
1
 93
4
 10
115.25
 20
-65.5
 10
118.85
 20
-65.5
 10
118.85
 20
-66.7
 10
115.25
 20
-66.7
 97
0
 75
0
 76
1
 98
0
  0
LWPOLYLINE
  5
17F
330
17
100
AcDbEntity
  8
A-WALL
100
AcDbPolyline
 90
4
 70
1
 10
123.5
 20
-54.65
 10
128.5
 20
-54.65
 10
128.5
 20
-57.15
 10
123.5
 20
-57.15
  0
TEXT
  5
180
330
17
100
AcDbEntity
  8
A-TEXT
100
AcDbText
 10
126.0
 20
55.9
 30
0.0
 40
0.35
  1
DUCT
 11
126.0
 21
55.9
 31
0.0
100
AcDbText
  0
TEXT
  5
181
330
17
100
AcDbEntity
  8
A-TEXT
100
AcDbText
 10
126.0
 20
55.4
 30
0.0
 40
0.25
  1
12.5m2
 11
126.0
 21
55.4
 31
0.0
100
AcDbText
  0
LWPOLYLINE
  5
182
330
17
100
AcDbEntity
  8
A-WALL
100
AcDbPolyline
 90
6
 70
1
 10
118.8
 20
-54.7
 10
118.85
 20
-65.5
 10
126.05
 20
-65.45
 10
126.0
 20
-57.15
 10
123.5
 20
-57.15
 10
123.5
 20
-54.65
  0
TEXT
  5
183
330
17
100
AcDbEntity
  8
A-TEXT
100
AcDbText
 10
122.78333333333335
 20
59.099999999999994
 30
0.0
 40
0.35
  1
1 BEDROOM
 11
122.78333333333335
 21
59.099999999999994
 31
0.0
100
AcDbText
  0
TEXT
  5
184
330
17
100
AcDbEntity
  8
A-TEXT
100
AcDbText
 10
122.78333333333335
 20
58.599999999999994
 30
0.0
 40
0.25
  1
71.5m2
 11
122.78333333333335
 21
58.599999999999994
 31
0.0
100
AcDbText
  0
LWPOLYLINE
  5
185
330
17
100
AcDbEntity
  8
A-BALC
100
AcDbPolyline
 90
4
 70
1
 10
118.85
 20
-65.5
 10
126.05
 20
-65.45
 10
126.05833313240181
 20
-66.64997106586134
 10
118.85833313240181
 20
-66.69997106586133
  0
HATCH
  5
186
330
17
100
AcDbEntity
  8
A-HATCH
 62
7
100
AcDbHatch
 10
0.0
 20
0.0
 30
0.0
210
0.0
220
0.0
230
1.0
  2
SOLID
 70
1
 71
0
 91
1
 92
3
 72
0
 73
1
 93
4
 10
118.85
 20
-65.5
 10
126.05
 20
-65.45
 10
126.05833313240181
 20
-66.64997106586134
 10
118.85833313240181
 20
-66.69997106586133
 97
0
 75
0
 76
1
 98
0
  0
LWPOLYLINE
  5
187
330
17
100
AcDbEntity
  8
A-WALL
100
AcDbPolyline
 90
4
 70
1
 10
130.7
 20
-54.65
 10
135.7
 20
-54.6
 10
135.7
 20
-57.1
 10
130.7
 20
-57.15
  0
TEXT
  5
188
330
17
100
AcDbEntity
  8
A-TEXT
100
AcDbText
 10
133.2
 20
55.875
 30
0.0
 40
0.35
  1
DUCT
 11
133.2
 21
55.875
 31
0.0
100
AcDbText
  0
TEXT
  5
189
330
17
100
AcDbEntity
  8
A-TEXT
100
AcDbText
 10
133.2
 20
55.375
 30
0.0
 40
0.25
  1
12.5m2
 11
133.2
 21
55.375
 31
0.0
100
AcDbText
  0
LWPOLYLINE
  5
18A
330
17
100
AcDbEntity
  8
A-WALL
100
AcDbPolyline
 90
8
 70
1
 10
128.5
 20
-54.65
 10
128.5
 20
-57.15
 10
126.0
 20
-57.15
 10
126.05
 20
-65.45
 10
133.25
 20
-65.4
 10
133.2
 20
-57.1
 10
130.7
 20
-57.15
 10
130.7
 20
-54.65
  0
TEXT
  5
18B
330
17
100
AcDbEntity
  8
A-TEXT
100
AcDbText
 10
129.6125
 20
58.58749999999999
 30
0.0
 40
0.35
  1
1 BEDROOM
 11
129.6125
 21
58.58749999999999
 31
0.0
100
AcDbText
  0
TEXT
  5
18C
330
17
100
AcDbEntity
  8
A-TEXT
100
AcDbText
 10
129.6125
 20
58.08749999999999
 30
0.0
 40
0.25
  1
65.1m2
 11
129.6125
 21
58.08749999999999
 31
0.0
100
AcDbText
  0
LWPOLYLINE
  5
18D
330
17
100
AcDbEntity
  8
A-BALC
100
AcDbPolyline
 90
4
 70
1
 10
126.05
 20
-65.45
 10
133.25
 20
-65.4
 10
133.25833313240182
 20
-66.59997106586134
 10
126.05833313240181
 20
-66.64997106586134
  0
HATCH
  5
18E
330
17
100
AcDbEntity
  8
A-HATCH
 62
7
100
AcDbHatch
 10
0.0
 20
0.0
 30
0.0
210
0.0
220
0.0
230
1.0
  2
SOLID
 70
1
 71
0
 91
1
 92
3
 72
0
 73
1
 93
4
 10
126.05
 20
-65.45
 10
133.25
 20
-65.4
 10
133.25833313240182
 20
-66.59997106586134
 10
126.05833313240181
 20
-66.64997106586134
 97
0
 75
0
 76
1
 98
0
  0
LWPOLYLINE
  5
18F
330
17
100
AcDbEntity
  8
A-WALL
100
AcDbPolyline
 90
4
 70
1
 10
137.9
 20
-54.6
 10
142.9
 20
-54.6
 10
142.9
 20
-57.1
 10
137.9
 20
-57.1
  0
TEXT
  5
190
330
17
100
AcDbEntity
  8
A-TEXT
100
AcDbText
 10
140.4
 20
55.85
 30
0.0
 40
0.35
  1
DUCT
 11
140.4
 21
55.85
 31
0.0
100
AcDbText
  0
TEXT
  5
191
330
17
100
AcDbEntity
  8
A-TEXT
100
AcDbText
 10
140.4
 20
55.35
 30
0.0
 40
0.25
  1
12.5m2
 11
140.4
 21
55.35
 31
0.0
100
AcDbText
  0
LWPOLYLINE
  5
192
330
17
100
AcDbEntity
  8
A-WALL
100
AcDbPolyline
 90
8
 70
1
 10
135.7
 20
-54.6
 10
135.7
 20
-57.1
 10
133.2
 20
-57.1
 10
133.25
 20
-65.4
 10
140.45
 20
-65.4
 10
140.4
 20
-57.1
 10
137.9
 20
-57.1
 10
137.9
 20
-54.6
  0
TEXT
  5
193
330
17
100
AcDbEntity
  8
A-TEXT
100
AcDbText
 10
136.8125
 20
58.55000000000001
 30
0.0
 40
0.35
  1
1 BEDROOM
 11
136.8125
 21
58.55000000000001
 31
0.0
100
AcDbText
  0
TEXT
  5
194
330
17
100
AcDbEntity
  8
A-TEXT
100
AcDbText
 10
136.8125
 20
58.05000000000001
 30
0.0
 40
0.25
  1
65.3m2
 11
136.8125
 21
58.05000000000001
 31
0.0
100
AcDbText
  0
LWPOLYLINE
  5
195
330
17
100
AcDbEntity
  8
A-BALC
100
AcDbPolyline
 90
4
 70
1
 10
133.25
 20
-65.4
 10
140.45
 20
-65.4
 10
140.45
 20
-66.60000000000001
 10
133.25
 20
-66.60000000000001
  0
HATCH
  5
196
330
17
100
AcDbEntity
  8
A-HATCH
 62
7
100
AcDbHatch
 10
0.0
 20
0.0
 30
0.0
210
0.0
220
0.0
230
1.0
  2
SOLID
 70
1
 71
0
 91
1
 92
3
 72
0
 73
1
 93
4
 10
133.25
 20
-65.4
 10
140.45
 20
-65.4
 10
140.45
 20
-66.60000000000001
 10
133.25
 20
-66.60000000000001
 97
0
 75
0
 76
1
 98
0
  0
LWPOLYLINE
  5
197
330
17
100
AcDbEntity
  8
A-WALL
100
AcDbPolyline
 90
4
 70
1
 10
145.1
 20
-54.55
 10
150.1
 20
-54.55
 10
150.1
 20
-57.05
 10
145.1
 20
-57.05
  0
TEXT
  5
198
330
17
100
AcDbEntity
  8
A-TEXT
100
AcDbText
 10
147.6
 20
55.8
 30
0.0
 40
0.35
  1
DUCT
 11
147.6
 21
55.8
 31
0.0
100
AcDbText
  0
TEXT
  5
199
330
17
100
AcDbEntity
  8
A-TEXT
100
AcDbText
 10
147.6
 20
55.3
 30
0.0
 40
0.25
  1
12.5m2
 11
147.6
 21
55.3
 31
0.0
100
AcDbText
  0
LWPOLYLINE
  5
19A
330
17
100
AcDbEntity
  8
A-WALL
100
AcDbPolyline
 90
8
 70
1
 10
142.9
 20
-54.6
 10
142.9
 20
-57.1
 10
140.4
 20
-57.1
 10
140.45
 20
-65.4
 10
147.65
 20
-65.35
 10
147.6
 20
-57.05
 10
145.1
 20
-57.05
 10
145.1
 20
-54.55
  0
TEXT
  5
19B
330
17
100
AcDbEntity
  8
A-TEXT
100
AcDbText
 10
144.01250000000002
 20
58.525000000000006
 30
0.0
 40
0.35
  1
1 BEDROOM
 11
144.01250000000002
 21
58.525000000000006
 31
0.0
100
AcDbText
  0
TEXT
  5
19C
330
17
100
AcDbEntity
  8
A-TEXT
100
AcDbText
 10
144.01250000000002
 20
58.025000000000006
 30
0.0
 40
0.25
  1
65.3m2
 11
144.01250000000002
 21
58.025000000000006
 31
0.0
100
AcDbText
  0
LWPOLYLINE
  5
19D
330
17
100
AcDbEntity
  8
A-BALC
100
AcDbPolyline
 90
4
 70
1
 10
140.45
 20
-65.4
 10
147.65
 20
-65.35
 10
147.65833313240182
 20
-66.54997106586133
 10
140.4583331324018
 20
-66.59997106586134
  0
HATCH
  5
19E
330
17
100
AcDbEntity
  8
A-HATCH
 62
7
100
AcDbHatch
 10
0.0
 20
0.0
 30
0.0
210
0.0
220
0.0
230
1.0
  2
SOLID
 70
1
 71
0
 91
1
 92
3
 72
0
 73
1
 93
4
 10
140.45
 20
-65.4
 10
147.65
 20
-65.35
 10
147.65833313240182
 20
-66.54997106586133
 10
140.4583331324018
 20
-66.59997106586134
 97
0
 75
0
 76
1
 98
0
  0
LWPOLYLINE
  5
19F
330
17
100
AcDbEntity
  8
A-WALL
100
AcDbPolyline
 90
4
 70
1
 10
152.3
 20
-54.55
 10
157.3
 20
-54.5
 10
157.3
 20
-57.0
 10
152.3
 20
-57.05
  0
TEXT
  5
1A0
330
17
100
AcDbEntity
  8
A-TEXT
100
AcDbText
 10
154.8
 20
55.775000000000006
 30
0.0
 40
0.35
  1
DUCT
 11
154.8
 21
55.775000000000006
 31
0.0
100
AcDbText
  0
TEXT
  5
1A1
330
17
100
AcDbEntity
  8
A-TEXT
100
AcDbText
 10
154.8
 20
55.275000000000006
 30
0.0
 40
0.25
  1
12.5m2
 11
154.8
 21
55.275000000000006
 31
0.0
100
AcDbText
  0
LWPOLYLINE
  5
1A2
330
17
100
AcDbEntity
  8
A-WALL
100
AcDbPolyline
 90
8
 70
1
 10
150.1
 20
-54.55
 10
150.1
 20
-57.05
 10
147.6
 20
-57.05
 10
147.65
 20
-65.35
 10
154.85
 20
-65.35
 10
154.8
 20
-57.05
 10
152.3
 20
-57.05
 10
152.3
 20
-54.55
  0
TEXT
  5
1A3
330
17
100
AcDbEntity
  8
A-TEXT
100
AcDbText
 10
151.21249999999998
 20
58.5
 30
0.0
 40
0.35
  1
1 BEDROOM
 11
151.21249999999998
 21
58.5
 31
0.0
100
AcDbText
  0
TEXT
  5
1A4
330
17
100
AcDbEntity
  8
A-TEXT
100
AcDbText
 10
151.21249999999998
 20
58.0
 30
0.0
 40
0.25
  1
65.3m2
 11
151.21249999999998
 21
58.0
 31
0.0
100
AcDbText
  0
LWPOLYLINE
  5
1A5
330
17
100
AcDbEntity
  8
A-BALC
100
AcDbPolyline
 90
4
 70
1
 10
147.65
 20
-65.35
 10
154.85
 20
-65.35
 10
154.85
 20
-66.55
 10
147.65
 20
-66.55
  0
HATCH
  5
1A6
330
17
100
AcDbEntity
  8
A-HATCH
 62
7
100
AcDbHatch
 10
0.0
 20
0.0
 30
0.0
210
0.0
220
0.0
230
1.0
  2
SOLID
 70
1
 71
0
 91
1
 92
3
 72
0
 73
1
 93
4
 10
147.65
 20
-65.35
 10
154.85
 20
-65.35
 10
154.85
 20
-66.55
 10
147.65
 20
-66.55
 97
0
 75
0
 76
1
 98
0
  0
LWPOLYLINE
  5
1A7
330
17
100
AcDbEntity
  8
A-WALL
100
AcDbPolyline
 90
4
 70
1
 10
163.1
 20
-54.5
 10
168.1
 20
-54.45
 10
168.1
 20
-56.95
 10
163.1
 20
-57.0
  0
TEXT
  5
1A8
330
17
100
AcDbEntity
  8
A-TEXT
100
AcDbText
 10
165.6
 20
55.725
 30
0.0
 40
0.35
  1
DUCT
 11
165.6
 21
55.725
 31
0.0
100
AcDbText
  0
TEXT
  5
1A9
330
17
100
AcDbEntity
  8
A-TEXT
100
AcDbText
 10
165.6
 20
55.225
 30
0.0
 40
0.25
  1
12.5m2
 11
165.6
 21
55.225
 31
0.0
100
AcDbText
  0
LWPOLYLINE
  5
1AA
330
17
100
AcDbEntity
  8
A-WALL
100
AcDbPolyline
 90
8
 70
1
 10
157.3
 20
-54.5
 10
157.3
 20
-57.0
 10
154.8
 20
-57.05
 10
154.85
 20
-65.35
 10
165.65
 20
-65.3
 10
165.6
 20
-57.0
 10
163.1
 20
-57.0
 10
163.1
 20
-54.5
  0
TEXT
  5
1AB
330
17
100
AcDbEntity
  8
A-TEXT
100
AcDbText
 10
160.21249999999998
 20
58.4625
 30
0.0
 40
0.35
  1
2 BEDROOM
 11
160.21249999999998
 21
58.4625
 31
0.0
100
AcDbText
  0
TEXT
  5
1AC
330
17
100
AcDbEntity
  8
A-TEXT
100
AcDbText
 10
160.21249999999998
 20
57.9625
 30
0.0
 40
0.25
  1
104.3m2
 11
160.21249999999998
 21
57.9625
 31
0.0
100
AcDbText
  0
LWPOLYLINE
  5
1AD
330
17
100
AcDbEntity
  8
A-BALC
100
AcDbPolyline
 90
4
 70
1
 10
154.85
 20
-65.35
 10
165.65
 20
-65.3
 10
165.6555554960191
 20
-66.49998714012442
 10
154.8555554960191
 20
-66.54998714012441
  0
HATCH
  5
1AE
330
17
100
AcDbEntity
  8
A-HATCH
 62
7
100
AcDbHatch
 10
0.0
 20
0.0
 30
0.0
210
0.0
220
0.0
230
1.0
  2
SOLID
 70
1
 71
0
 91
1
 92
3
 72
0
 73
1
 93
4
 10
154.85
 20
-65.35
 10
165.65
 20
-65.3
 10
165.6555554960191
 20
-66.49998714012442
 10
154.8555554960191
 20
-66.54998714012441
 97
0
 75
0
 76
1
 98
0
  0
LWPOLYLINE
  5
1AF
330
17
100
AcDbEntity
  8
A-WALL
100
AcDbPolyline
 90
4
 70
1
 10
173.9
 20
-54.45
 10
178.9
 20
-54.4
 10
178.9
 20
-56.9
 10
173.9
 20
-56.95
  0
TEXT
  5
1B0
330
17
100
AcDbEntity
  8
A-TEXT
100
AcDbText
 10
176.4
 20
55.675
 30
0.0
 40
0.35
  1
DUCT
 11
176.4
 21
55.675
 31
0.0
100
AcDbText
  0
TEXT
  5
1B1
330
17
100
AcDbEntity
  8
A-TEXT
100
AcDbText
 10
176.4
 20
55.175
 30
0.0
 40
0.25
  1
12.5m2
 11
176.4
 21
55.175
 31
0.0
100
AcDbText
  0
LWPOLYLINE
  5
1B2
330
17
100
AcDbEntity
  8
A-WALL
100
AcDbPolyline
 90
8
 70
1
 10
168.1
 20
-54.45
 10
168.1
 20
-56.95
 10
165.6
 20
-57.0
 10
165.65
 20
-65.3
 10
176.45
 20
-65.25
 10
176.4
 20
-56.95
 10
173.9
 20
-56.95
 10
173.9
 20
-54.45
  0
TEXT
  5
1B3
330
17
100
AcDbEntity
  8
A-TEXT
100
AcDbText
 10
171.0125
 20
58.412499999999994
 30
0.0
 40
0.35
  1
2 BEDROOM
 11
171.0125
 21
58.412499999999994
 31
0.0
100
AcDbText
  0
TEXT
  5
1B4
330
17
100
AcDbEntity
  8
A-TEXT
100
AcDbText
 10
171.0125
 20
57.912499999999994
 30
0.0
 40
0.25
  1
104.3m2
 11
171.0125
 21
57.912499999999994
 31
0.0
100
AcDbText
  0
LWPOLYLINE
  5
1B5
330
17
100
AcDbEntity
  8
A-BALC
100
AcDbPolyline
 90
4
 70
1
 10
165.65
 20
-65.3
 10
176.45
 20
-65.25
 10
176.4555554960191
 20
-66.44998714012442
 10
165.6555554960191
 20
-66.49998714012442
  0
HATCH
  5
1B6
330
17
100
AcDbEntity
  8
A-HATCH
 62
7
100
AcDbHatch
 10
0.0
 20
0.0
 30
0.0
210
0.0
220
0.0
230
1.0
  2
SOLID
 70
1
 71
0
 91
1
 92
3
 72
0
 73
1
 93
4
 10
165.65
 20
-65.3
 10
176.45
 20
-65.25
 10
176.4555554960191
 20
-66.44998714012442
 10
165.6555554960191
 20
-66.49998714012442
 97
0
 75
0
 76
1
 98
0
  0
LWPOLYLINE
  5
1B7
330
17
100
AcDbEntity
  8
A-WALL
100
AcDbPolyline
 90
6
 70
1
 10
178.9
 20
-54.4
 10
178.9
 20
-56.9
 10
176.4
 20
-56.95
 10
176.45
 20
-65.25
 10
182.7
 20
-65.2
 10
182.65
 20
-54.4
  0
TEXT
  5
1B8
330
17
100
AcDbEntity
  8
A-TEXT
100
AcDbText
 10
179.33333333333337
 20
58.849999999999994
 30
0.0
 40
0.35
  1
1 BEDROOM
 11
179.33333333333337
 21
58.849999999999994
 31
0.0
100
AcDbText
  0
TEXT
  5
1B9
330
17
100
AcDbEntity
  8
A-TEXT
100
AcDbText
 10
179.33333333333337
 20
58.349999999999994
 30
0.0
 40
0.25
  1
61.4m2
 11
179.33333333333337
 21
58.349999999999994
 31
0.0
100
AcDbText
  0
LWPOLYLINE
  5
1BA
330
17
100
AcDbEntity
  8
A-BALC
100
AcDbPolyline
 90
4
 70
1
 10
176.45
 20
-65.25
 10
182.7
 20
-65.2
 10
182.70959969281472
 20
-66.3999616018431
 10
176.45959969281472
 20
-66.4499616018431
  0
HATCH
  5
1BB
330
17
100
AcDbEntity
  8
A-HATCH
 62
7
100
AcDbHatch
 10
0.0
 20
0.0
 30
0.0
210
0.0
220
0.0
230
1.0
  2
SOLID
 70
1
 71
0
 91
1
 92
3
 72
0
 73
1
 93
4
 10
176.45
 20
-65.25
 10
182.7
 20
-65.2
 10
182.70959969281472
 20
-66.3999616018431
 10
176.45959969281472
 20
-66.4499616018431
 97
0
 75
0
 76
1
 98
0
  0
LWPOLYLINE
  5
1BC
330
17
100
AcDbEntity
  8
A-WALL
100
AcDbPolyline
 90
4
 70
1
 10
195.3
 20
-42.3
 10
206.1
 20
-42.3
 10
206.1
 20
-38.7
 10
195.3
 20
-38.7
  0
TEXT
  5
1BD
330
17
100
AcDbEntity
  8
A-TEXT
100
AcDbText
 10
200.7
 20
40.5
 30
0.0
 40
0.35
  1
STUDIO
 11
200.7
 21
40.5
 31
0.0
100
AcDbText
  0
TEXT
  5
1BE
330
17
100
AcDbEntity
  8
A-TEXT
100
AcDbText
 10
200.7
 20
40.0
 30
0.0
 40
0.25
  1
38.9m2
 11
200.7
 21
40.0
 31
0.0
100
AcDbText
  0
LWPOLYLINE
  5
1BF
330
17
100
AcDbEntity
  8
A-BALC
100
AcDbPolyline
 90
4
 70
1
 10
206.1
 20
-42.3
 10
206.1
 20
-38.7
 10
207.29999999999998
 20
-38.7
 10
207.29999999999998
 20
-42.3
  0
HATCH
  5
1C0
330
17
100
AcDbEntity
  8
A-HATCH
 62
7
100
AcDbHatch
 10
0.0
 20
0.0
 30
0.0
210
0.0
220
0.0
230
1.0
  2
SOLID
 70
1
 71
0
 91
1
 92
3
 72
0
 73
1
 93
4
 10
206.1
 20
-42.3
 10
206.1
 20
-38.7
 10
207.29999999999998
 20
-38.7
 10
207.29999999999998
 20
-42.3
 97
0
 75
0
 76
1
 98
0
  0
LWPOLYLINE
  5
1C1
330
17
100
AcDbEntity
  8
A-WALL
100
AcDbPolyline
 90
4
 70
1
 10
195.3
 20
-38.7
 10
206.1
 20
-38.7
 10
206.1
 20
-35.1
 10
195.3
 20
-35.1
  0
TEXT
  5
1C2
330
17
100
AcDbEntity
  8
A-TEXT
100
AcDbText
 10
200.7
 20
36.9
 30
0.0
 40
0.35
  1
STUDIO
 11
200.7
 21
36.9
 31
0.0
100
AcDbText
  0
TEXT
  5
1C3
330
17
100
AcDbEntity
  8
A-TEXT
100
AcDbText
 10
200.7
 20
36.4
 30
0.0
 40
0.25
  1
38.9m2
 11
200.7
 21
36.4
 31
0.0
100
AcDbText
  0
LWPOLYLINE
  5
1C4
330
17
100
AcDbEntity
  8
A-BALC
100
AcDbPolyline
 90
4
 70
1
 10
206.1
 20
-38.7
 10
206.1
 20
-35.1
 10
207.29999999999998
 20
-35.1
 10
207.29999999999998
 20
-38.7
  0
HATCH
  5
1C5
330
17
100
AcDbEntity
  8
A-HATCH
 62
7
100
AcDbHatch
 10
0.0
 20
0.0
 30
0.0
210
0.0
220
0.0
230
1.0
  2
SOLID
 70
1
 71
0
 91
1
 92
3
 72
0
 73
1
 93
4
 10
206.1
 20
-38.7
 10
206.1
 20
-35.1
 10
207.29999999999998
 20
-35.1
 10
207.29999999999998
 20
-38.7
 97
0
 75
0
 76
1
 98
0
  0
LWPOLYLINE
  5
1C6
330
17
100
AcDbEntity
  8
A-WALL
100
AcDbPolyline
 90
4
 70
1
 10
195.3
 20
-35.1
 10
206.1
 20
-35.1
 10
206.1
 20
-31.5
 10
195.3
 20
-31.5
  0
TEXT
  5
1C7
330
17
100
AcDbEntity
  8
A-TEXT
100
AcDbText
 10
200.7
 20
33.3
 30
0.0
 40
0.35
  1
STUDIO
 11
200.7
 21
33.3
 31
0.0
100
AcDbText
  0
TEXT
  5
1C8
330
17
100
AcDbEntity
  8
A-TEXT
100
AcDbText
 10
200.7
 20
32.8
 30
0.0
 40
0.25
  1
38.9m2
 11
200.7
 21
32.8
 31
0.0
100
AcDbText
  0
LWPOLYLINE
  5
1C9
330
17
100
AcDbEntity
  8
A-BALC
100
AcDbPolyline
 90
4
 70
1
 10
206.1
 20
-35.1
 10
206.1
 20
-31.5
 10
207.29999999999998
 20
-31.5
 10
207.29999999999998
 20
-35.1
  0
HATCH
  5
1CA
330
17
100
AcDbEntity
  8
A-HATCH
 62
7
100
AcDbHatch
 10
0.0
 20
0.0
 30
0.0
210
0.0
220
0.0
230
1.0
  2
SOLID
 70
1
 71
0
 91
1
 92
3
 72
0
 73
1
 93
4
 10
206.1
 20
-35.1
 10
206.1
 20
-31.5
 10
207.29999999999998
 20
-31.5
 10
207.29999999999998
 20
-35.1
 97
0
 75
0
 76
1
 98
0
  0
LWPOLYLINE
  5
1CB
330
17
100
AcDbEntity
  8
A-WALL
100
AcDbPolyline
 90
4
 70
1
 10
195.3
 20
-26.8
 10
195.3
 20
-21.8
 10
197.8
 20
-21.8
 10
197.8
 20
-26.8
  0
TEXT
  5
1CC
330
17
100
AcDbEntity
  8
A-TEXT
100
AcDbText
 10
196.55
 20
24.3
 30
0.0
 40
0.35
  1
DUCT
 11
196.55
 21
24.3
 31
0.0
100
AcDbText
  0
TEXT
  5
1CD
330
17
100
AcDbEntity
  8
A-TEXT
100
AcDbText
 10
196.55
 20
23.8
 30
0.0
 40
0.25
  1
12.5m2
 11
196.55
 21
23.8
 31
0.0
100
AcDbText
  0
LWPOLYLINE
  5
1CE
330
17
100
AcDbEntity
  8
A-WALL
100
AcDbPolyline
 90
6
 70
1
 10
195.3
 20
-31.5
 10
206.1
 20
-31.5
 10
206.1
 20
-24.3
 10
197.8
 20
-24.3
 10
197.8
 20
-26.8
 10
195.3
 20
-26.8
  0
TEXT
  5
1CF
330
17
100
AcDbEntity
  8
A-TEXT
100
AcDbText
 10
199.73333333333332
 20
27.533333333333335
 30
0.0
 40
0.35
  1
1 BEDROOM
 11
199.73333333333332
 21
27.533333333333335
 31
0.0
100
AcDbText
  0
TEXT
  5
1D0
330
17
100
AcDbEntity
  8
A-TEXT
100
AcDbText
 10
199.73333333333332
 20
27.033333333333335
 30
0.0
 40
0.25
  1
71.5m2
 11
199.73333333333332
 21
27.033333333333335
 31
0.0
100
AcDbText
  0
LWPOLYLINE
  5
1D1
330
17
100
AcDbEntity
  8
A-BALC
100
AcDbPolyline
 90
4
 70
1
 10
206.1
 20
-31.5
 10
206.1
 20
-24.3
 10
207.29999999999998
 20
-24.3
 10
207.29999999999998
 20
-31.5
  0
HATCH
  5
1D2
330
17
100
AcDbEntity
  8
A-HATCH
 62
7
100
AcDbHatch
 10
0.0
 20
0.0
 30
0.0
210
0.0
220
0.0
230
1.0
  2
SOLID
 70
1
 71
0
 91
1
 92
3
 72
0
 73
1
 93
4
 10
206.1
 20
-31.5
 10
206.1
 20
-24.3
 10
207.29999999999998
 20
-24.3
 10
207.29999999999998
 20
-31.5
 97
0
 75
0
 76
1
 98
0
  0
LWPOLYLINE
  5
1D3
330
17
100
AcDbEntity
  8
A-WALL
100
AcDbPolyline
 90
4
 70
1
 10
195.3
 20
-19.6
 10
195.3
 20
-14.6
 10
197.8
 20
-14.6
 10
197.8
 20
-19.6
  0
TEXT
  5
1D4
330
17
100
AcDbEntity
  8
A-TEXT
100
AcDbText
 10
196.55
 20
17.1
 30
0.0
 40
0.35
  1
DUCT
 11
196.55
 21
17.1
 31
0.0
100
AcDbText
  0
TEXT
  5
1D5
330
17
100
AcDbEntity
  8
A-TEXT
100
AcDbText
 10
196.55
 20
16.6
 30
0.0
 40
0.25
  1
12.5m2
 11
196.55
 21
16.6
 31
0.0
100
AcDbText
  0
LWPOLYLINE
  5
1D6
330
17
100
AcDbEntity
  8
A-WALL
100
AcDbPolyline
 90
8
 70
1
 10
195.3
 20
-21.8
 10
197.8
 20
-21.8
 10
197.8
 20
-24.3
 10
206.1
 20
-24.3
 10
206.1
 20
-17.1
 10
197.8
 20
-17.1
 10
197.8
 20
-19.6
 10
195.3
 20
-19.6
  0
TEXT
  5
1D7
330
17
100
AcDbEntity
  8
A-TEXT
100
AcDbText
 10
199.25
 20
20.7
 30
0.0
 40
0.35
  1
1 BEDROOM
 11
199.25
 21
20.7
 31
0.0
100
AcDbText
  0
TEXT
  5
1D8
330
17
100
AcDbEntity
  8
A-TEXT
100
AcDbText
 10
199.25
 20
20.2
 30
0.0
 40
0.25
  1
65.3m2
 11
199.25
 21
20.2
 31
0.0
100
AcDbText
  0
LWPOLYLINE
  5
1D9
330
17
100
AcDbEntity
  8
A-BALC
100
AcDbPolyline
 90
4
 70
1
 10
206.1
 20
-24.3
 10
206.1
 20
-17.1
 10
207.29999999999998
 20
-17.1
 10
207.29999999999998
 20
-24.3
  0
HATCH
  5
1DA
330
17
100
AcDbEntity
  8
A-HATCH
 62
7
100
AcDbHatch
 10
0.0
 20
0.0
 30
0.0
210
0.0
220
0.0
230
1.0
  2
SOLID
 70
1
 71
0
 91
1
 92
3
 72
0
 73
1
 93
4
 10
206.1
 20
-24.3
 10
206.1
 20
-17.1
 10
207.29999999999998
 20
-17.1
 10
207.29999999999998
 20
-24.3
 97
0
 75
0
 76
1
 98
0
  0
LWPOLYLINE
  5
1DB
330
17
100
AcDbEntity
  8
A-WALL
100
AcDbPolyline
 90
6
 70
1
 10
195.3
 20
-14.6
 10
197.8
 20
-14.6
 10
197.8
 20
-17.1
 10
206.1
 20
-17.1
 10
206.1
 20
-10.8
 10
195.3
 20
-10.8
  0
TEXT
  5
1DC
330
17
100
AcDbEntity
  8
A-TEXT
100
AcDbText
 10
199.73333333333335
 20
14.166666666666666
 30
0.0
 40
0.35
  1
1 BEDROOM
 11
199.73333333333335
 21
14.166666666666666
 31
0.0
100
AcDbText
  0
TEXT
  5
1DD
330
17
100
AcDbEntity
  8
A-TEXT
100
AcDbText
 10
199.73333333333335
 20
13.666666666666666
 30
0.0
 40
0.25
  1
61.8m2
 11
199.73333333333335
 21
13.666666666666666
 31
0.0
100
AcDbText
  0
LWPOLYLINE
  5
1DE
330
17
100
AcDbEntity
  8
A-BALC
100
AcDbPolyline
 90
4
 70
1
 10
206.1
 20
-17.1
 10
206.1
 20
-10.8
 10
207.29999999999998
 20
-10.8
 10
207.29999999999998
 20
-17.1
  0
HATCH
  5
1DF
330
17
100
AcDbEntity
  8
A-HATCH
 62
7
100
AcDbHatch
 10
0.0
 20
0.0
 30
0.0
210
0.0
220
0.0
230
1.0
  2
SOLID
 70
1
 71
0
 91
1
 92
3
 72
0
 73
1
 93
4
 10
206.1
 20
-17.1
 10
206.1
 20
-10.8
 10
207.29999999999998
 20
-10.8
 10
207.29999999999998
 20
-17.1
 97
0
 75
0
 76
1
 98
0
  0
LWPOLYLINE
  5
1E0
330
17
100
AcDbEntity
  8
A-CORE
100
AcDbPolyline
 90
4
 70
1
 10
72.0
 20
-53.1
 10
74.6
 20
-53.1
 10
74.6
 20
-49.22
 10
72.0
 20
-49.22
  0
LINE
  5
1E1
330
17
100
AcDbEntity
  8
A-CORE
100
AcDbLine
 10
72.2867
 20
-53.1
 30
0.0
 11
73.4867
 21
-53.1
 31
0.0
  0
LINE
  5
1E2
330
17
100
AcDbEntity
  8
A-CORE
100
AcDbLine
 10
73.4
 20
-50.8067
 30
0.0
 11
74.6
 21
-50.8067
 31
0.0
  0
LINE
  5
1E3
330
17
100
AcDbEntity
  8
A-CORE
100
AcDbLine
 10
72.5733
 20
-53.1
 30
0.0
 11
73.7733
 21
-53.1
 31
0.0
  0
LINE
  5
1E4
330
17
100
AcDbEntity
  8
A-CORE
100
AcDbLine
 10
73.4
 20
-51.0933
 30
0.0
 11
74.6
 21
-51.0933
 31
0.0
  0
LINE
  5
1E5
330
17
100
AcDbEntity
  8
A-CORE
100
AcDbLine
 10
72.86
 20
-53.1
 30
0.0
 11
74.06
 21
-53.1
 31
0.0
  0
LINE
  5
1E6
330
17
100
AcDbEntity
  8
A-CORE
100
AcDbLine
 10
73.4
 20
-51.38
 30
0.0
 11
74.6
 21
-51.38
 31
0.0
  0
LINE
  5
1E7
330
17
100
AcDbEntity
  8
A-CORE
100
AcDbLine
 10
73.1467
 20
-53.1
 30
0.0
 11
74.3467
 21
-53.1
 31
0.0
  0
LINE
  5
1E8
330
17
100
AcDbEntity
  8
A-CORE
100
AcDbLine
 10
73.4
 20
-51.6667
 30
0.0
 11
74.6
 21
-51.6667
 31
0.0
  0
LINE
  5
1E9
330
17
100
AcDbEntity
  8
A-CORE
100
AcDbLine
 10
73.4333
 20
-53.1
 30
0.0
 11
74.6333
 21
-53.1
 31
0.0
  0
LINE
  5
1EA
330
17
100
AcDbEntity
  8
A-CORE
100
AcDbLine
 10
73.4
 20
-51.9533
 30
0.0
 11
74.6
 21
-51.9533
 31
0.0
  0
LINE
  5
1EB
330
17
100
AcDbEntity
  8
A-CORE
100
AcDbLine
 10
73.72
 20
-53.1
 30
0.0
 11
74.92
 21
-53.1
 31
0.0
  0
LINE
  5
1EC
330
17
100
AcDbEntity
  8
A-CORE
100
AcDbLine
 10
73.4
 20
-52.24
 30
0.0
 11
74.6
 21
-52.24
 31
0.0
  0
LINE
  5
1ED
330
17
100
AcDbEntity
  8
A-CORE
100
AcDbLine
 10
74.0067
 20
-53.1
 30
0.0
 11
75.2067
 21
-53.1
 31
0.0
  0
LINE
  5
1EE
330
17
100
AcDbEntity
  8
A-CORE
100
AcDbLine
 10
73.4
 20
-52.5267
 30
0.0
 11
74.6
 21
-52.5267
 31
0.0
  0
LINE
  5
1EF
330
17
100
AcDbEntity
  8
A-CORE
100
AcDbLine
 10
74.2933
 20
-53.1
 30
0.0
 11
75.4933
 21
-53.1
 31
0.0
  0
LINE
  5
1F0
330
17
100
AcDbEntity
  8
A-CORE
100
AcDbLine
 10
73.4
 20
-52.8133
 30
0.0
 11
74.6
 21
-52.8133
 31
0.0
  0
LWPOLYLINE
  5
1F1
330
17
100
AcDbEntity
  8
A-CORE
100
AcDbPolyline
 90
4
 70
1
 10
74.6
 20
-53.1
 10
76.2
 20
-53.1
 10
76.2
 20
-51.3
 10
74.6
 20
-51.3
  0
LWPOLYLINE
  5
1F2
330
17
100
AcDbEntity
  8
A-CORE
100
AcDbPolyline
 90
4
 70
1
 10
132.0
 20
-53.35
 10
134.6
 20
-53.35
 10
134.6
 20
-49.47
 10
132.0
 20
-49.47
  0
LINE
  5
1F3
330
17
100
AcDbEntity
  8
A-CORE
100
AcDbLine
 10
132.2867
 20
-53.35
 30
0.0
 11
133.4867
 21
-53.35
 31
0.0
  0
LINE
  5
1F4
330
17
100
AcDbEntity
  8
A-CORE
100
AcDbLine
 10
133.4
 20
-51.0567
 30
0.0
 11
134.6
 21
-51.0567
 31
0.0
  0
LINE
  5
1F5
330
17
100
AcDbEntity
  8
A-CORE
100
AcDbLine
 10
132.5733
 20
-53.35
 30
0.0
 11
133.7733
 21
-53.35
 31
0.0
  0
LINE
  5
1F6
330
17
100
AcDbEntity
  8
A-CORE
100
AcDbLine
 10
133.4
 20
-51.3433
 30
0.0
 11
134.6
 21
-51.3433
 31
0.0
  0
LINE
  5
1F7
330
17
100
AcDbEntity
  8
A-CORE
100
AcDbLine
 10
132.86
 20
-53.35
 30
0.0
 11
134.06
 21
-53.35
 31
0.0
  0
LINE
  5
1F8
330
17
100
AcDbEntity
  8
A-CORE
100
AcDbLine
 10
133.4
 20
-51.63
 30
0.0
 11
134.6
 21
-51.63
 31
0.0
  0
LINE
  5
1F9
330
17
100
AcDbEntity
  8
A-CORE
100
AcDbLine
 10
133.1467
 20
-53.35
 30
0.0
 11
134.3467
 21
-53.35
 31
0.0
  0
LINE
  5
1FA
330
17
100
AcDbEntity
  8
A-CORE
100
AcDbLine
 10
133.4
 20
-51.9167
 30
0.0
 11
134.6
 21
-51.9167
 31
0.0
  0
LINE
  5
1FB
330
17
100
AcDbEntity
  8
A-CORE
100
AcDbLine
 10
133.4333
 20
-53.35
 30
0.0
 11
134.6333
 21
-53.35
 31
0.0
  0
LINE
  5
1FC
330
17
100
AcDbEntity
  8
A-CORE
100
AcDbLine
 10
133.4
 20
-52.2033
 30
0.0
 11
134.6
 21
-52.2033
 31
0.0
  0
LINE
  5
1FD
330
17
100
AcDbEntity
  8
A-CORE
100
AcDbLine
 10
133.72
 20
-53.35
 30
0.0
 11
134.92
 21
-53.35
 31
0.0
  0
LINE
  5
1FE
330
17
100
AcDbEntity
  8
A-CORE
100
AcDbLine
 10
133.4
 20
-52.49
 30
0.0
 11
134.6
 21
-52.49
 31
0.0
  0
LINE
  5
1FF
330
17
100
AcDbEntity
  8
A-CORE
100
AcDbLine
 10
134.0067
 20
-53.35
 30
0.0
 11
135.2067
 21
-53.35
 31
0.0
  0
LINE
  5
200
330
17
100
AcDbEntity
  8
A-CORE
100
AcDbLine
 10
133.4
 20
-52.7767
 30
0.0
 11
134.6
 21
-52.7767
 31
0.0
  0
LINE
  5
201
330
17
100
AcDbEntity
  8
A-CORE
100
AcDbLine
 10
134.2933
 20
-53.35
 30
0.0
 11
135.4933
 21
-53.35
 31
0.0
  0
LINE
  5
202
330
17
100
AcDbEntity
  8
A-CORE
100
AcDbLine
 10
133.4
 20
-53.0633
 30
0.0
 11
134.6
 21
-53.0633
 31
0.0
  0
LWPOLYLINE
  5
203
330
17
100
AcDbEntity
  8
A-CORE
100
AcDbPolyline
 90
4
 70
1
 10
134.6
 20
-53.35
 10
136.2
 20
-53.35
 10
136.2
 20
-51.55
 10
134.6
 20
-51.55
  0
LWPOLYLINE
  5
204
330
17
100
AcDbEntity
  8
A-CORE
100
AcDbPolyline
 90
4
 70
1
 10
192.0
 20
-53.65
 10
194.6
 20
-53.65
 10
194.6
 20
-49.77
 10
192.0
 20
-49.77
  0
LINE
  5
205
330
17
100
AcDbEntity
  8
A-CORE
100
AcDbLine
 10
192.2867
 20
-53.65
 30
0.0
 11
193.4867
 21
-53.65
 31
0.0
  0
LINE
  5
206
330
17
100
AcDbEntity
  8
A-CORE
100
AcDbLine
 10
193.4
 20
-51.3567
 30
0.0
 11
194.6
 21
-51.3567
 31
0.0
  0
LINE
  5
207
330
17
100
AcDbEntity
  8
A-CORE
100
AcDbLine
 10
192.5733
 20
-53.65
 30
0.0
 11
193.7733
 21
-53.65
 31
0.0
  0
LINE
  5
208
330
17
100
AcDbEntity
  8
A-CORE
100
AcDbLine
 10
193.4
 20
-51.6433
 30
0.0
 11
194.6
 21
-51.6433
 31
0.0
  0
LINE
  5
209
330
17
100
AcDbEntity
  8
A-CORE
100
AcDbLine
 10
192.86
 20
-53.65
 30
0.0
 11
194.06
 21
-53.65
 31
0.0
  0
LINE
  5
20A
330
17
100
AcDbEntity
  8
A-CORE
100
AcDbLine
 10
193.4
 20
-51.93
 30
0.0
 11
194.6
 21
-51.93
 31
0.0
  0
LINE
  5
20B
330
17
100
AcDbEntity
  8
A-CORE
100
AcDbLine
 10
193.1467
 20
-53.65
 30
0.0
 11
194.3467
 21
-53.65
 31
0.0
  0
LINE
  5
20C
330
17
100
AcDbEntity
  8
A-CORE
100
AcDbLine
 10
193.4
 20
-52.2167
 30
0.0
 11
194.6
 21
-52.2167
 31
0.0
  0
LINE
  5
20D
330
17
100
AcDbEntity
  8
A-CORE
100
AcDbLine
 10
193.4333
 20
-53.65
 30
0.0
 11
194.6333
 21
-53.65
 31
0.0
  0
LINE
  5
20E
330
17
100
AcDbEntity
  8
A-CORE
100
AcDbLine
 10
193.4
 20
-52.5033
 30
0.0
 11
194.6
 21
-52.5033
 31
0.0
  0
LINE
  5
20F
330
17
100
AcDbEntity
  8
A-CORE
100
AcDbLine
 10
193.72
 20
-53.65
 30
0.0
 11
194.92
 21
-53.65
 31
0.0
  0
LINE
  5
210
330
17
100
AcDbEntity
  8
A-CORE
100
AcDbLine
 10
193.4
 20
-52.79
 30
0.0
 11
194.6
 21
-52.79
 31
0.0
  0
LINE
  5
211
330
17
100
AcDbEntity
  8
A-CORE
100
AcDbLine
 10
194.0067
 20
-53.65
 30
0.0
 11
195.2067
 21
-53.65
 31
0.0
  0
LINE
  5
212
330
17
100
AcDbEntity
  8
A-CORE
100
AcDbLine
 10
193.4
 20
-53.0767
 30
0.0
 11
194.6
 21
-53.0767
 31
0.0
  0
LINE
  5
213
330
17
100
AcDbEntity
  8
A-CORE
100
AcDbLine
 10
194.2933
 20
-53.65
 30
0.0
 11
195.4933
 21
-53.65
 31
0.0
  0
LINE
  5
214
330
17
100
AcDbEntity
  8
A-CORE
100
AcDbLine
 10
193.4
 20
-53.3633
 30
0.0
 11
194.6
 21
-53.3633
 31
0.0
  0
LWPOLYLINE
  5
215
330
17
100
AcDbEntity
  8
A-CORE
100
AcDbPolyline
 90
4
 70
1
 10
194.6
 20
-53.65
 10
196.2
 20
-53.65
 10
196.2
 20
-51.85
 10
194.6
 20
-51.85
  0
LWPOLYLINE
  5
216
330
17
100
AcDbEntity
  8
A-CORE
100
AcDbPolyline
 90
4
 70
1
 10
252.0
 20
-53.9
 10
254.6
 20
-53.9
 10
254.6
 20
-50.02
 10
252.0
 20
-50.02
  0
LINE
  5
217
330
17
100
AcDbEntity
  8
A-CORE
100
AcDbLine
 10
252.2867
 20
-53.9
 30
0.0
 11
253.4867
 21
-53.9
 31
0.0
  0
LINE
  5
218
330
17
100
AcDbEntity
  8
A-CORE
100
AcDbLine
 10
253.4
 20
-51.6067
 30
0.0
 11
254.6
 21
-51.6067
 31
0.0
  0
LINE
  5
219
330
17
100
AcDbEntity
  8
A-CORE
100
AcDbLine
 10
252.5733
 20
-53.9
 30
0.0
 11
253.7733
 21
-53.9
 31
0.0
  0
LINE
  5
21A
330
17
100
AcDbEntity
  8
A-CORE
100
AcDbLine
 10
253.4
 20
-51.8933
 30
0.0
 11
254.6
 21
-51.8933
 31
0.0
  0
LINE
  5
21B
330
17
100
AcDbEntity
  8
A-CORE
100
AcDbLine
 10
252.86
 20
-53.9
 30
0.0
 11
254.06
 21
-53.9
 31
0.0
  0
LINE
  5
21C
330
17
100
AcDbEntity
  8
A-CORE
100
AcDbLine
 10
253.4
 20
-52.18
 30
0.0
 11
254.6
 21
-52.18
 31
0.0
  0
LINE
  5
21D
330
17
100
AcDbEntity
  8
A-CORE
100
AcDbLine
 10
253.1467
 20
-53.9
 30
0.0
 11
254.3467
 21
-53.9
 31
0.0
  0
LINE
  5
21E
330
17
100
AcDbEntity
  8
A-CORE
100
AcDbLine
 10
253.4
 20
-52.4667
 30
0.0
 11
254.6
 21
-52.4667
 31
0.0
  0
LINE
  5
21F
330
17
100
AcDbEntity
  8
A-CORE
100
AcDbLine
 10
253.4333
 20
-53.9
 30
0.0
 11
254.6333
 21
-53.9
 31
0.0
  0
LINE
  5
220
330
17
100
AcDbEntity
  8
A-CORE
100
AcDbLine
 10
253.4
 20
-52.7533
 30
0.0
 11
254.6
 21
-52.7533
 31
0.0
  0
LINE
  5
221
330
17
100
AcDbEntity
  8
A-CORE
100
AcDbLine
 10
253.72
 20
-53.9
 30
0.0
 11
254.92
 21
-53.9
 31
0.0
  0
LINE
  5
222
330
17
100
AcDbEntity
  8
A-CORE
100
AcDbLine
 10
253.4
 20
-53.04
 30
0.0
 11
254.6
 21
-53.04
 31
0.0
  0
LINE
  5
223
330
17
100
AcDbEntity
  8
A-CORE
100
AcDbLine
 10
254.0067
 20
-53.9
 30
0.0
 11
255.2067
 21
-53.9
 31
0.0
  0
LINE
  5
224
330
17
100
AcDbEntity
  8
A-CORE
100
AcDbLine
 10
253.4
 20
-53.3267
 30
0.0
 11
254.6
 21
-53.3267
 31
0.0
  0
LINE
  5
225
330
17
100
AcDbEntity
  8
A-CORE
100
AcDbLine
 10
254.2933
 20
-53.9
 30
0.0
 11
255.4933
 21
-53.9
 31
0.0
  0
LINE
  5
226
330
17
100
AcDbEntity
  8
A-CORE
100
AcDbLine
 10
253.4
 20
-53.6133
 30
0.0
 11
254.6
 21
-53.6133
 31
0.0
  0
LWPOLYLINE
  5
227
330
17
100
AcDbEntity
  8
A-CORE
100
AcDbPolyline
 90
4
 70
1
 10
254.6
 20
-53.9
 10
256.2
 20
-53.9
 10
256.2
 20
-52.1
 10
254.6
 20
-52.1
  0
LWPOLYLINE
  5
228
330
17
100
AcDbEntity
  8
A-CORE
100
AcDbPolyline
 90
4
 70
1
 10
234.75
 20
-54.45
 10
232.15
 20
-54.45
 10
232.15
 20
-58.33
 10
234.75
 20
-58.33
  0
LINE
  5
229
330
17
100
AcDbEntity
  8
A-CORE
100
AcDbLine
 10
234.4633
 20
-54.45
 30
0.0
 11
233.2633
 21
-54.45
 31
0.0
  0
LINE
  5
22A
330
17
100
AcDbEntity
  8
A-CORE
100
AcDbLine
 10
233.35
 20
-56.7433
 30
0.0
 11
232.15
 21
-56.7433
 31
0.0
  0
LINE
  5
22B
330
17
100
AcDbEntity
  8
A-CORE
100
AcDbLine
 10
234.1767
 20
-54.45
 30
0.0
 11
232.9767
 21
-54.45
 31
0.0
  0
LINE
  5
22C
330
17
100
AcDbEntity
  8
A-CORE
100
AcDbLine
 10
233.35
 20
-56.4567
 30
0.0
 11
232.15
 21
-56.4567
 31
0.0
  0
LINE
  5
22D
330
17
100
AcDbEntity
  8
A-CORE
100
AcDbLine
 10
233.89
 20
-54.45
 30
0.0
 11
232.69
 21
-54.45
 31
0.0
  0
LINE
  5
22E
330
17
100
AcDbEntity
  8
A-CORE
100
AcDbLine
 10
233.35
 20
-56.17
 30
0.0
 11
232.15
 21
-56.17
 31
0.0
  0
LINE
  5
22F
330
17
100
AcDbEntity
  8
A-CORE
100
AcDbLine
 10
233.6033
 20
-54.45
 30
0.0
 11
232.4033
 21
-54.45
 31
0.0
  0
LINE
  5
230
330
17
100
AcDbEntity
  8
A-CORE
100
AcDbLine
 10
233.35
 20
-55.8833
 30
0.0
 11
232.15
 21
-55.8833
 31
0.0
  0
LINE
  5
231
330
17
100
AcDbEntity
  8
A-CORE
100
AcDbLine
 10
233.3167
 20
-54.45
 30
0.0
 11
232.1167
 21
-54.45
 31
0.0
  0
LINE
  5
232
330
17
100
AcDbEntity
  8
A-CORE
100
AcDbLine
 10
233.35
 20
-55.5967
 30
0.0
 11
232.15
 21
-55.5967
 31
0.0
  0
LINE
  5
233
330
17
100
AcDbEntity
  8
A-CORE
100
AcDbLine
 10
233.03
 20
-54.45
 30
0.0
 11
231.83
 21
-54.45
 31
0.0
  0
LINE
  5
234
330
17
100
AcDbEntity
  8
A-CORE
100
AcDbLine
 10
233.35
 20
-55.31
 30
0.0
 11
232.15
 21
-55.31
 31
0.0
  0
LINE
  5
235
330
17
100
AcDbEntity
  8
A-CORE
100
AcDbLine
 10
232.7433
 20
-54.45
 30
0.0
 11
231.5433
 21
-54.45
 31
0.0
  0
LINE
  5
236
330
17
100
AcDbEntity
  8
A-CORE
100
AcDbLine
 10
233.35
 20
-55.0233
 30
0.0
 11
232.15
 21
-55.0233
 31
0.0
  0
LINE
  5
237
330
17
100
AcDbEntity
  8
A-CORE
100
AcDbLine
 10
232.4567
 20
-54.45
 30
0.0
 11
231.2567
 21
-54.45
 31
0.0
  0
LINE
  5
238
330
17
100
AcDbEntity
  8
A-CORE
100
AcDbLine
 10
233.35
 20
-54.7367
 30
0.0
 11
232.15
 21
-54.7367
 31
0.0
  0
LWPOLYLINE
  5
239
330
17
100
AcDbEntity
  8
A-CORE
100
AcDbPolyline
 90
4
 70
1
 10
232.15
 20
-54.45
 10
230.55
 20
-54.45
 10
230.55
 20
-56.25
 10
232.15
 20
-56.25
  0
LWPOLYLINE
  5
23A
330
17
100
AcDbEntity
  8
A-CORE
100
AcDbPolyline
 90
4
 70
1
 10
193.5
 20
-35.3
 10
193.5
 20
-32.7
 10
189.62
 20
-32.7
 10
189.62
 20
-35.3
  0
LINE
  5
23B
330
17
100
AcDbEntity
  8
A-CORE
100
AcDbLine
 10
193.5
 20
-35.0133
 30
0.0
 11
193.5
 21
-33.8133
 31
0.0
  0
LINE
  5
23C
330
17
100
AcDbEntity
  8
A-CORE
100
AcDbLine
 10
191.2067
 20
-33.9
 30
0.0
 11
191.2067
 21
-32.7
 31
0.0
  0
LINE
  5
23D
330
17
100
AcDbEntity
  8
A-CORE
100
AcDbLine
 10
193.5
 20
-34.7267
 30
0.0
 11
193.5
 21
-33.5267
 31
0.0
  0
LINE
  5
23E
330
17
100
AcDbEntity
  8
A-CORE
100
AcDbLine
 10
191.4933
 20
-33.9
 30
0.0
 11
191.4933
 21
-32.7
 31
0.0
  0
LINE
  5
23F
330
17
100
AcDbEntity
  8
A-CORE
100
AcDbLine
 10
193.5
 20
-34.44
 30
0.0
 11
193.5
 21
-33.24
 31
0.0
  0
LINE
  5
240
330
17
100
AcDbEntity
  8
A-CORE
100
AcDbLine
 10
191.78
 20
-33.9
 30
0.0
 11
191.78
 21
-32.7
 31
0.0
  0
LINE
  5
241
330
17
100
AcDbEntity
  8
A-CORE
100
AcDbLine
 10
193.5
 20
-34.1533
 30
0.0
 11
193.5
 21
-32.9533
 31
0.0
  0
LINE
  5
242
330
17
100
AcDbEntity
  8
A-CORE
100
AcDbLine
 10
192.0667
 20
-33.9
 30
0.0
 11
192.0667
 21
-32.7
 31
0.0
  0
LINE
  5
243
330
17
100
AcDbEntity
  8
A-CORE
100
AcDbLine
 10
193.5
 20
-33.8667
 30
0.0
 11
193.5
 21
-32.6667
 31
0.0
  0
LINE
  5
244
330
17
100
AcDbEntity
  8
A-CORE
100
AcDbLine
 10
192.3533
 20
-33.9
 30
0.0
 11
192.3533
 21
-32.7
 31
0.0
  0
LINE
  5
245
330
17
100
AcDbEntity
  8
A-CORE
100
AcDbLine
 10
193.5
 20
-33.58
 30
0.0
 11
193.5
 21
-32.38
 31
0.0
  0
LINE
  5
246
330
17
100
AcDbEntity
  8
A-CORE
100
AcDbLine
 10
192.64
 20
-33.9
 30
0.0
 11
192.64
 21
-32.7
 31
0.0
  0
LINE
  5
247
330
17
100
AcDbEntity
  8
A-CORE
100
AcDbLine
 10
193.5
 20
-33.2933
 30
0.0
 11
193.5
 21
-32.0933
 31
0.0
  0
LINE
  5
248
330
17
100
AcDbEntity
  8
A-CORE
100
AcDbLine
 10
192.9267
 20
-33.9
 30
0.0
 11
192.9267
 21
-32.7
 31
0.0
  0
LINE
  5
249
330
17
100
AcDbEntity
  8
A-CORE
100
AcDbLine
 10
193.5
 20
-33.0067
 30
0.0
 11
193.5
 21
-31.8067
 31
0.0
  0
LINE
  5
24A
330
17
100
AcDbEntity
  8
A-CORE
100
AcDbLine
 10
193.2133
 20
-33.9
 30
0.0
 11
193.2133
 21
-32.7
 31
0.0
  0
LWPOLYLINE
  5
24B
330
17
100
AcDbEntity
  8
A-CORE
100
AcDbPolyline
 90
4
 70
1
 10
193.5
 20
-32.7
 10
193.5
 20
-31.1
 10
191.7
 20
-31.1
 10
191.7
 20
-32.7
  0
LWPOLYLINE
  5
24C
330
17
100
AcDbEntity
  8
A-CIRC
100
AcDbPolyline
 90
4
 70
1
 10
72.0
 20
-53.1
 10
273.6
 20
-54.0
 10
273.6
 20
-54.0
 10
72.0
 20
-54.9
  0
LWPOLYLINE
  5
24D
330
17
100
AcDbEntity
  8
A-CIRC
100
AcDbPolyline
 90
4
 70
1
 10
273.6
 20
-54.0
 10
193.5
 20
-54.9
 10
195.3
 20
-53.1
 10
273.6
 20
-54.0
  0
LWPOLYLINE
  5
24E
330
17
100
AcDbEntity
  8
A-CIRC
100
AcDbPolyline
 90
4
 70
1
 10
193.5
 20
-54.9
 10
193.5
 20
-10.8
 10
195.3
 20
-10.8
 10
195.3
 20
-53.1
  0
LINE
  5
24F
330
17
100
AcDbEntity
  8
A-DOOR
100
AcDbLine
 10
187.65
 20
-54.9
 30
0.0
 11
188.55
 21
-54.9
 31
0.0
  0
LINE
  5
250
330
17
100
AcDbEntity
  8
A-DOOR
100
AcDbLine
 10
195.3
 20
-48.15
 30
0.0
 11
195.3
 21
-47.25
 31
0.0
  0
LINE
  5
251
330
17
100
AcDbEntity
  8
A-DOOR
100
AcDbLine
 10
78.45
 20
-53.131
 30
0.0
 11
77.55
 21
-53.119
 31
0.0
  0
LINE
  5
252
330
17
100
AcDbEntity
  8
A-DOOR
100
AcDbLine
 10
82.05
 20
-53.15
 30
0.0
 11
81.15
 21
-53.15
 31
0.0
  0
LINE
  5
253
330
17
100
AcDbEntity
  8
A-DOOR
100
AcDbLine
 10
86.2
 20
-53.15
 30
0.0
 11
85.3
 21
-53.15
 31
0.0
  0
LINE
  5
254
330
17
100
AcDbEntity
  8
A-DOOR
100
AcDbLine
 10
94.65
 20
-53.2
 30
0.0
 11
93.75
 21
-53.2
 31
0.0
  0
LINE
  5
255
330
17
100
AcDbEntity
  8
A-DOOR
100
AcDbLine
 10
101.85
 20
-53.25
 30
0.0
 11
100.95
 21
-53.25
 31
0.0
  0
LINE
  5
256
330
17
100
AcDbEntity
  8
A-DOOR
100
AcDbLine
 10
109.05
 20
-53.25
 30
0.0
 11
108.15
 21
-53.25
 31
0.0
  0
LINE
  5
257
330
17
100
AcDbEntity
  8
A-DOOR
100
AcDbLine
 10
116.25
 20
-53.3
 30
0.0
 11
115.35
 21
-53.3
 31
0.0
  0
LINE
  5
258
330
17
100
AcDbEntity
  8
A-DOOR
100
AcDbLine
 10
126.5
 20
-53.328
 30
0.0
 11
125.6
 21
-53.322
 31
0.0
  0
LINE
  5
259
330
17
100
AcDbEntity
  8
A-DOOR
100
AcDbLine
 10
131.55
 20
-53.35
 30
0.0
 11
130.65
 21
-53.35
 31
0.0
  0
LINE
  5
25A
330
17
100
AcDbEntity
  8
A-DOOR
100
AcDbLine
 10
142.6
 20
-53.427
 30
0.0
 11
141.7
 21
-53.423
 31
0.0
  0
LINE
  5
25B
330
17
100
AcDbEntity
  8
A-DOOR
100
AcDbLine
 10
154.1
 20
-53.45
 30
0.0
 11
153.2
 21
-53.45
 31
0.0
  0
LINE
  5
25C
330
17
100
AcDbEntity
  8
A-DOOR
100
AcDbLine
 10
156.45
 20
-53.481
 30
0.0
 11
155.55
 21
-53.469
 31
0.0
  0
LINE
  5
25D
330
17
100
AcDbEntity
  8
A-DOOR
100
AcDbLine
 10
160.05
 20
-53.5
 30
0.0
 11
159.15
 21
-53.5
 31
0.0
  0
LINE
  5
25E
330
17
100
AcDbEntity
  8
A-DOOR
100
AcDbLine
 10
164.2
 20
-53.5
 30
0.0
 11
163.3
 21
-53.5
 31
0.0
  0
LINE
  5
25F
330
17
100
AcDbEntity
  8
A-DOOR
100
AcDbLine
 10
172.65
 20
-53.55
 30
0.0
 11
171.75
 21
-53.55
 31
0.0
  0
LINE
  5
260
330
17
100
AcDbEntity
  8
A-DOOR
100
AcDbLine
 10
179.85
 20
-53.6
 30
0.0
 11
178.95
 21
-53.6
 31
0.0
  0
LINE
  5
261
330
17
100
AcDbEntity
  8
A-DOOR
100
AcDbLine
 10
188.3
 20
-53.63
 30
0.0
 11
187.4
 21
-53.62
 31
0.0
  0
LINE
  5
262
330
17
100
AcDbEntity
  8
A-DOOR
100
AcDbLine
 10
191.55
 20
-53.65
 30
0.0
 11
190.65
 21
-53.65
 31
0.0
  0
LINE
  5
263
330
17
100
AcDbEntity
  8
A-DOOR
100
AcDbLine
 10
210.7
 20
-53.728
 30
0.0
 11
209.8
 21
-53.722
 31
0.0
  0
LINE
  5
264
330
17
100
AcDbEntity
  8
A-DOOR
100
AcDbLine
 10
222.75
 20
-53.779
 30
0.0
 11
221.85
 21
-53.771
 31
0.0
  0
LINE
  5
265
330
17
100
AcDbEntity
  8
A-DOOR
100
AcDbLine
 10
235.35
 20
-53.827
 30
0.0
 11
234.45
 21
-53.823
 31
0.0
  0
LINE
  5
266
330
17
100
AcDbEntity
  8
A-DOOR
100
AcDbLine
 10
245.6
 20
-53.9
 30
0.0
 11
244.7
 21
-53.9
 31
0.0
  0
LINE
  5
267
330
17
100
AcDbEntity
  8
A-DOOR
100
AcDbLine
 10
247.95
 20
-53.9
 30
0.0
 11
247.05
 21
-53.9
 31
0.0
  0
LINE
  5
268
330
17
100
AcDbEntity
  8
A-DOOR
100
AcDbLine
 10
251.1
 20
-53.9
 30
0.0
 11
250.2
 21
-53.9
 31
0.0
  0
LINE
  5
269
330
17
100
AcDbEntity
  8
A-DOOR
100
AcDbLine
 10
259.0
 20
-53.95
 30
0.0
 11
258.1
 21
-53.95
 31
0.0
  0
LINE
  5
26A
330
17
100
AcDbEntity
  8
A-DOOR
100
AcDbLine
 10
268.7
 20
-53.98
 30
0.0
 11
267.8
 21
-53.97
 31
0.0
  0
LINE
  5
26B
330
17
100
AcDbEntity
  8
A-DOOR
100
AcDbLine
 10
272.525
 20
-54.0
 30
0.0
 11
271.625
 21
-54.0
 31
0.0
  0
LINE
  5
26C
330
17
100
AcDbEntity
  8
A-DOOR
100
AcDbLine
 10
260.65
 20
-54.13
 30
0.0
 11
261.55
 21
-54.12
 31
0.0
  0
LINE
  5
26D
330
17
100
AcDbEntity
  8
A-DOOR
100
AcDbLine
 10
252.2
 20
-54.235
 30
0.0
 11
253.1
 21
-54.215
 31
0.0
  0
LINE
  5
26E
330
17
100
AcDbEntity
  8
A-DOOR
100
AcDbLine
 10
241.95
 20
-54.355
 30
0.0
 11
242.85
 21
-54.345
 31
0.0
  0
LINE
  5
26F
330
17
100
AcDbEntity
  8
A-DOOR
100
AcDbLine
 10
236.05
 20
-54.431
 30
0.0
 11
236.95
 21
-54.419
 31
0.0
  0
LINE
  5
270
330
17
100
AcDbEntity
  8
A-DOOR
100
AcDbLine
 10
224.1
 20
-54.554
 30
0.0
 11
225.0
 21
-54.546
 31
0.0
  0
LINE
  5
271
330
17
100
AcDbEntity
  8
A-DOOR
100
AcDbLine
 10
212.6
 20
-54.695
 30
0.0
 11
213.5
 21
-54.655
 31
0.0
  0
LINE
  5
272
330
17
100
AcDbEntity
  8
A-DOOR
100
AcDbLine
 10
210.25
 20
-54.7
 30
0.0
 11
211.15
 21
-54.7
 31
0.0
  0
LINE
  5
273
330
17
100
AcDbEntity
  8
A-DOOR
100
AcDbLine
 10
206.65
 20
-54.731
 30
0.0
 11
207.55
 21
-54.719
 31
0.0
  0
LINE
  5
274
330
17
100
AcDbEntity
  8
A-DOOR
100
AcDbLine
 10
201.25
 20
-54.806
 30
0.0
 11
202.15
 21
-54.794
 31
0.0
  0
LINE
  5
275
330
17
100
AcDbEntity
  8
A-DOOR
100
AcDbLine
 10
195.35
 20
-54.88
 30
0.0
 11
196.25
 21
-54.87
 31
0.0
  0
LINE
  5
276
330
17
100
AcDbEntity
  8
A-DOOR
100
AcDbLine
 10
193.5
 20
-38.575
 30
0.0
 11
193.5
 21
-39.475
 31
0.0
  0
LINE
  5
277
330
17
100
AcDbEntity
  8
A-DOOR
100
AcDbLine
 10
193.5
 20
-28.3
 30
0.0
 11
193.5
 21
-29.2
 31
0.0
  0
LINE
  5
278
330
17
100
AcDbEntity
  8
A-DOOR
100
AcDbLine
 10
193.5
 20
-19.85
 30
0.0
 11
193.5
 21
-20.75
 31
0.0
  0
LINE
  5
279
330
17
100
AcDbEntity
  8
A-DOOR
100
AcDbLine
 10
193.5
 20
-12.05
 30
0.0
 11
193.5
 21
-12.95
 31
0.0
  0
LINE
  5
27A
330
17
100
AcDbEntity
  8
A-DOOR
100
AcDbLine
 10
76.6
 20
-54.872
 30
0.0
 11
75.7
 21
-54.878
 31
0.0
  0
LINE
  5
27B
330
17
100
AcDbEntity
  8
A-DOOR
100
AcDbLine
 10
88.65
 20
-54.821
 30
0.0
 11
87.75
 21
-54.829
 31
0.0
  0
LINE
  5
27C
330
17
100
AcDbEntity
  8
A-DOOR
100
AcDbLine
 10
101.25
 20
-54.773
 30
0.0
 11
100.35
 21
-54.777
 31
0.0
  0
LINE
  5
27D
330
17
100
AcDbEntity
  8
A-DOOR
100
AcDbLine
 10
111.5
 20
-54.705
 30
0.0
 11
110.6
 21
-54.745
 31
0.0
  0
LINE
  5
27E
330
17
100
AcDbEntity
  8
A-DOOR
100
AcDbLine
 10
113.85
 20
-54.7
 30
0.0
 11
112.95
 21
-54.7
 31
0.0
  0
LINE
  5
27F
330
17
100
AcDbEntity
  8
A-DOOR
100
AcDbLine
 10
117.45
 20
-54.7
 30
0.0
 11
116.55
 21
-54.7
 31
0.0
  0
LINE
  5
280
330
17
100
AcDbEntity
  8
A-DOOR
100
AcDbLine
 10
121.6
 20
-54.67
 30
0.0
 11
120.7
 21
-54.68
 31
0.0
  0
LINE
  5
281
330
17
100
AcDbEntity
  8
A-DOOR
100
AcDbLine
 10
130.05
 20
-54.65
 30
0.0
 11
129.15
 21
-54.65
 31
0.0
  0
LINE
  5
282
330
17
100
AcDbEntity
  8
A-DOOR
100
AcDbLine
 10
137.25
 20
-54.6
 30
0.0
 11
136.35
 21
-54.6
 31
0.0
  0
LINE
  5
283
330
17
100
AcDbEntity
  8
A-DOOR
100
AcDbLine
 10
144.45
 20
-54.565
 30
0.0
 11
143.55
 21
-54.585
 31
0.0
  0
LINE
  5
284
330
17
100
AcDbEntity
  8
A-DOOR
100
AcDbLine
 10
151.65
 20
-54.55
 30
0.0
 11
150.75
 21
-54.55
 31
0.0
  0
LINE
  5
285
330
17
100
AcDbEntity
  8
A-DOOR
100
AcDbLine
 10
160.65
 20
-54.5
 30
0.0
 11
159.75
 21
-54.5
 31
0.0
  0
LINE
  5
286
330
17
100
AcDbEntity
  8
A-DOOR
100
AcDbLine
 10
171.45
 20
-54.45
 30
0.0
 11
170.55
 21
-54.45
 31
0.0
  0
LINE
  5
287
330
17
100
AcDbEntity
  8
A-DOOR
100
AcDbLine
 10
181.225
 20
-54.4
 30
0.0
 11
180.325
 21
-54.4
 31
0.0
  0
LINE
  5
288
330
17
100
AcDbEntity
  8
A-DOOR
100
AcDbLine
 10
195.3
 20
-40.05
 30
0.0
 11
195.3
 21
-40.95
 31
0.0
  0
LINE
  5
289
330
17
100
AcDbEntity
  8
A-DOOR
100
AcDbLine
 10
195.3
 20
-36.45
 30
0.0
 11
195.3
 21
-37.35
 31
0.0
  0
LINE
  5
28A
330
17
100
AcDbEntity
  8
A-DOOR
100
AcDbLine
 10
195.3
 20
-32.85
 30
0.0
 11
195.3
 21
-33.75
 31
0.0
  0
LINE
  5
28B
330
17
100
AcDbEntity
  8
A-DOOR
100
AcDbLine
 10
195.3
 20
-28.7
 30
0.0
 11
195.3
 21
-29.6
 31
0.0
  0
LINE
  5
28C
330
17
100
AcDbEntity
  8
A-DOOR
100
AcDbLine
 10
195.3
 20
-20.25
 30
0.0
 11
195.3
 21
-21.15
 31
0.0
  0
LINE
  5
28D
330
17
100
AcDbEntity
  8
A-DOOR
100
AcDbLine
 10
195.3
 20
-12.25
 30
0.0
 11
195.3
 21
-13.15
 31
0.0
  0
ENDSEC
  0
SECTION
  2
OBJECTS
  0
DICTIONARY
  5
A
330
0
100
AcDbDictionary
281
1
  3
ACAD_COLOR
350
B
  3
ACAD_GROUP
350
C
  3
ACAD_LAYOUT
350
D
  3
ACAD_MATERIAL
350
E
  3
ACAD_MLEADERSTYLE
350
F
  3
ACAD_MLINESTYLE
350
10
  3
ACAD_PLOTSETTINGS
350
11
  3
ACAD_PLOTSTYLENAME
350
12
  3
ACAD_SCALELIST
350
14
  3
ACAD_TABLESTYLE
350
15
  3
ACAD_VISUALSTYLE
350
16
  3
EZDXF_META
350
2D
  0
DICTIONARY
  5
B
330
A
100
AcDbDictionary
281
1
  0
DICTIONARY
  5
C
330
A
100
AcDbDictionary
281
1
  0
DICTIONARY
  5
D
330
A
100
AcDbDictionary
281
1
  3
Model
350
1A
  3
Layout1
350
1E
  0
DICTIONARY
  5
E
330
A
100
AcDbDictionary
281
1
  3
ByBlock
350
1F
  3
ByLayer
350
20
  3
Global
350
21
  0
DICTIONARY
  5
F
330
A
100
AcDbDictionary
281
1
  3
Standard
350
2C
  0
DICTIONARY
  5
10
330
A
100
AcDbDictionary
281
1
  3
Standard
350
22
  0
DICTIONARY
  5
11
330
A
100
AcDbDictionary
281
1
  0
ACDBDICTIONARYWDFLT
  5
12
330
A
100
AcDbDictionary
281
1
  3
Normal
350
13
100
AcDbDictionaryWithDefault
340
13
  0
ACDBPLACEHOLDER
  5
13
330
12
  0
DICTIONARY
  5
14
330
A
100
AcDbDictionary
281
1
  0
DICTIONARY
  5
15
330
A
100
AcDbDictionary
281
1
  0
DICTIONARY
  5
16
330
A
100
AcDbDictionary
281
1
  0
LAYOUT
  5
1A
330
D
100
AcDbPlotSettings
  1

  4
A3
  6

 40
7.5
 41
20.0
 42
7.5
 43
20.0
 44
420.0
 45
297.0
 46
0.0
 47
0.0
 48
0.0
 49
0.0
140
0.0
141
0.0
142
1.0
143
1.0
 70
1024
 72
1
 73
0
 74
5
  7

 75
16
 76
0
 77
2
 78
300
147
1.0
148
0.0
149
0.0
100
AcDbLayout
  1
Model
 70
1
 71
0
 10
0.0
 20
0.0
 11
420.0
 21
297.0
 12
0.0
 22
0.0
 32
0.0
 14
1e+20
 24
1e+20
 34
1e+20
 15
-1e+20
 25
-1e+20
 35
-1e+20
146
0.0
 13
0.0
 23
0.0
 33
0.0
 16
1.0
 26
0.0
 36
0.0
 17
0.0
 27
1.0
 37
0.0
 76
1
330
17
  0
LAYOUT
  5
1E
330
D
100
AcDbPlotSettings
  1

  4
A3
  6

 40
7.5
 41
20.0
 42
7.5
 43
20.0
 44
420.0
 45
297.0
 46
0.0
 47
0.0
 48
0.0
 49
0.0
140
0.0
141
0.0
142
1.0
143
1.0
 70
0
 72
1
 73
0
 74
5
  7

 75
16
 76
0
 77
2
 78
300
147
1.0
148
0.0
149
0.0
100
AcDbLayout
  1
Layout1
 70
1
 71
1
 10
0.0
 20
0.0
 11
420.0
 21
297.0
 12
0.0
 22
0.0
 32
0.0
 14
1e+20
 24
1e+20
 34
1e+20
 15
-1e+20
 25
-1e+20
 35
-1e+20
146
0.0
 13
0.0
 23
0.0
 33
0.0
 16
1.0
 26
0.0
 36
0.0
 17
0.0
 27
1.0
 37
0.0
 76
1
330
1B
  0
MATERIAL
  5
1F
102
{ACAD_REACTORS
330
E
102
}
330
E
100
AcDbMaterial
  1
ByBlock
  2

 70
0
 40
1.0
 71
1
 41
1.0
 91
-1023410177
 42
1.0
 72
1
  3

 73
1
 74
1
 75
1
 44
0.5
 73
0
 45
1.0
 46
1.0
 77
1
  4

 78
1
 79
1
170
1
 48
1.0
171
1
  6

172
1
173
1
174
1
140
1.0
141
1.0
175
1
  7

176
1
177
1
178
1
143
1.0
179
1
  8

270
1
271
1
272
1
145
1.0
146
1.0
273
1
  9

274
1
275
1
276
1
 42
1.0
 72
1
  3

 73
1
 74
1
 75
1
 94
63
  0
MATERIAL
  5
20
102
{ACAD_REACTORS
330
E
102
}
330
E
100
AcDbMaterial
  1
ByLayer
  2

 70
0
 40
1.0
 71
1
 41
1.0
 91
-1023410177
 42
1.0
 72
1
  3

 73
1
 74
1
 75
1
 44
0.5
 73
0
 45
1.0
 46
1.0
 77
1
  4

 78
1
 79
1
170
1
 48
1.0
171
1
  6

172
1
173
1
174
1
140
1.0
141
1.0
175
1
  7

176
1
177
1
178
1
143
1.0
179
1
  8

270
1
271
1
272
1
145
1.0
146
1.0
273
1
  9

274
1
275
1
276
1
 42
1.0
 72
1
  3

 73
1
 74
1
 75
1
 94
63
  0
MATERIAL
  5
21
102
{ACAD_REACTORS
330
E
102
}
330
E
100
AcDbMaterial
  1
Global
  2

 70
0
 40
1.0
 71
1
 41
1.0
 91
-1023410177
 42
1.0
 72
1
  3

 73
1
 74
1
 75
1
 44
0.5
 73
0
 45
1.0
 46
1.0
 77
1
  4

 78
1
 79
1
170
1
 48
1.0
171
1
  6

172
1
173
1
174
1
140
1.0
141
1.0
175
1
  7

176
1
177
1
178
1
143
1.0
179
1
  8

270
1
271
1
272
1
145
1.0
146
1.0
273
1
  9

274
1
275
1
276
1
 42
1.0
 72
1
  3

 73
1
 74
1
 75
1
 94
63
  0
MLINESTYLE
  5
22
102
{ACAD_REACTORS
330
10
102
}
330
10
100
AcDbMlineStyle
  2
Standard
 70
0
  3

 62
256
 51
90.0
 52
90.0
 71
2
 49
0.5
 62
256
  6
BYLAYER
 49
-0.5
 62
256
  6
BYLAYER
  0
MLEADERSTYLE
  5
2C
102
{ACAD_REACTORS
330
F
102
}
330
F
100
AcDbMLeaderStyle
179
2
170
2
171
1
172
0
 90
2
 40
0.0
 41
0.0
173
1
 91
-1056964608
 92
-2
290
1
 42
2.0
291
1
 43
8.0
  3
Standard
 44
4.0
300

342
29
174
1
175
1
176
0
178
1
 93
-1056964608
 45
4.0
292
0
297
0
 46
4.0
 94
-1056964608
 47
1.0
 49
1.0
140
1.0
294
1
141
0.0
177
0
142
1.0
295
0
296
0
143
3.75
271
0
272
9
273
9
  0
DICTIONARY
  5
2D
330
A
100
AcDbDictionary
280
1
281
1
  3
CREATED_BY_EZDXF
350
2E
  3
WRITTEN_BY_EZDXF
350
290
  0
DICTIONARYVAR
  5
2E
330
2D
100
DictionaryVariables
280
0
  1
1.4.3 @ 2026-03-14T15:34:03.025020+00:00
  0
DICTIONARYVAR
  5
290
330
2D
100
DictionaryVariables
280
0
  1
1.4.3 @ 2026-03-14T15:34:03.053202+00:00
  0
ENDSEC
  0
EOF
